{"glyphs":{"0":{"ha":688,"x_min":-1,"x_max":601,"o":"m 314 1001 q 226 958 264 1000 q 161 849 188 917 q 121 695 135 781 q 106 521 107 610 q 115 348 104 432 q 151 198 126 264 q 212 93 175 132 q 299 57 249 54 q 382 101 346 58 q 443 210 418 143 q 482 363 468 278 q 497 537 496 449 q 489 709 499 625 q 456 859 479 793 q 398 964 433 925 q 314 1001 363 1003 m 314 1058 q 440 1011 386 1057 q 531 892 494 965 q 584 724 567 818 q 600 531 601 629 q 580 339 599 433 q 524 170 561 244 q 431 49 486 96 q 303 0 376 3 q 166 42 224 -3 q 71 160 108 86 q 16 331 33 235 q 1 526 -1 426 q 24 723 3 626 q 84 894 44 819 q 181 1015 124 969 q 314 1058 239 1060 z "},"1":{"ha":250,"x_min":-40,"x_max":164,"o":"m 146 1017 q 144 887 144 938 q 142 790 143 836 q 141 693 142 744 q 140 563 140 642 q 140 365 140 483 q 140 68 140 247 q 149 63 142 64 q 164 63 157 63 l 164 1 l 4 1 q 5 33 4 13 q 6 64 6 53 q 10 67 6 67 q 19 68 14 68 q 29 69 25 68 q 33 72 33 69 q 37 508 39 299 q 38 924 35 717 q 18 938 40 944 q -40 910 -4 932 q -10 991 -35 963 q 46 1030 15 1019 q 105 1035 76 1040 q 146 1017 133 1031 z "},"2":{"ha":556,"x_min":11,"x_max":497,"o":"m 17 746 q 17 850 11 799 q 44 942 24 901 q 104 1010 65 983 q 204 1043 143 1038 q 351 1017 292 1051 q 444 922 411 982 q 488 788 478 863 q 485 640 497 713 q 442 508 474 568 q 364 419 411 449 q 288 396 328 397 q 213 394 249 394 q 152 384 178 393 q 119 338 126 375 q 119 259 119 303 q 119 174 119 215 q 119 100 119 132 q 119 57 119 68 q 154 56 129 57 q 211 56 179 56 q 280 56 243 56 q 349 56 317 56 q 408 56 382 56 q 444 57 433 57 q 456 50 451 57 q 461 33 460 43 q 459 15 463 24 q 449 3 456 6 q 394 1 429 1 q 317 1 358 1 q 233 0 276 0 q 153 0 189 0 q 91 1 117 0 q 60 1 65 1 q 33 19 39 4 q 32 123 32 64 q 33 238 32 182 q 35 336 33 293 q 40 392 36 379 q 85 453 53 438 q 157 473 118 469 q 235 476 196 476 q 304 488 275 475 q 363 547 340 503 q 392 647 385 590 q 390 765 399 703 q 359 877 382 826 q 299 960 336 928 q 211 992 263 993 q 145 972 174 992 q 99 921 117 953 q 75 845 82 889 q 72 753 68 801 q 66 733 74 742 q 47 721 58 724 q 27 726 36 719 q 17 746 18 733 z "},"3":{"ha":556,"x_min":-4,"x_max":504,"o":"m 3 735 q 6 852 -4 797 q 45 948 17 907 q 122 1013 74 989 q 238 1038 169 1036 q 327 1020 289 1039 q 390 969 365 1001 q 426 897 415 938 q 432 811 436 856 q 392 690 426 749 q 292 590 358 631 q 385 552 346 579 q 452 485 425 525 q 492 397 479 446 q 504 296 504 349 q 483 173 503 229 q 424 77 463 117 q 332 17 386 38 q 210 1 278 -4 q 106 26 147 6 q 41 81 65 47 q 8 162 17 115 q 0 263 -1 208 q 10 282 1 274 q 31 289 19 290 q 49 279 42 288 q 56 258 57 271 q 60 180 54 215 q 83 119 67 144 q 131 77 100 93 q 210 58 161 61 q 295 70 261 54 q 351 117 329 86 q 384 193 372 149 q 403 293 396 238 q 353 467 394 413 q 231 538 311 522 q 203 542 214 540 q 181 544 192 544 q 155 543 169 544 q 117 540 140 542 q 94 547 104 539 q 82 564 85 554 q 85 583 79 574 q 111 597 92 593 q 125 599 117 597 q 146 604 133 600 q 176 617 158 608 q 219 640 194 625 q 276 692 251 660 q 315 762 300 725 q 333 837 329 799 q 329 906 338 875 q 299 958 321 938 q 242 981 278 978 q 148 966 185 985 q 90 914 111 947 q 61 836 68 881 q 58 743 54 792 q 52 722 60 732 q 33 711 44 713 q 13 716 22 708 q 3 735 4 724 z "},"4":{"ha":683,"x_min":0,"x_max":642,"o":"m 578 1017 l 564 389 q 594 388 579 388 q 624 388 608 388 q 636 379 632 388 q 641 361 640 371 q 638 342 642 351 q 624 331 633 333 q 593 331 608 331 q 563 332 578 332 l 556 68 q 565 65 556 64 q 575 63 575 67 q 574 31 575 51 q 574 0 574 11 q 536 0 558 0 q 492 1 514 0 q 451 2 471 1 q 421 3 432 3 l 421 64 q 425 67 421 67 q 435 68 429 68 q 444 69 440 68 q 449 72 449 69 l 456 333 q 360 334 408 333 q 266 333 311 335 q 181 331 221 332 q 111 325 140 329 l 103 310 q 89 284 99 301 q 67 254 79 267 q 40 238 54 242 q 11 254 25 235 q 3 276 6 261 q 0 306 0 290 q 5 335 0 321 q 19 357 10 350 q 72 375 33 367 q 132 534 103 443 q 182 719 161 625 q 214 899 203 813 q 219 1042 225 985 q 224 1062 217 1053 q 243 1074 232 1071 q 263 1067 254 1075 q 275 1049 272 1060 q 271 899 281 985 q 241 723 261 814 q 193 543 221 632 q 136 383 165 454 q 288 391 203 390 q 457 390 374 392 q 463 660 460 529 q 469 925 467 792 q 453 939 464 938 q 431 935 443 940 q 408 923 419 931 q 390 910 397 915 q 423 977 397 950 q 479 1017 449 1004 q 538 1031 510 1031 q 578 1017 565 1031 z "},"5":{"ha":569,"x_min":-6,"x_max":499,"o":"m 60 279 q 61 183 54 226 q 87 108 68 139 q 135 62 106 78 q 206 49 165 46 q 305 90 265 53 q 365 183 344 128 q 387 306 385 239 q 376 433 389 372 q 336 543 364 494 q 269 613 308 592 q 183 624 232 632 q 75 567 135 615 q 61 553 69 561 q 43 539 53 544 q 24 533 33 533 q 6 546 14 533 l 0 561 q 0 599 0 564 q 0 684 0 633 q 1 793 0 735 q 3 901 3 851 q 5 985 4 951 q 7 1021 6 1019 q 33 1039 13 1036 q 64 1040 38 1039 q 128 1040 90 1040 q 210 1040 165 1040 q 297 1040 254 1040 q 376 1040 340 1040 q 429 1040 411 1040 q 448 1031 442 1040 q 453 1012 454 1022 q 446 993 453 1001 q 425 985 439 985 q 392 985 417 985 q 333 985 367 985 q 263 984 300 985 q 193 983 226 983 q 136 983 160 983 q 106 983 113 983 l 103 638 q 210 690 157 678 q 310 690 263 701 q 401 639 364 676 q 461 550 439 601 q 491 437 483 499 q 491 313 499 375 q 461 193 483 251 q 403 90 439 135 q 318 20 368 46 q 206 -4 268 -6 q 101 22 144 -3 q 33 88 58 47 q 1 181 8 129 q 4 286 -6 232 q 16 305 7 297 q 36 311 25 313 q 54 299 47 308 q 60 279 61 290 z "},"6":{"ha":528,"x_min":-3,"x_max":493,"o":"m 465 1025 q 356 968 408 1015 q 260 851 304 921 q 183 694 217 781 q 130 520 150 608 q 104 349 110 432 q 110 201 99 265 q 153 97 122 136 q 236 60 183 58 q 298 90 271 61 q 343 164 325 118 q 370 267 361 210 q 379 381 379 324 q 369 490 379 438 q 340 578 360 542 q 290 628 319 614 q 219 624 260 642 q 199 620 210 617 q 182 633 188 624 q 178 655 175 644 q 192 672 182 665 q 298 695 250 706 q 381 644 346 685 q 437 541 415 604 q 464 407 458 478 q 459 264 469 336 q 421 134 449 192 q 347 39 393 76 q 233 0 300 1 q 95 41 147 -3 q 20 158 43 85 q 0 326 -3 231 q 27 520 3 421 q 94 717 51 619 q 194 892 138 814 q 319 1022 251 971 q 461 1082 388 1074 q 481 1075 472 1083 q 492 1056 490 1067 q 485 1035 493 1044 q 465 1025 476 1026 z "},"7":{"ha":574,"x_min":-83,"x_max":526,"o":"m 58 28 q 115 244 82 128 q 185 481 147 361 q 266 716 224 600 q 353 931 308 832 q 246 922 304 924 q 131 922 188 919 q 25 927 75 924 q -57 933 -25 931 q -76 944 -68 935 q -82 964 -83 953 q -70 983 -79 975 q -50 989 -61 990 q -3 985 -35 988 q 67 981 28 983 q 149 978 106 979 q 236 978 193 978 q 317 982 279 979 q 381 992 354 985 q 397 1029 382 1010 q 432 1060 411 1049 q 475 1073 453 1072 q 514 1054 497 1074 q 526 1024 525 1040 q 519 993 526 1008 q 498 966 511 978 q 468 949 485 954 q 378 731 422 850 q 292 488 333 613 q 217 240 251 363 q 158 14 183 118 q 141 3 157 7 q 106 0 125 0 q 72 6 88 0 q 58 28 57 13 z "},"8":{"ha":515,"x_min":-3,"x_max":461,"o":"m 188 431 q 141 363 161 401 q 109 282 121 324 q 96 200 97 240 q 106 128 94 160 q 141 76 117 96 q 206 56 165 56 q 292 82 264 56 q 325 151 319 108 q 317 249 331 194 q 279 358 304 303 q 222 462 254 413 q 157 546 189 511 q 88 640 118 586 q 39 750 57 693 q 20 863 21 807 q 42 963 19 918 q 113 1035 64 1007 q 244 1064 163 1063 q 369 1035 321 1065 q 439 955 417 1004 q 459 843 461 906 q 433 718 457 781 q 367 600 410 656 q 267 510 325 544 q 331 429 297 479 q 387 323 364 379 q 417 209 410 267 q 407 105 425 151 q 339 29 389 58 q 197 0 289 0 q 80 26 124 0 q 17 93 36 51 q 0 187 -3 135 q 22 292 3 239 q 75 392 42 344 q 151 474 108 440 q 172 480 161 481 q 190 469 183 479 q 198 449 199 461 q 188 431 197 438 m 229 553 q 299 630 269 583 q 344 728 328 676 q 364 831 361 779 q 355 922 367 882 q 315 986 343 963 q 240 1007 286 1010 q 162 974 189 1003 q 126 901 135 944 q 124 804 118 857 q 147 702 131 751 q 185 613 163 653 q 229 553 207 572 z "},"9":{"ha":553,"x_min":4,"x_max":490,"o":"m 32 56 q 140 113 89 65 q 234 231 192 160 q 308 388 276 301 q 360 562 340 474 q 384 733 379 650 q 376 881 389 817 q 333 985 364 946 q 249 1022 301 1024 q 188 997 214 1021 q 147 936 163 974 q 124 852 131 899 q 119 759 117 806 q 133 671 121 713 q 166 601 144 629 q 218 563 188 572 q 289 572 249 554 q 310 575 300 578 q 328 561 321 572 q 331 540 333 550 q 318 524 329 529 q 211 496 260 490 q 126 533 163 501 q 66 618 89 565 q 35 731 43 671 q 35 853 26 792 q 69 965 43 915 q 140 1048 94 1015 q 251 1082 185 1081 q 390 1040 338 1083 q 467 924 443 997 q 488 756 490 851 q 463 562 486 661 q 399 365 440 463 q 301 190 357 268 q 177 60 244 111 q 36 0 110 8 q 15 7 24 -1 q 6 26 7 15 q 13 47 4 38 q 32 56 21 56 z "},"\u0000":{"ha":0,"x_min":0,"x_max":0,"o":""},"\r":{"ha":417,"x_min":0,"x_max":0,"o":""}," ":{"ha":324,"x_min":0,"x_max":0,"o":""},"V":{"ha":561,"x_min":-1,"x_max":672,"o":"m 25 1117 q 94 1101 67 1124 q 133 1046 122 1079 q 143 978 138 1033 q 155 846 149 924 q 168 678 161 768 q 181 504 175 588 q 190 355 186 421 q 196 260 194 289 q 203 188 197 222 q 217 126 208 153 q 238 82 225 99 q 271 61 251 65 q 339 120 311 72 q 386 240 367 168 q 419 402 406 313 q 446 587 433 492 q 473 776 458 682 q 508 949 488 869 q 558 1089 529 1029 q 629 1176 586 1149 q 651 1178 640 1182 q 667 1164 663 1175 q 669 1142 672 1153 q 654 1126 665 1132 q 599 1046 622 1106 q 560 903 576 986 q 528 720 543 819 q 498 520 514 621 q 463 326 482 419 q 415 159 443 232 q 349 43 388 86 q 256 0 310 0 q 175 27 206 0 q 126 93 144 54 q 101 177 108 132 q 90 258 93 222 q 86 306 89 268 q 79 401 83 344 q 70 525 75 457 q 60 665 65 593 q 49 804 54 736 q 38 927 43 872 q 28 1018 32 982 q 21 1063 24 1054 q 0 1088 3 1067 q 6 1108 -1 1099 q 25 1117 14 1117 z "},"W":{"ha":868,"x_min":-32,"x_max":1015,"o":"m -6 1118 q 64 1103 36 1125 q 101 1049 92 1082 q 111 980 106 1035 q 124 847 117 925 q 137 680 131 769 q 149 507 143 590 q 160 357 156 424 q 165 261 164 290 q 184 133 169 189 q 232 65 199 78 q 285 125 263 78 q 324 237 307 172 q 355 375 342 301 q 379 513 368 449 q 401 622 390 576 q 425 679 411 668 q 454 697 438 689 q 487 708 471 704 q 514 710 503 711 q 526 700 525 708 q 527 622 529 678 q 524 494 525 565 q 524 347 522 424 q 533 207 525 271 q 557 101 540 143 q 604 58 574 60 q 647 100 626 57 q 683 209 667 143 q 712 354 699 275 q 735 506 725 433 q 750 635 744 579 q 758 710 756 692 q 769 782 763 736 q 785 881 775 828 q 811 989 796 935 q 849 1086 826 1043 q 903 1154 872 1129 q 976 1174 935 1179 l 992 1169 q 1009 1157 1003 1167 q 1013 1136 1015 1147 q 999 1119 1010 1125 q 978 1115 989 1113 l 969 1118 q 913 1083 938 1122 q 869 979 889 1043 q 835 838 850 915 q 811 688 821 760 q 795 560 801 617 q 786 483 789 504 q 778 415 783 458 q 765 319 774 371 q 744 214 757 268 q 714 115 732 160 q 672 38 696 69 q 617 3 649 7 q 558 13 583 -3 q 513 58 532 29 q 481 124 494 88 q 460 199 468 161 q 447 270 451 236 q 439 325 442 304 q 431 431 432 378 q 416 351 425 397 q 394 256 407 306 q 362 159 381 207 q 319 74 343 111 q 263 17 294 38 q 193 1 232 -4 q 133 38 157 6 q 92 110 108 69 q 69 193 76 151 q 58 261 61 235 q 53 335 57 274 q 42 483 49 397 q 28 666 36 568 q 14 849 21 764 q 1 993 7 933 q -10 1064 -6 1053 q -31 1089 -28 1068 q -24 1109 -32 1100 q -6 1118 -17 1118 z "},"T":{"ha":414,"x_min":1,"x_max":563,"o":"m 29 1124 l 221 1124 l 221 1126 q 201 1153 201 1133 q 210 1172 201 1164 q 231 1181 219 1181 q 289 1167 265 1183 q 324 1124 313 1150 l 535 1124 q 554 1115 546 1124 q 563 1096 563 1107 q 554 1076 563 1085 q 535 1068 546 1068 l 332 1068 q 332 986 332 1038 q 332 872 332 935 q 331 740 332 810 q 328 605 329 671 q 326 481 328 539 q 324 381 325 422 q 321 310 322 356 q 319 215 319 265 q 322 121 319 165 q 329 54 324 76 q 342 44 336 51 q 347 28 347 38 q 339 8 347 17 q 319 0 331 0 q 251 21 276 -3 q 219 79 226 44 q 213 145 214 106 q 211 227 211 185 q 213 310 211 269 q 214 381 214 350 q 216 477 215 421 q 218 598 217 533 q 220 730 219 663 q 222 860 221 797 q 222 977 222 924 q 222 1068 222 1031 l 29 1067 q 10 1075 18 1067 q 1 1096 1 1083 q 10 1115 1 1107 q 29 1124 18 1124 z "},"R":{"ha":507,"x_min":0,"x_max":531,"o":"m 28 1125 q 96 1104 71 1128 q 128 1046 121 1081 q 131 981 131 1036 q 131 844 131 925 q 172 946 147 896 q 233 1030 197 996 q 315 1078 268 1064 q 419 1071 361 1092 q 507 998 483 1049 q 528 886 531 947 q 502 763 525 825 q 450 657 479 701 q 357 549 408 593 q 240 474 306 504 q 320 426 290 458 q 367 354 350 394 q 391 270 383 314 q 405 186 399 226 q 419 115 411 146 q 444 68 426 83 q 458 62 451 63 q 472 61 464 61 q 492 55 483 63 q 503 36 501 47 q 497 16 504 25 q 478 6 489 7 q 378 24 413 0 q 328 90 344 49 q 305 182 311 131 q 290 282 299 233 q 263 371 282 331 q 201 429 243 411 q 152 443 174 442 q 125 460 131 444 l 121 325 q 119 255 121 300 q 118 160 118 210 q 119 65 118 110 q 126 -1 121 21 q 140 -11 135 -4 q 144 -28 146 -18 q 136 -47 144 -39 q 117 -56 128 -56 q 49 -35 75 -58 q 17 24 24 -11 q 10 90 11 50 q 8 172 8 129 q 10 254 8 214 q 13 325 11 294 q 15 448 14 375 q 17 601 17 521 q 19 763 18 682 q 21 910 21 844 q 20 1021 21 976 q 18 1071 19 1065 q 0 1097 0 1078 q 8 1117 0 1108 q 28 1125 17 1125 m 129 696 l 125 483 q 147 499 132 496 q 174 507 163 503 q 272 572 226 524 q 352 680 318 619 q 406 805 386 740 q 425 922 425 869 q 403 1003 425 974 q 333 1024 382 1033 q 261 981 292 1015 q 210 901 231 947 q 177 807 189 856 q 160 722 165 758 q 149 703 158 711 q 129 696 140 696 z "},"P":{"ha":468,"x_min":0,"x_max":521,"o":"m 28 1181 q 96 1160 71 1183 q 128 1101 121 1136 q 131 1043 131 1093 q 131 921 131 993 q 169 1010 146 967 q 224 1084 192 1053 q 297 1129 256 1115 q 389 1132 338 1143 q 490 1067 458 1117 q 520 949 521 1017 q 490 804 519 882 q 408 656 460 726 q 285 528 356 585 q 131 449 214 472 q 124 447 128 447 l 121 381 q 119 310 121 356 q 118 215 118 265 q 119 121 118 165 q 126 54 121 76 q 140 44 135 51 q 144 28 146 38 q 136 8 144 17 q 117 0 128 0 q 49 21 75 -3 q 17 79 24 44 q 10 145 11 106 q 8 227 8 185 q 10 310 8 269 q 13 381 11 350 q 15 503 14 431 q 17 657 17 576 q 19 819 18 738 q 21 966 21 900 q 20 1076 21 1032 q 18 1126 19 1121 q 0 1153 0 1133 q 8 1172 0 1164 q 28 1181 17 1181 m 129 751 l 125 506 q 234 581 183 528 q 323 699 285 633 q 385 836 361 765 q 412 963 408 907 q 397 1053 415 1019 q 332 1081 378 1088 q 259 1039 290 1074 q 206 958 228 1004 q 171 862 183 911 q 154 778 158 813 q 129 751 151 754 z "},"Q":{"ha":492,"x_min":-1,"x_max":490,"o":"m 397 758 q 410 638 407 704 q 408 500 413 571 q 391 358 403 429 q 360 224 379 288 q 316 111 342 161 q 260 32 290 61 q 224 7 240 14 q 190 -1 207 0 q 131 13 157 -1 q 85 48 104 26 q 54 96 67 69 q 35 147 42 122 q 12 272 21 194 q 1 440 3 350 q 5 626 -1 531 q 28 807 11 722 q 74 958 44 892 q 146 1056 103 1024 q 199 1075 168 1072 q 260 1071 229 1078 q 317 1046 290 1064 q 358 1003 343 1028 q 378 955 369 983 q 392 894 388 926 q 399 826 397 861 q 397 758 400 792 m 201 928 q 274 932 238 939 q 335 900 311 925 q 322 949 331 931 q 310 978 317 963 q 293 1005 303 994 q 270 1019 283 1015 q 239 1013 257 1022 q 188 953 210 997 q 152 851 167 910 q 129 726 138 793 q 117 595 121 658 q 112 478 113 532 q 113 396 111 425 q 114 350 113 386 q 119 267 115 314 q 131 174 124 221 q 153 95 139 126 q 187 58 167 64 q 235 88 207 51 q 289 191 265 126 q 328 331 313 256 q 350 485 343 406 q 354 636 357 565 q 351 634 353 635 q 349 631 350 633 q 314 617 331 614 q 285 633 297 619 q 267 667 274 646 q 260 713 260 689 l 263 736 q 273 755 264 747 q 293 760 282 763 q 312 749 304 758 q 318 729 319 740 q 317 706 317 719 q 319 682 317 693 q 340 758 336 707 l 333 783 q 315 833 324 814 q 295 861 307 851 q 266 874 283 871 q 222 876 249 876 q 201 876 211 872 q 186 892 190 881 q 186 913 182 903 q 201 928 190 924 m 7 -108 q 40 -40 11 -58 q 112 -19 69 -21 q 204 -28 154 -18 q 300 -49 254 -39 q 381 -61 346 -58 q 429 -47 415 -64 q 433 -28 433 -42 q 442 -8 433 -17 q 463 0 451 0 q 482 -10 474 -1 q 490 -29 490 -18 q 447 -102 483 -85 q 360 -116 410 -119 q 256 -99 310 -112 q 165 -81 203 -86 q 134 -76 151 -79 q 101 -75 117 -74 q 75 -83 86 -76 q 63 -108 64 -90 q 54 -128 63 -119 q 35 -136 46 -136 q 14 -128 22 -136 q 7 -108 6 -119 z "},"N":{"ha":518,"x_min":-1,"x_max":471,"o":"m 26 6 q 6 13 14 4 q -1 32 -1 21 q 18 60 -1 53 q 22 107 19 65 q 26 210 24 149 q 31 348 29 272 q 35 500 33 424 q 38 647 36 576 q 40 765 40 717 q 41 834 40 796 q 42 911 42 872 q 46 986 43 950 q 56 1050 49 1022 q 90 1108 64 1085 q 158 1129 117 1132 q 178 1121 171 1129 q 186 1101 186 1113 q 167 1075 186 1082 q 160 1036 163 1060 q 154 983 157 1013 q 197 1040 172 1015 q 258 1074 222 1065 q 345 1077 310 1085 q 403 1050 381 1069 q 437 1001 425 1031 q 454 939 449 971 q 460 876 460 907 q 460 819 460 844 q 458 747 460 806 q 455 608 457 689 q 451 433 453 526 q 449 260 450 340 q 448 123 447 181 q 451 56 449 65 q 471 31 471 50 q 462 10 471 19 q 442 1 453 1 q 374 17 400 -6 q 342 74 349 40 q 338 139 339 86 q 339 265 338 192 q 342 422 340 338 q 346 585 343 507 q 351 728 349 664 q 354 821 353 792 q 353 908 356 867 q 340 977 350 949 q 310 1017 329 1006 q 260 1015 290 1028 q 224 985 239 1007 q 197 938 208 964 q 180 885 186 911 q 172 840 174 858 q 150 814 169 819 q 149 787 149 799 q 149 765 149 775 q 147 651 149 718 q 144 512 146 585 q 141 366 143 439 q 137 233 139 293 q 133 133 135 174 q 129 85 131 93 q 94 26 121 50 q 26 6 68 3 z "},"M":{"ha":844,"x_min":0,"x_max":789,"o":"m 28 7 q 8 15 17 7 q 0 35 0 22 q 19 61 0 54 q 23 108 21 67 q 26 212 25 150 q 30 349 28 274 q 33 502 32 425 q 35 649 33 579 q 36 768 36 718 q 36 835 36 797 q 37 913 36 874 q 40 988 38 951 q 50 1051 43 1024 q 83 1110 57 1086 q 151 1131 110 1133 q 171 1122 163 1131 q 179 1103 179 1114 q 160 1076 179 1083 q 153 1038 156 1061 q 149 985 151 1014 q 190 1042 165 1017 q 251 1075 215 1067 q 338 1078 303 1086 q 397 1051 374 1071 q 431 1001 419 1031 q 449 940 443 972 q 493 1025 464 986 q 571 1075 522 1064 q 657 1078 622 1086 q 715 1051 692 1071 q 749 1002 738 1032 q 767 940 761 972 q 773 877 772 908 q 774 821 774 846 q 773 749 774 807 q 771 609 772 690 q 768 435 769 528 q 767 262 767 342 q 767 124 767 182 q 771 57 768 67 q 789 32 789 53 q 781 12 789 21 q 761 3 772 3 q 694 19 719 -4 q 661 75 668 42 q 658 140 658 88 q 657 266 657 193 q 658 424 657 339 q 661 587 660 508 q 664 728 663 665 q 667 822 665 792 q 665 909 668 868 q 652 978 663 950 q 622 1018 642 1007 q 572 1017 603 1029 q 536 987 551 1008 q 510 939 521 965 q 493 886 499 913 q 486 842 488 860 q 476 822 485 831 q 456 814 467 814 q 455 758 456 797 q 453 665 454 719 q 451 547 451 611 q 449 419 450 483 q 449 292 449 354 q 449 181 449 231 q 449 98 449 131 q 453 57 450 65 q 472 32 469 53 q 463 12 472 21 q 443 3 454 3 q 376 19 401 -3 q 343 75 350 42 q 340 140 340 88 q 339 266 339 193 q 340 424 339 339 q 343 587 342 508 q 346 728 344 665 q 349 822 347 792 q 347 910 350 869 q 334 979 344 951 q 304 1018 324 1007 q 254 1017 285 1029 q 218 987 233 1008 q 192 939 203 965 q 175 886 181 913 q 168 842 169 860 q 144 815 165 819 l 144 768 q 144 654 144 721 q 142 514 143 588 q 140 367 142 440 q 137 235 139 294 q 133 135 135 175 q 129 86 131 94 q 96 28 122 51 q 28 7 69 4 z "},"Y":{"ha":536,"x_min":0,"x_max":476,"o":"m 450 1096 q 469 1087 461 1096 q 476 1067 476 1078 q 457 1042 476 1046 q 452 985 454 1033 q 449 864 450 938 q 445 698 447 790 q 442 510 443 606 q 440 321 442 414 q 438 153 439 228 q 437 29 438 79 q 436 -31 436 -21 q 432 -87 435 -56 q 421 -151 429 -119 q 397 -212 413 -183 q 357 -262 382 -242 q 295 -289 332 -282 q 207 -285 258 -296 q 144 -251 169 -276 q 104 -191 119 -225 q 81 -120 89 -157 q 72 -53 74 -83 q 80 -33 72 -42 q 100 -25 88 -25 q 119 -33 111 -25 q 128 -53 128 -42 q 135 -96 129 -69 q 150 -149 140 -122 q 175 -197 160 -175 q 210 -228 190 -219 q 263 -229 240 -240 q 301 -190 286 -218 q 324 -120 317 -161 q 331 -32 331 -79 l 331 110 q 288 44 314 72 q 221 6 261 15 q 101 13 143 -11 q 41 78 60 36 q 19 172 22 121 q 17 260 17 222 q 17 306 17 269 q 19 395 18 342 q 20 513 19 449 q 22 645 21 578 q 23 776 22 713 q 23 892 24 840 q 22 979 22 944 q 18 1022 21 1014 q 6 1032 11 1025 q 0 1049 0 1039 q 8 1068 0 1060 q 28 1078 17 1076 q 96 1061 69 1083 q 129 1004 122 1039 q 133 938 132 990 q 133 813 133 886 q 132 656 133 740 q 129 492 131 571 q 126 351 128 414 q 124 258 125 288 q 124 170 121 211 q 138 101 128 129 q 168 61 149 72 q 218 63 188 50 q 254 93 239 71 q 281 142 269 115 q 297 194 292 168 q 304 238 303 221 q 331 265 307 263 q 332 424 331 340 q 334 588 333 507 q 336 744 335 669 q 339 878 338 819 q 342 976 340 938 q 346 1024 343 1014 q 381 1079 354 1057 q 450 1096 407 1101 z "},"I":{"ha":207,"x_min":3,"x_max":149,"o":"m 31 1079 q 99 1058 74 1082 q 131 1000 124 1035 q 133 951 132 992 q 133 851 133 911 q 132 719 133 792 q 129 572 131 646 q 126 432 128 499 q 124 318 125 365 q 122 258 124 294 q 121 185 121 222 q 122 112 121 147 q 129 54 124 76 q 143 44 138 51 q 147 28 149 38 q 139 8 147 17 q 119 0 131 0 q 52 21 78 -3 q 19 79 26 44 q 10 195 8 133 q 15 318 13 257 q 18 438 17 368 q 20 584 19 507 q 22 737 21 661 q 24 874 24 813 q 23 978 24 936 q 21 1025 22 1019 q 3 1051 3 1032 q 11 1071 3 1063 q 31 1079 19 1079 z "},"G":{"ha":561,"x_min":-4,"x_max":519,"o":"m 200 419 q 346 422 274 421 q 492 422 418 422 q 511 414 503 422 q 519 394 519 406 q 511 374 519 383 q 492 365 503 365 l 471 365 q 475 351 475 358 q 463 242 472 301 q 431 130 454 182 q 367 42 408 78 q 260 0 326 6 q 128 42 182 -6 q 44 172 75 90 q 5 358 14 254 q 6 569 -4 463 q 44 776 15 676 q 117 947 72 876 q 224 1050 163 1018 q 358 1056 285 1082 q 424 1007 400 1040 q 458 934 449 974 q 465 853 468 894 q 449 783 461 813 q 415 739 436 753 q 368 739 393 725 q 347 760 354 747 q 338 789 340 774 q 335 820 335 804 q 336 850 335 836 q 347 869 338 861 q 367 875 356 876 q 385 864 378 874 q 392 843 393 854 q 390 819 390 833 q 393 794 390 806 q 408 837 403 807 q 408 900 413 867 q 386 963 403 933 q 339 1003 369 992 q 265 983 300 1017 q 202 884 231 949 q 153 732 174 819 q 123 551 133 644 q 115 367 113 458 q 133 206 117 276 q 180 92 149 135 q 260 50 211 49 q 340 85 310 51 q 387 167 369 119 q 410 265 404 214 q 418 351 417 315 q 422 365 418 358 q 311 365 367 365 q 200 364 256 364 q 181 372 189 364 q 172 392 172 381 q 181 411 172 403 q 200 419 189 419 z "},"S":{"ha":600,"x_min":-4,"x_max":549,"o":"m 150 324 q 149 356 150 339 q 138 385 147 372 q 88 357 108 383 q 60 293 68 331 q 58 213 53 256 q 88 133 64 169 q 155 75 111 97 q 265 57 199 53 q 366 100 329 60 q 412 197 403 140 q 404 317 421 254 q 344 431 388 381 q 263 503 308 474 q 176 564 218 532 q 101 638 135 596 q 56 751 68 681 q 56 850 46 801 q 89 940 65 899 q 147 1013 113 981 q 224 1061 182 1044 q 293 1078 257 1075 q 365 1074 329 1082 q 433 1047 400 1065 q 492 997 465 1028 q 527 938 513 974 q 545 863 542 901 q 539 792 549 825 q 500 743 529 758 q 467 735 482 733 q 442 748 453 738 q 425 775 432 758 q 417 808 418 792 l 417 851 q 428 870 419 863 q 449 876 438 878 q 467 866 460 875 q 474 846 475 857 q 472 821 472 836 q 476 794 471 806 q 486 815 483 800 q 489 847 489 829 q 486 880 489 864 q 482 903 483 896 q 438 978 467 951 q 374 1010 408 1004 q 303 1006 339 1017 q 237 967 267 994 q 188 897 207 939 q 169 800 169 854 q 199 688 169 733 q 273 608 229 643 q 365 541 317 574 q 450 467 414 508 q 504 374 486 424 q 524 273 522 324 q 508 174 525 222 q 460 89 492 126 q 379 27 428 51 q 267 0 331 3 q 133 22 188 -4 q 48 92 79 49 q 6 188 17 135 q 3 291 -4 242 q 35 379 11 340 q 97 433 60 418 q 151 441 131 447 q 184 417 172 435 q 201 372 196 399 q 207 318 206 344 q 197 299 206 307 q 176 293 188 292 q 158 303 165 294 q 150 324 150 313 z "},"U":{"ha":522,"x_min":0,"x_max":475,"o":"m 447 1124 q 467 1117 458 1125 q 475 1097 475 1108 q 454 1069 472 1076 q 451 1022 453 1063 q 446 919 449 981 q 440 781 443 857 q 435 629 438 706 q 432 483 433 553 q 429 364 431 413 q 428 295 429 333 q 426 218 428 257 q 422 142 425 179 q 413 79 418 106 q 378 21 404 44 q 310 0 351 -3 q 290 8 297 0 q 282 28 282 17 q 301 54 282 47 q 308 95 306 69 q 314 153 311 121 q 271 92 297 118 q 207 56 244 65 q 120 52 156 44 q 63 79 85 60 q 28 128 40 99 q 12 190 17 158 q 7 253 7 222 q 7 310 7 285 q 8 356 7 319 q 10 445 8 392 q 13 564 11 499 q 17 696 15 629 q 19 827 18 763 q 21 944 21 892 q 20 1031 21 996 q 18 1074 19 1065 q 0 1099 0 1078 q 8 1119 0 1110 q 28 1128 17 1128 q 96 1112 71 1135 q 128 1056 121 1089 q 131 990 131 1042 q 130 865 131 938 q 126 707 129 792 q 122 544 124 622 q 117 401 119 465 q 113 308 114 338 q 113 222 110 263 q 126 152 115 181 q 156 113 136 124 q 206 114 175 101 q 242 144 226 122 q 269 192 257 165 q 287 244 281 218 q 294 289 293 271 q 319 317 297 311 q 321 342 321 331 q 321 364 321 354 q 323 478 321 411 q 326 617 325 544 q 331 763 328 690 q 335 896 333 836 q 340 996 338 956 q 344 1044 342 1036 q 378 1103 351 1079 q 447 1124 406 1126 z "},"L":{"ha":293,"x_min":-14,"x_max":279,"o":"m 129 1111 q 149 1104 140 1113 q 157 1085 157 1096 q 138 1057 157 1064 q 135 1007 136 1050 q 132 898 133 964 q 130 751 131 832 q 128 591 129 671 q 128 439 128 511 q 128 317 128 367 q 128 262 128 293 q 128 197 128 231 q 126 128 128 163 q 122 65 125 94 l 250 65 q 271 57 263 65 q 279 38 279 49 q 271 18 279 26 q 250 10 263 10 l 114 10 q 79 -44 104 -22 q 14 -62 54 -65 q -6 -55 3 -62 q -14 -35 -14 -47 q 6 -8 -14 -15 q 14 58 11 14 q 17 152 17 103 q 18 247 18 201 q 18 317 18 293 q 18 433 18 364 q 19 580 18 503 q 20 734 19 657 q 22 875 21 811 q 25 982 24 939 q 28 1033 26 1025 q 61 1090 35 1067 q 129 1111 88 1114 z "},"J":{"ha":424,"x_min":-6,"x_max":382,"o":"m 354 1038 q 374 1028 365 1036 q 382 1008 382 1019 q 361 982 379 989 q 356 939 358 974 q 353 852 354 904 q 349 736 351 800 q 347 605 347 672 q 344 473 346 538 q 342 355 343 408 q 341 265 342 301 q 340 219 340 229 q 334 131 339 182 q 310 37 329 79 q 248 -29 290 -6 q 129 -35 206 -53 q 67 -1 92 -26 q 26 59 42 25 q 3 130 10 93 q -6 197 -4 167 q 3 217 -6 208 q 22 225 11 225 q 42 217 33 225 q 51 197 51 208 q 58 154 53 181 q 73 101 63 128 q 98 53 83 75 q 132 22 113 31 q 182 21 163 10 q 213 60 201 32 q 229 130 225 89 q 233 218 233 171 q 234 310 233 247 q 235 452 235 374 q 238 615 236 531 q 241 773 239 700 q 246 898 243 846 q 251 964 249 950 q 286 1020 260 997 q 354 1038 313 1043 z "},"K":{"ha":503,"x_min":1,"x_max":494,"o":"m 464 -54 q 371 -43 403 -68 q 322 27 339 -18 q 296 131 306 72 q 269 244 286 189 q 219 341 251 299 q 125 399 186 383 q 124 331 125 363 q 122 274 124 299 q 121 203 122 249 q 119 108 119 158 q 121 14 119 58 q 128 -53 122 -31 q 142 -62 136 -56 q 146 -79 147 -69 q 138 -99 146 -90 q 118 -107 129 -107 q 51 -86 76 -110 q 18 -28 25 -62 q 11 38 13 -1 q 10 120 10 78 q 11 203 10 163 q 14 274 13 243 q 17 397 15 324 q 19 550 18 469 q 21 712 19 631 q 22 859 22 793 q 22 969 22 925 q 19 1019 21 1013 q 1 1046 1 1026 q 10 1065 1 1057 q 29 1074 18 1074 q 97 1053 72 1076 q 129 994 122 1029 q 131 932 131 985 q 131 802 132 879 q 129 635 131 725 q 126 463 128 546 q 202 530 172 482 q 253 640 232 578 q 290 769 274 701 q 324 894 306 836 q 365 995 342 953 q 425 1047 388 1038 q 473 1038 461 1057 q 483 992 485 1019 q 470 938 481 965 q 453 904 460 911 q 419 899 435 922 q 386 828 403 875 q 350 719 369 781 q 308 600 331 658 q 256 495 285 542 q 190 433 226 449 q 278 381 246 418 q 328 299 310 344 q 358 202 347 253 q 381 108 369 151 q 413 36 393 65 q 467 1 432 7 q 487 -8 479 0 q 493 -28 494 -17 q 484 -48 493 -40 q 464 -54 475 -56 z "},"E":{"ha":589,"x_min":-54,"x_max":535,"o":"m 33 1086 q 100 1066 75 1089 q 133 1011 125 1043 l 507 1011 q 526 1003 518 1011 q 535 983 535 994 q 526 964 535 972 q 507 956 518 956 q 322 956 414 956 q 136 954 229 956 q 136 874 136 922 q 135 769 136 826 q 134 651 135 713 q 132 529 133 589 l 328 529 q 347 521 339 529 q 356 501 356 513 q 347 481 356 489 q 328 472 339 472 l 131 472 l 126 292 q 126 248 126 275 q 124 188 125 221 q 124 122 124 156 q 124 57 124 88 l 507 57 q 526 49 518 57 q 535 29 535 40 q 526 8 535 17 q 507 0 518 0 l 128 0 q 129 -19 128 -11 q 132 -35 131 -28 q 146 -44 140 -37 q 150 -61 151 -51 q 142 -81 150 -72 q 122 -89 133 -89 q 55 -67 81 -92 q 22 -10 29 -43 q 15 56 17 17 q 14 138 14 96 q 15 221 14 181 q 18 292 17 261 l 21 472 l -26 472 q -46 481 -37 472 q -54 500 -54 489 q -46 521 -54 513 q -26 529 -37 529 l 22 529 q 25 699 24 613 q 26 857 26 785 q 26 977 26 929 q 24 1032 25 1025 q 6 1058 6 1039 q 14 1078 6 1069 q 33 1086 22 1086 z "},"F":{"ha":317,"x_min":-49,"x_max":374,"o":"m 40 1089 q 106 1069 81 1092 q 139 1014 132 1046 l 346 1014 q 365 1006 357 1014 q 374 986 374 997 q 365 966 374 975 q 346 957 357 957 l 142 957 q 142 890 142 929 q 142 805 142 851 q 141 707 142 758 q 139 604 140 656 l 265 604 q 285 596 276 604 q 293 576 293 588 q 285 557 293 565 q 265 549 276 549 l 139 549 l 133 294 q 131 225 132 271 q 129 130 129 179 q 131 35 129 81 q 139 -32 133 -10 q 151 -42 146 -35 q 157 -58 157 -49 q 149 -78 157 -69 q 128 -86 140 -86 q 61 -65 86 -89 q 29 -7 36 -42 q 22 59 24 19 q 21 141 21 99 q 22 224 21 183 q 24 294 24 264 q 26 407 25 340 q 29 549 28 474 l -19 549 q -40 557 -32 549 q -49 576 -49 565 q -40 596 -49 588 q -19 604 -32 604 l 29 604 q 31 755 31 681 q 32 890 32 829 q 32 989 32 950 q 31 1035 32 1028 q 11 1061 11 1042 q 20 1081 11 1072 q 40 1089 29 1089 z "},"D":{"ha":547,"x_min":-10,"x_max":499,"o":"m 18 1118 q 86 1097 61 1121 q 118 1039 111 1074 q 121 978 121 1029 q 121 853 121 928 q 147 931 132 892 q 184 1001 163 969 q 233 1053 206 1032 q 297 1078 261 1074 q 394 1036 354 1083 q 458 909 433 989 q 490 726 482 829 q 492 517 499 624 q 466 310 486 410 q 412 136 446 210 q 332 24 378 63 q 228 4 286 -14 q 172 38 194 14 q 138 94 150 63 q 126 159 126 125 q 133 224 125 193 q 149 238 139 235 q 171 236 160 242 q 185 220 182 231 q 183 199 189 210 q 181 163 179 182 q 188 124 182 143 q 204 88 193 104 q 232 63 215 71 q 289 80 263 46 q 335 181 315 114 q 369 338 356 247 q 388 524 382 428 q 391 712 393 619 q 378 875 389 804 q 346 986 367 946 q 294 1019 325 1026 q 233 972 258 1011 q 190 885 207 933 q 163 788 172 836 q 150 711 153 739 q 140 692 149 700 q 119 686 131 685 q 117 581 118 633 q 115 481 117 529 q 113 391 114 433 q 111 318 113 349 q 110 247 111 293 q 108 152 108 201 q 110 58 108 103 q 117 -8 111 14 q 131 -18 125 -11 q 135 -35 136 -25 q 126 -54 135 -46 q 107 -62 118 -62 q 40 -42 65 -65 q 7 17 14 -18 q 0 83 1 43 q -1 165 -1 122 q 0 247 -1 207 q 3 318 1 288 q 6 441 4 368 q 8 594 7 514 q 10 756 8 675 q 11 903 11 838 q 10 1014 11 969 q 8 1064 10 1058 q -10 1090 -10 1071 q -1 1110 -10 1101 q 18 1118 7 1118 z "},"B":{"ha":649,"x_min":82,"x_max":613,"o":"m 110 1125 q 178 1104 153 1128 q 210 1046 203 1081 q 213 980 213 1036 q 213 842 213 924 q 253 942 228 893 q 313 1026 278 992 q 396 1074 349 1061 q 501 1067 443 1088 q 589 994 565 1044 q 610 882 613 943 q 584 759 607 821 q 532 653 561 697 q 459 563 499 601 q 372 497 419 525 q 477 449 432 486 q 544 338 522 413 q 553 217 561 281 q 515 103 544 154 q 435 23 485 51 q 322 8 386 -6 q 266 35 289 15 q 231 83 243 56 q 218 141 219 110 q 225 203 217 172 q 241 217 231 214 q 263 215 251 221 q 277 199 274 210 q 275 178 281 189 q 272 141 271 161 q 281 103 274 121 q 301 74 289 86 q 333 63 314 63 q 397 92 371 61 q 435 167 422 122 q 446 265 447 213 q 428 360 444 317 q 381 428 413 403 q 301 447 350 454 q 274 443 289 446 q 247 440 260 440 q 222 442 233 439 q 207 457 211 446 l 203 325 q 201 255 203 300 q 200 160 200 210 q 201 65 200 110 q 208 -1 203 21 q 222 -11 217 -4 q 226 -28 228 -18 q 218 -47 226 -39 q 199 -56 210 -56 q 131 -35 157 -58 q 99 24 106 -11 q 92 90 93 50 q 90 172 90 129 q 92 254 90 214 q 94 325 93 294 q 97 448 96 375 q 99 601 99 521 q 101 763 100 682 q 103 910 103 844 q 102 1021 103 976 q 100 1071 101 1065 q 82 1097 82 1078 q 90 1117 82 1108 q 110 1125 99 1125 m 211 693 l 207 479 q 226 494 211 488 l 228 494 q 242 499 235 497 q 256 503 250 500 q 358 571 311 524 q 437 676 404 618 q 488 797 469 735 q 506 908 506 858 q 487 990 506 958 q 428 1021 468 1022 q 349 986 382 1019 q 294 906 317 953 q 260 807 272 858 q 242 718 247 756 q 231 699 240 707 q 211 693 222 692 z "},"A":{"ha":794,"x_min":-3,"x_max":711,"o":"m 635 -69 q 565 -53 593 -75 q 528 3 538 -31 q 519 85 524 18 q 508 244 514 153 l 186 244 q 140 118 165 174 q 86 32 115 63 q 74 21 79 25 q 65 13 69 17 q 54 7 60 10 q 40 -1 49 4 q 18 -3 29 -7 q 3 13 7 1 q 1 34 -3 24 q 17 49 6 44 q 40 66 32 60 q 60 88 49 72 q 96 154 79 114 q 128 244 113 194 l 46 244 q 25 253 33 244 q 17 272 17 261 q 25 292 17 283 q 46 300 33 300 l 143 300 q 171 415 154 343 q 208 571 188 488 q 254 739 229 654 q 307 892 279 824 q 365 1003 335 961 q 428 1044 396 1046 q 499 997 469 1043 q 548 881 528 951 q 581 725 568 811 q 600 557 593 639 q 610 406 607 475 q 615 301 613 338 l 683 301 q 703 293 694 301 q 711 272 711 285 q 703 253 711 261 q 683 244 694 244 l 618 244 q 624 150 621 194 q 631 71 628 106 q 635 13 633 36 q 639 -15 638 -10 q 660 -40 660 -19 q 653 -60 661 -51 q 635 -69 646 -69 m 506 301 q 502 382 504 324 q 497 515 500 440 q 488 672 493 590 q 472 822 482 753 q 448 939 463 892 q 413 992 433 986 q 373 939 393 983 q 333 828 353 894 q 293 685 313 763 q 256 533 274 607 q 225 396 239 458 q 201 300 211 333 l 506 301 z "},"%":{"ha":607,"x_min":17,"x_max":574,"o":"m 143 550 l 136 550 q 133 551 133 550 q 131 551 132 551 q 60 598 85 564 q 26 677 35 632 q 23 772 17 722 q 47 865 29 822 q 94 939 65 908 q 161 976 124 969 q 248 957 214 985 q 298 881 282 929 q 311 775 314 833 q 288 667 308 717 q 232 583 268 617 q 143 550 196 549 m 403 86 l 396 86 q 390 88 394 88 q 320 135 346 100 q 285 215 294 169 q 283 310 276 260 q 308 403 289 360 q 356 476 326 446 q 421 513 385 506 q 509 493 475 521 q 558 417 543 465 q 571 311 574 369 q 549 203 568 253 q 492 119 529 153 q 403 86 456 85 m 533 1013 q 431 769 485 896 q 322 515 376 643 q 213 261 267 388 q 111 18 158 135 q 96 2 107 7 q 74 1 85 -3 q 58 17 63 7 q 58 39 54 28 q 160 282 106 156 q 269 536 214 408 q 378 790 325 664 q 481 1033 432 917 q 495 1049 485 1044 q 517 1050 506 1054 q 533 1034 528 1044 q 533 1013 538 1024 m 404 142 q 461 165 438 139 q 498 229 485 190 q 514 313 511 268 q 508 392 517 357 q 477 447 499 428 q 422 456 456 467 q 383 423 400 447 q 353 366 365 399 q 338 297 342 333 q 340 228 335 260 q 360 172 344 196 q 404 142 376 149 m 144 606 q 201 628 178 603 q 238 693 225 654 q 253 776 251 732 q 247 855 256 819 q 216 910 238 890 q 161 918 194 929 q 122 887 139 911 q 93 830 104 863 q 78 760 82 797 q 80 691 75 724 q 101 635 85 658 q 144 606 117 611 z "},"/":{"ha":274,"x_min":-1,"x_max":221,"o":"m 219 1018 q 138 521 181 768 q 56 24 94 274 q 44 6 53 13 q 24 0 35 -1 q 6 12 13 3 q 0 32 -1 21 q 82 529 39 282 q 164 1026 125 776 q 175 1044 165 1038 q 196 1050 185 1051 q 214 1038 207 1047 q 219 1018 221 1029 z "},"|":{"ha":1157,"x_min":72,"x_max":131,"o":"m 128 1107 q 129 837 129 981 q 129 547 129 693 q 129 256 129 400 q 131 -12 129 113 q 122 -33 131 -25 q 103 -42 114 -42 q 83 -33 92 -42 q 75 -14 75 -25 q 74 256 74 113 q 74 546 74 399 q 74 836 74 693 q 72 1106 74 979 q 80 1125 72 1117 q 100 1133 88 1133 q 119 1126 111 1135 q 128 1107 128 1118 z "},"\\":{"ha":288,"x_min":-1,"x_max":239,"o":"m 236 1063 q 194 796 217 938 q 147 508 171 654 q 99 221 122 363 q 56 -44 75 79 q 44 -63 53 -56 q 24 -68 35 -71 q 6 -57 13 -67 q 0 -36 -1 -47 q 43 229 19 88 q 91 517 67 371 q 138 804 115 663 q 181 1071 161 946 q 192 1089 183 1082 q 213 1094 201 1096 q 231 1083 224 1092 q 236 1063 239 1074 z "},"#":{"ha":660,"x_min":0,"x_max":619,"o":"m 307 1018 q 283 867 296 942 q 258 717 271 792 l 413 715 q 439 871 426 794 q 463 1026 451 947 q 474 1044 465 1038 q 494 1050 483 1051 q 513 1038 506 1047 q 518 1018 521 1029 q 494 867 507 942 q 469 715 482 792 l 592 715 q 611 706 603 715 q 619 686 619 697 q 610 667 619 675 q 590 658 601 658 l 460 660 q 438 531 449 594 q 417 401 428 467 l 538 401 q 557 393 549 401 q 565 372 565 385 q 557 353 565 361 q 538 344 549 344 l 407 346 q 381 185 393 265 q 356 24 368 104 q 344 6 353 13 q 324 0 335 -1 q 305 12 313 3 q 300 32 297 21 q 324 189 311 111 q 350 346 338 267 l 196 347 q 169 185 182 265 q 143 24 156 106 q 131 6 140 13 q 111 0 122 -1 q 92 12 100 3 q 88 32 85 21 q 113 190 100 111 q 139 347 125 268 l 28 349 q 8 357 17 349 q 0 376 0 365 q 8 396 0 388 q 28 404 17 404 l 149 404 q 170 532 160 468 q 192 661 181 596 l 81 661 q 61 670 69 661 q 53 690 53 679 q 62 710 53 701 q 82 718 71 718 l 201 717 l 251 1026 q 263 1044 253 1038 q 283 1050 272 1051 q 301 1038 294 1047 q 307 1018 308 1029 m 249 661 l 204 403 l 360 403 l 404 660 l 249 661 z "},"!":{"ha":225,"x_min":43,"x_max":161,"o":"m 161 1044 q 156 927 160 997 q 149 772 153 857 q 140 590 144 686 q 131 395 135 493 q 126 201 128 297 q 124 21 124 106 q 117 1 125 10 q 97 -8 108 -8 q 76 0 85 -8 q 68 19 68 8 q 63 292 67 147 q 56 576 60 436 q 48 838 51 715 q 43 1044 44 961 q 62 1064 43 1057 q 102 1071 81 1071 q 142 1064 124 1071 q 161 1044 161 1057 m 128 -122 q 119 -142 128 -133 q 100 -150 111 -150 q 79 -142 88 -150 q 71 -122 71 -133 l 71 -64 q 79 -44 71 -53 q 100 -36 88 -36 q 119 -44 111 -36 q 128 -64 128 -53 l 128 -122 z "},"¥":{"ha":528,"x_min":-15,"x_max":508,"o":"m 424 1072 q 443 1063 435 1071 q 451 1043 451 1054 q 432 1018 449 1022 q 427 939 429 1008 q 422 767 425 869 q 418 545 419 665 q 415 314 417 425 q 413 115 414 203 q 411 -11 413 26 q 447 -12 436 -11 q 481 -14 457 -12 q 500 -23 492 -14 q 507 -43 508 -32 q 497 -62 506 -54 q 476 -69 489 -71 l 410 -67 q 401 -126 408 -94 q 435 -127 425 -126 q 468 -129 444 -128 q 488 -138 479 -129 q 494 -158 496 -147 q 485 -178 493 -169 q 464 -185 476 -186 l 386 -182 q 359 -231 375 -208 q 319 -267 343 -253 q 263 -285 296 -281 q 188 -279 231 -289 q 126 -246 151 -271 q 86 -187 101 -221 q 64 -118 71 -154 q 56 -53 57 -82 q 63 -33 54 -42 q 82 -25 71 -25 q 101 -33 93 -25 q 110 -51 110 -40 q 116 -94 111 -68 q 131 -147 121 -121 q 156 -194 142 -172 q 190 -224 171 -215 q 244 -224 221 -236 q 282 -182 267 -211 q 206 -182 243 -181 q 186 -174 194 -182 q 178 -154 178 -165 q 185 -133 178 -142 q 206 -125 193 -125 l 300 -125 q 304 -97 303 -111 q 307 -65 306 -82 l 218 -65 q 199 -58 207 -65 q 190 -37 190 -50 q 197 -18 189 -26 q 218 -10 206 -10 l 307 -10 q 307 40 307 10 q 308 107 307 69 q 266 42 292 71 q 200 4 240 14 q 84 11 125 -12 q 25 76 43 35 q 4 167 7 118 q 1 253 1 217 q 2 323 1 265 q 4 460 3 381 q 6 631 6 540 q 7 799 7 721 q 6 934 7 878 q 3 1000 6 990 q -15 1025 -15 1006 q -7 1044 -15 1036 q 13 1054 1 1053 q 78 1038 53 1060 q 111 982 104 1015 q 115 918 114 969 q 115 795 115 867 q 114 641 115 724 q 111 481 113 558 q 108 342 110 404 q 106 251 107 281 q 106 166 103 206 q 120 99 110 126 q 149 60 131 71 q 199 61 168 49 q 233 91 218 69 q 259 138 249 113 q 276 190 269 164 q 283 232 282 215 q 290 251 283 243 q 308 260 297 258 q 310 415 308 333 q 312 575 311 496 q 314 728 313 654 q 317 859 315 801 q 319 954 318 917 q 324 1000 321 992 q 358 1056 332 1033 q 424 1072 383 1078 z "},"€":{"ha":493,"x_min":-71,"x_max":453,"o":"m 453 351 q 442 242 450 301 q 415 130 435 182 q 358 42 394 78 q 261 0 321 6 q 156 32 200 -4 q 84 133 113 68 q 42 283 56 197 q 28 463 28 369 l -42 463 q -61 471 -53 463 q -69 490 -69 479 q -62 510 -71 501 q -42 518 -54 518 q -6 519 -24 518 q 29 518 11 519 q 31 556 31 538 q 35 593 32 574 l -26 593 q -46 601 -37 593 q -54 621 -54 610 q -46 640 -54 632 q -26 649 -37 649 l 42 649 q 83 829 56 744 q 149 972 110 914 q 238 1056 188 1031 q 349 1056 288 1081 q 408 1007 386 1040 q 439 934 431 974 q 444 853 447 894 q 430 783 442 813 q 399 739 418 753 q 358 739 381 725 q 340 760 346 747 q 331 789 333 774 q 328 820 328 804 q 329 850 328 836 q 338 869 331 861 q 357 875 346 876 q 374 864 368 874 q 379 843 381 854 q 378 819 378 833 q 381 794 378 806 q 392 837 389 807 q 392 900 396 867 q 374 963 388 933 q 332 1003 360 992 q 274 991 301 1015 q 222 917 246 967 q 181 797 199 867 q 150 649 163 728 l 264 646 q 283 635 275 644 q 290 615 292 626 q 281 597 290 604 q 261 589 272 589 q 202 591 232 590 q 143 592 172 592 l 135 518 l 249 515 q 268 506 260 514 q 275 485 276 497 q 246 458 272 458 q 189 460 218 460 q 132 461 160 461 q 133 305 128 379 q 154 173 139 231 q 196 82 169 115 q 261 50 222 49 q 331 85 304 51 q 374 167 358 119 q 395 265 389 214 q 403 351 401 315 q 410 371 403 363 q 428 379 417 379 q 446 371 439 379 q 453 351 453 363 z "},"?":{"ha":618,"x_min":19,"x_max":575,"o":"m 101 568 q 31 751 43 651 q 68 943 19 851 q 179 1051 108 1017 q 324 1083 250 1086 q 478 1043 422 1079 q 554 951 533 1007 q 567 826 575 896 q 530 685 558 756 q 458 548 501 614 q 365 433 414 482 q 332 399 349 417 q 299 361 315 382 q 268 314 283 340 q 236 250 253 288 q 199 136 213 194 q 182 17 185 78 q 174 -3 182 6 q 154 -12 165 -11 q 135 -4 143 -12 q 125 15 126 4 q 138 143 128 81 q 168 264 149 206 q 219 375 188 322 q 299 474 251 428 q 356 557 328 501 q 403 677 385 613 q 428 808 422 742 q 419 925 435 874 q 362 1003 403 976 q 246 1018 321 1031 q 145 956 183 1001 q 94 851 107 910 q 92 726 81 792 q 144 604 104 660 q 151 583 151 594 q 140 564 150 571 q 120 558 132 557 q 101 568 108 558 m 181 -124 q 172 -144 181 -136 q 153 -153 164 -153 q 133 -144 142 -153 q 125 -124 125 -136 l 125 -65 q 133 -46 125 -54 q 153 -37 142 -37 q 172 -46 164 -37 q 181 -65 181 -54 l 181 -124 z "},"ß":{"ha":489,"x_min":-1,"x_max":478,"o":"m 367 1122 q 454 1049 431 1100 q 475 938 478 999 q 449 815 472 876 q 397 708 426 753 q 324 619 364 657 q 238 553 285 581 q 342 505 297 542 q 410 393 388 468 q 417 272 426 336 q 378 157 408 208 q 299 77 349 106 q 186 63 250 49 q 131 90 153 69 q 97 137 108 110 q 83 196 85 164 q 90 258 82 228 q 106 273 96 269 q 128 271 117 276 q 142 255 139 265 q 140 233 146 244 q 138 197 136 217 q 146 159 139 176 q 166 130 153 142 q 199 118 179 118 q 261 147 236 117 q 299 223 286 178 q 310 320 311 268 q 292 415 308 372 q 245 484 276 458 q 165 503 214 510 q 140 498 154 501 q 111 494 125 494 q 86 497 97 493 q 71 511 75 500 q 67 402 71 465 q 63 274 64 339 q 63 149 61 208 q 74 54 65 90 q 92 28 92 47 q 83 8 92 17 q 64 0 75 0 q 22 47 36 -1 q 3 171 7 96 q 1 338 -1 246 q 11 515 4 429 q 26 667 18 600 q 40 764 35 735 q 63 859 49 810 q 97 953 76 908 q 142 1038 117 999 q 202 1101 168 1076 q 276 1132 236 1125 q 367 1122 317 1139 m 72 535 q 92 550 76 543 l 93 550 q 108 554 100 553 q 121 558 115 556 q 223 626 176 579 q 302 731 269 674 q 353 851 335 789 q 371 963 371 913 q 352 1046 371 1014 q 293 1076 333 1078 q 221 1044 253 1075 q 165 963 189 1013 q 123 853 140 914 q 94 733 106 793 q 78 621 83 674 q 72 535 72 568 z "},"$":{"ha":565,"x_min":-4,"x_max":536,"o":"m 328 1069 q 326 1049 328 1056 q 408 1026 369 1044 q 479 971 447 1007 q 513 912 499 947 q 532 839 528 876 q 526 769 536 801 q 488 721 517 736 q 456 714 469 711 q 431 727 442 717 q 415 753 421 738 q 407 785 408 768 l 407 828 q 417 847 408 839 q 438 851 426 854 q 461 822 464 849 q 460 797 461 813 q 465 771 460 782 q 474 791 472 776 q 476 822 476 806 q 474 855 476 839 q 469 878 471 871 q 409 964 450 939 q 324 983 368 989 q 318 769 319 878 q 317 553 317 661 q 381 506 349 529 q 439 453 413 482 q 503 325 488 396 q 501 188 518 254 q 438 72 485 122 q 314 4 390 21 l 314 -29 q 306 -49 314 -40 q 286 -58 297 -57 q 267 -50 275 -58 q 257 -31 258 -42 l 257 -3 q 128 21 181 -6 q 46 89 76 47 q 6 182 15 131 q 3 281 -4 233 q 35 367 11 329 q 94 419 58 404 q 148 426 128 432 q 180 403 168 421 q 196 359 192 385 q 201 307 200 333 q 192 288 200 296 q 172 282 183 281 q 153 292 161 283 q 147 313 146 301 q 144 343 146 326 q 135 372 143 360 q 88 345 107 371 q 60 283 68 319 q 57 204 51 246 q 85 128 63 163 q 150 71 108 93 q 257 51 192 49 q 258 131 258 92 q 258 211 258 171 q 260 346 260 278 q 260 485 260 414 q 195 530 228 508 q 134 578 163 551 q 85 642 106 606 q 54 731 64 678 q 53 826 44 779 q 85 913 63 874 q 143 984 108 953 q 218 1032 178 1015 q 271 1046 240 1042 q 271 1060 271 1053 q 272 1074 271 1067 q 281 1093 272 1085 q 301 1100 290 1101 q 321 1090 313 1099 q 328 1069 329 1081 m 260 596 q 263 781 261 689 q 267 965 264 874 q 195 894 225 942 q 165 778 165 847 q 192 672 164 714 q 260 596 219 629 m 315 439 l 315 210 q 314 138 314 174 q 314 65 314 101 q 380 125 357 83 q 405 217 403 167 q 390 321 407 268 q 336 417 372 374 l 315 439 z "},"&":{"ha":586,"x_min":7,"x_max":561,"o":"m 426 603 q 499 484 465 549 q 547 353 533 419 q 548 220 561 286 q 481 96 535 154 q 354 16 428 39 q 211 3 281 -7 q 88 60 142 14 q 20 188 33 106 q 45 388 7 269 q 199 664 83 507 l 210 678 q 122 856 140 779 q 119 985 104 933 q 174 1065 135 1038 q 258 1092 214 1092 q 357 1072 322 1093 q 404 1015 392 1050 q 410 934 417 979 q 384 842 403 889 q 338 752 365 796 q 279 675 310 708 q 317 629 296 651 q 323 608 324 619 q 313 589 322 596 q 292 583 304 582 q 274 592 281 583 q 244 629 257 610 q 199 545 222 599 q 157 428 175 492 q 131 297 139 364 q 131 177 122 231 q 172 89 140 124 q 264 54 203 54 q 339 69 300 54 q 414 111 378 83 q 488 214 472 157 q 494 331 504 271 q 453 451 483 392 q 389 558 424 510 q 336 492 364 526 q 285 419 308 457 q 247 341 263 382 q 233 258 232 300 q 229 238 236 247 q 211 226 222 229 q 190 231 200 224 q 178 250 181 239 l 176 293 q 190 351 179 321 q 217 409 201 381 q 249 464 232 438 q 283 513 267 490 q 308 544 289 521 q 350 597 326 567 q 399 660 374 626 q 444 724 425 694 q 475 776 464 754 q 479 807 486 799 q 471 827 471 815 q 479 847 471 839 q 499 856 488 856 q 519 847 511 856 q 535 793 539 824 q 515 729 532 763 q 474 663 499 696 q 426 603 449 629 m 247 722 q 273 769 260 738 q 295 837 286 800 q 308 912 304 874 q 306 979 313 950 q 283 1024 300 1008 q 236 1031 267 1039 q 190 1002 210 1024 q 168 942 171 981 q 183 848 165 903 q 247 722 200 793 z "},"Þ":{"ha":454,"x_min":-11,"x_max":446,"o":"m 24 394 l 43 392 q 44 764 43 578 q 56 1132 46 950 q 65 1142 56 1138 q 88 1151 75 1147 q 113 1156 100 1154 q 131 1157 125 1157 q 149 1148 142 1157 q 157 1128 157 1139 q 153 1034 154 1081 q 149 939 151 988 q 151 940 150 939 q 154 940 151 940 l 190 943 q 331 904 274 944 q 417 801 388 864 q 444 662 446 738 q 410 518 443 586 q 311 400 378 450 q 143 338 244 350 l 143 268 q 142 149 143 208 q 142 29 142 89 q 135 8 143 17 q 115 0 126 0 q 97 2 108 0 q 72 8 85 4 q 50 17 60 13 q 40 28 40 22 q 41 148 40 89 q 42 268 42 207 q 42 302 42 285 q 43 336 43 319 q 29 337 36 336 q 15 339 22 338 q -3 351 4 342 q -8 371 -11 360 q 3 389 -6 382 q 24 394 13 396 m 144 403 q 249 467 207 422 q 313 567 292 511 q 334 681 333 622 q 316 788 335 740 q 258 863 297 835 q 161 885 219 890 q 147 886 156 883 q 144 644 144 764 q 144 403 144 524 z "},"µ":{"ha":506,"x_min":0,"x_max":475,"o":"m 28 1069 q 97 1049 71 1072 q 129 990 122 1025 q 131 942 131 982 q 132 842 132 901 q 132 709 132 782 q 131 563 132 636 q 130 422 131 489 q 128 308 129 356 q 128 288 128 300 q 126 261 128 276 q 144 252 138 260 q 151 233 151 244 q 158 190 153 217 q 174 138 164 164 q 199 90 183 111 q 233 60 214 68 q 284 58 264 47 q 315 97 304 69 q 331 166 326 125 q 333 254 335 207 q 333 347 333 283 q 333 490 332 411 q 334 653 333 568 q 336 810 335 738 q 340 935 338 883 q 344 1000 342 988 q 379 1057 353 1035 q 447 1074 406 1079 q 467 1065 458 1074 q 475 1044 475 1056 q 456 1019 472 1024 q 451 976 453 1011 q 449 890 450 942 q 446 773 447 838 q 444 641 444 708 q 442 509 443 574 q 442 391 442 444 q 441 301 442 338 q 440 256 440 265 q 438 199 439 231 q 430 136 436 168 q 411 74 424 104 q 376 25 399 44 q 317 -2 353 6 q 231 1 282 -10 q 167 36 193 10 q 126 97 142 63 q 130 41 128 67 q 136 0 132 15 q 154 -26 154 -7 q 146 -47 154 -39 q 126 -54 138 -54 q 59 -33 85 -57 q 26 25 33 -10 q 19 88 21 51 q 17 164 17 125 q 17 240 17 203 q 18 308 18 278 q 20 428 19 358 q 22 574 21 497 q 22 727 22 651 q 22 865 22 803 q 21 967 22 926 q 18 1015 19 1008 q 6 1025 11 1018 q 0 1042 0 1032 q 8 1061 0 1053 q 28 1069 17 1069 z "},"¶":{"ha":781,"x_min":-4,"x_max":771,"o":"m 404 1119 q 393 690 393 908 q 390 260 393 471 q 390 140 390 199 q 390 19 389 81 q 382 0 390 8 q 363 -8 374 -8 q 342 -1 351 -8 q 333 19 333 7 q 334 139 333 79 q 335 260 335 199 q 336 692 336 472 q 347 1122 336 911 q 358 1142 349 1135 q 378 1149 367 1150 q 397 1139 389 1147 q 404 1119 406 1131 m 714 928 q 674 1058 707 1007 q 569 1147 642 1108 q 478 1180 529 1169 q 372 1188 426 1190 q 257 1156 304 1185 q 179 1081 210 1126 q 134 978 149 1035 q 118 862 119 921 q 128 746 117 803 q 161 644 140 689 q 211 572 182 600 q 275 542 240 543 q 294 535 286 543 q 304 515 303 526 q 298 495 306 504 q 279 485 290 486 l 246 485 q 138 524 185 490 q 60 610 92 558 q 12 727 28 663 q -4 858 -4 792 q 13 987 -4 924 q 65 1099 31 1050 q 198 1206 115 1169 q 371 1244 281 1242 q 547 1217 461 1247 q 689 1128 632 1188 q 726 1081 711 1103 q 749 1035 740 1058 q 763 985 758 1011 q 771 926 768 958 q 761 907 769 915 q 742 899 753 899 q 722 907 731 899 q 714 928 714 915 m 631 1000 q 622 510 622 754 q 621 21 622 267 q 613 1 621 10 q 593 -7 604 -7 q 575 -5 588 -7 q 550 1 563 -3 q 528 10 538 6 q 519 21 519 15 q 521 511 521 267 q 529 1001 521 756 q 538 1013 529 1007 q 560 1022 547 1018 q 585 1027 572 1025 q 603 1029 597 1029 q 622 1020 614 1029 q 631 1000 631 1011 z "},"(":{"ha":353,"x_min":15,"x_max":321,"o":"m 292 1060 q 233 1013 261 1057 q 183 899 206 969 q 145 740 161 829 q 122 556 129 650 q 119 372 115 463 q 138 206 122 281 q 181 82 153 132 q 254 21 210 32 q 267 17 261 18 q 279 15 272 15 q 308 -11 306 15 q 301 -31 310 -22 q 282 -42 293 -40 q 156 7 208 -46 q 70 149 103 60 q 26 352 38 239 q 25 582 15 465 q 60 778 35 683 q 122 947 85 874 q 202 1067 158 1021 q 293 1117 246 1114 q 313 1107 304 1115 q 321 1088 321 1099 q 292 1060 318 1060 z "},"[":{"ha":264,"x_min":35,"x_max":226,"o":"m 197 1047 q 175 1049 190 1049 q 146 1050 160 1050 q 131 606 135 832 q 128 163 128 381 q 127 128 128 149 q 126 85 126 108 q 127 40 126 63 q 129 1 128 18 q 140 1 136 1 q 148 1 143 1 q 160 2 153 1 q 183 3 168 3 q 214 -24 211 3 q 207 -44 215 -35 q 188 -54 199 -53 q 165 -54 178 -54 q 138 -55 151 -54 q 112 -56 124 -56 q 94 -56 100 -56 q 60 -51 71 -56 q 44 -35 49 -47 q 38 1 39 -22 q 38 63 38 24 q 40 510 35 283 q 53 958 46 738 q 53 1023 54 997 q 55 1065 53 1049 q 63 1091 57 1082 q 82 1103 68 1100 q 101 1105 88 1104 q 132 1106 115 1106 q 166 1105 149 1106 q 199 1104 183 1104 q 218 1094 210 1103 q 226 1075 226 1086 q 217 1056 225 1064 q 197 1047 208 1047 z "},"{":{"ha":276,"x_min":-3,"x_max":240,"o":"m 211 1047 q 189 1049 204 1049 q 160 1050 174 1050 q 163 959 157 1004 q 176 868 168 914 q 190 777 183 822 q 194 686 196 732 q 181 635 193 650 q 147 610 168 619 q 101 591 126 600 q 50 558 76 582 q 46 553 50 557 q 74 531 51 542 q 122 507 97 519 q 168 478 147 494 q 190 440 189 463 q 183 353 192 401 q 163 248 174 304 q 145 129 153 192 q 143 1 138 67 q 153 1 150 1 q 162 1 157 1 q 174 2 167 1 q 199 3 182 3 q 228 -24 225 3 q 222 -44 229 -35 q 201 -54 214 -53 l 157 -56 q 124 -55 136 -56 q 103 -50 111 -54 q 92 -36 96 -46 q 88 -7 89 -26 q 85 101 85 44 q 85 217 85 158 q 88 332 86 275 q 89 442 89 389 q 74 460 86 450 q 54 476 61 471 q 1 544 6 518 q 14 589 -3 571 q 56 621 31 607 q 92 653 81 635 q 97 812 94 732 q 101 971 99 892 q 103 1051 103 1022 q 111 1092 103 1079 q 142 1105 119 1104 q 213 1104 165 1106 q 232 1094 224 1103 q 240 1075 240 1086 q 231 1056 239 1064 q 211 1047 222 1047 z "},"@":{"ha":889,"x_min":-1,"x_max":867,"o":"m 468 511 q 458 577 465 543 q 437 641 451 611 q 401 692 422 671 q 350 718 379 713 q 283 691 311 725 q 238 603 254 657 q 217 484 221 549 q 223 365 213 419 q 259 277 233 311 q 328 250 285 243 q 387 281 364 256 q 424 341 410 307 q 447 413 439 375 q 461 479 456 450 q 472 496 463 489 q 468 511 468 501 m 636 335 q 668 431 657 378 q 684 536 679 483 q 688 636 689 589 q 682 717 688 683 q 648 845 671 786 q 586 944 625 904 q 491 998 547 983 q 358 994 435 1013 q 230 926 286 978 q 135 801 174 874 q 76 644 97 729 q 56 474 56 558 q 76 313 56 389 q 140 182 97 236 q 240 98 183 128 q 360 60 297 68 q 488 63 424 51 q 610 104 553 75 q 717 179 668 133 q 794 285 765 225 l 810 321 q 824 336 814 332 q 846 336 835 340 q 862 322 857 332 q 863 300 867 311 l 844 260 q 755 138 810 190 q 633 52 700 85 q 494 7 567 19 q 349 5 421 -6 q 213 50 278 15 q 97 146 147 85 q 25 287 49 206 q 0 458 1 368 q 18 640 -1 549 q 76 810 38 731 q 173 949 115 889 q 304 1038 231 1010 q 438 1061 375 1064 q 552 1031 500 1058 q 644 953 604 1004 q 710 833 685 903 q 735 723 726 788 q 744 588 744 658 q 730 448 743 518 q 690 319 717 378 q 651 249 674 282 q 605 201 629 215 q 554 199 581 186 q 501 264 528 211 q 488 296 493 279 q 481 329 483 313 q 424 239 460 278 q 328 193 389 200 q 222 208 267 185 q 149 272 178 231 q 108 369 121 314 q 97 484 94 425 q 116 599 99 543 q 165 696 133 654 q 242 760 197 738 q 347 775 288 783 q 426 742 393 768 q 479 676 458 717 q 480 743 481 714 q 476 785 479 772 q 457 811 457 792 q 465 831 457 822 q 485 839 474 839 q 553 818 526 842 q 586 760 579 794 q 590 681 592 732 q 584 569 588 629 q 578 446 581 508 q 583 336 576 383 q 592 279 589 296 q 601 265 596 263 q 614 285 606 267 q 636 335 622 304 z "},"*":{"ha":561,"x_min":28,"x_max":524,"o":"m 313 1022 l 307 807 q 395 863 351 835 q 483 919 439 890 q 503 920 493 925 q 518 906 513 915 q 524 888 524 897 q 514 872 524 878 q 331 756 422 811 q 422 698 376 726 q 514 642 468 669 q 524 624 524 635 q 518 605 524 614 q 503 592 513 596 q 485 593 493 588 l 303 706 l 299 494 q 290 477 299 482 q 270 472 281 472 q 251 478 260 472 q 243 494 243 483 l 247 703 q 156 647 201 675 q 64 589 110 618 q 49 590 57 585 q 36 606 42 596 q 30 625 31 615 q 36 639 29 635 l 224 756 l 33 875 q 29 889 28 879 q 36 907 31 899 q 50 920 42 915 q 67 921 58 925 l 250 806 l 257 1026 q 266 1037 257 1033 q 285 1040 275 1040 q 304 1035 296 1040 q 313 1022 313 1031 z "},"ˆ":{"ha":281,"x_min":-3,"x_max":276,"o":"m 3 800 q 35 858 17 826 q 77 910 53 889 q 130 935 101 932 q 193 910 158 939 q 237 856 219 886 q 271 796 254 826 q 273 774 276 785 q 258 758 269 764 q 236 756 247 753 q 219 771 225 760 q 172 849 192 822 q 135 878 153 876 q 99 853 118 879 q 53 776 81 828 q 38 761 49 765 q 17 763 28 757 q 1 778 6 768 q 3 800 -3 789 z "},"¸":{"ha":219,"x_min":4,"x_max":214,"o":"m 96 14 q 99 -26 90 -11 q 122 -53 107 -42 q 153 -72 136 -64 q 185 -92 171 -81 q 206 -119 199 -103 q 208 -162 214 -136 q 188 -193 204 -183 q 150 -206 171 -203 q 108 -207 129 -208 q 71 -206 86 -206 l 32 -206 q 13 -197 21 -206 q 4 -178 4 -189 q 13 -157 4 -165 q 32 -149 21 -149 q 55 -149 38 -149 q 92 -150 72 -150 q 129 -149 111 -150 q 154 -147 147 -149 q 152 -137 156 -140 q 143 -129 149 -133 q 96 -100 118 -112 q 59 -72 74 -87 q 40 -33 44 -56 q 43 29 35 -10 q 56 46 46 40 q 78 49 67 51 q 94 35 89 46 q 96 14 100 25 z "},"«":{"ha":422,"x_min":-7,"x_max":396,"o":"m 58 444 l 253 257 q 263 235 261 249 q 258 211 264 222 q 245 197 254 199 q 228 203 236 194 l 53 372 q 34 388 46 379 q 13 408 22 397 q -1 431 4 418 q -1 460 -7 444 q 16 481 0 464 q 55 523 32 499 q 105 575 78 547 q 157 628 132 603 q 201 674 182 654 q 226 700 221 693 q 257 690 246 717 q 260 665 263 679 q 251 644 258 651 l 58 444 m 378 644 q 281 544 329 594 q 185 444 233 493 q 283 350 233 396 q 381 257 332 304 q 386 211 396 238 q 372 197 382 199 q 356 203 363 194 l 179 372 q 161 388 172 379 q 140 408 150 397 q 126 431 131 418 q 126 460 121 444 q 143 481 128 464 q 182 523 158 499 q 233 575 206 547 q 285 628 260 603 q 328 674 310 654 q 354 700 347 693 q 369 705 361 707 q 383 690 378 703 q 387 665 389 679 q 378 644 385 651 z "},"~":{"ha":1157,"x_min":0,"x_max":621,"o":"m 8 338 q 57 375 35 360 q 103 398 79 390 q 153 405 126 406 q 215 396 181 404 q 297 365 254 386 q 382 327 339 344 q 466 305 425 310 q 544 324 507 300 l 574 347 q 592 354 581 354 q 613 347 604 354 q 621 327 621 339 q 613 307 621 315 l 574 275 q 496 248 535 250 q 418 256 457 246 q 342 285 379 267 q 268 318 304 303 q 205 342 232 333 q 153 349 178 350 q 103 335 128 347 q 49 299 79 324 q 28 290 40 290 q 8 299 17 290 q 0 319 0 307 q 8 338 0 331 z "},"=":{"ha":411,"x_min":28,"x_max":382,"o":"m 354 569 q 374 561 365 569 q 382 540 382 553 q 374 521 382 529 q 354 513 365 513 l 57 515 q 36 524 44 515 q 29 543 28 532 q 38 563 29 554 q 57 571 46 571 l 354 569 m 354 432 q 374 424 365 432 q 382 404 382 415 q 374 385 382 393 q 354 376 365 376 l 57 379 q 36 388 44 379 q 29 407 28 396 q 38 426 29 418 q 57 435 46 435 l 354 432 z "},"<":{"ha":556,"x_min":29,"x_max":503,"o":"m 481 713 q 300 599 390 653 q 118 489 210 544 q 301 401 210 443 q 485 314 393 358 q 499 298 496 308 q 497 276 503 288 q 481 262 492 265 q 460 264 471 258 q 273 351 367 308 q 88 440 179 394 q 44 466 58 456 q 30 487 29 476 q 45 508 31 497 q 88 536 60 519 q 269 646 179 592 q 449 760 360 700 q 469 765 458 767 q 488 751 481 763 q 492 731 494 742 q 481 713 490 719 z "},"+":{"ha":538,"x_min":36,"x_max":475,"o":"m 64 517 l 219 515 l 221 678 q 229 699 221 690 q 249 706 238 707 q 268 697 260 706 q 276 678 276 689 l 276 515 l 446 514 q 467 506 458 514 q 474 486 475 497 q 465 467 474 475 q 446 458 457 458 l 275 460 l 275 296 q 267 276 275 285 q 247 268 258 268 q 226 276 235 268 q 219 296 218 285 l 219 460 l 64 460 q 44 469 53 460 q 36 489 36 478 q 44 508 36 500 q 64 517 53 517 z "},"-":{"ha":431,"x_min":32,"x_max":386,"o":"m 61 508 l 358 507 q 378 498 369 507 q 386 478 386 489 q 378 458 386 467 q 358 450 369 450 l 61 453 q 40 461 49 453 q 33 481 32 469 q 42 500 33 492 q 61 508 50 508 z "},",":{"ha":151,"x_min":26,"x_max":122,"o":"m 61 -82 q 40 -78 50 -85 q 28 -60 29 -71 q 31 -46 26 -50 q 42 -37 35 -42 q 56 -25 49 -33 q 65 3 63 -17 q 40 19 46 6 q 38 50 33 33 q 54 82 42 67 q 86 101 67 97 q 115 82 108 107 q 118 24 122 57 q 99 -42 114 -10 q 61 -82 83 -74 z "},".":{"ha":164,"x_min":49,"x_max":114,"o":"m 113 82 q 113 62 113 67 q 114 53 114 57 q 113 44 114 50 q 113 25 113 39 q 101 5 111 13 q 79 -1 90 -3 q 58 9 68 0 q 50 29 49 18 q 51 47 50 42 q 51 54 51 51 q 51 63 51 57 q 51 82 51 68 q 61 101 51 93 q 82 110 71 110 q 103 101 93 110 q 113 82 113 93 z "},")":{"ha":336,"x_min":11,"x_max":317,"o":"m 40 17 q 99 63 71 19 q 149 177 126 107 q 187 336 171 247 q 210 519 203 425 q 213 704 217 613 q 194 870 210 796 q 151 994 179 944 q 78 1056 122 1044 q 65 1060 71 1058 q 53 1061 60 1061 q 24 1088 26 1061 q 31 1108 22 1099 q 50 1118 39 1117 q 176 1069 124 1122 q 262 927 229 1017 q 306 724 294 838 q 307 494 317 611 q 272 298 297 393 q 210 129 247 203 q 130 9 174 56 q 39 -40 86 -37 q 19 -31 28 -39 q 11 -11 11 -22 q 40 17 14 17 z "},"]":{"ha":260,"x_min":19,"x_max":211,"o":"m 49 1047 q 29 1056 38 1047 q 19 1075 21 1064 q 28 1094 19 1086 q 47 1104 36 1103 q 80 1105 63 1104 q 114 1106 97 1106 q 144 1105 131 1106 q 164 1103 157 1104 q 183 1091 178 1100 q 191 1065 189 1082 q 192 1023 193 1049 q 193 958 192 997 q 206 510 200 738 q 208 63 211 283 q 208 1 208 24 q 202 -35 207 -22 q 185 -51 197 -47 q 151 -56 174 -56 q 134 -56 146 -56 q 108 -55 122 -56 q 81 -54 94 -54 q 58 -54 68 -54 q 39 -44 47 -53 q 32 -24 31 -35 q 63 3 35 3 q 85 2 78 3 q 98 1 93 1 q 106 1 103 1 q 117 1 110 1 q 119 40 118 18 q 119 85 119 63 q 119 128 119 108 q 118 163 118 149 q 115 606 118 381 q 100 1050 111 832 q 71 1049 86 1050 q 49 1047 56 1049 z "},"}":{"ha":276,"x_min":8,"x_max":251,"o":"m 38 1047 q 18 1056 26 1047 q 8 1075 10 1064 q 17 1094 8 1086 q 36 1104 25 1103 q 106 1105 83 1106 q 138 1092 129 1104 q 146 1051 146 1079 q 147 971 146 1022 q 152 812 150 892 q 157 653 154 732 q 193 621 168 635 q 235 589 218 607 q 247 544 251 571 q 194 476 243 518 q 175 460 188 471 q 160 442 163 450 q 161 332 160 389 q 163 217 163 275 q 164 101 164 158 q 161 -7 164 44 q 156 -36 160 -26 q 145 -50 153 -46 q 125 -55 138 -54 q 92 -56 113 -56 l 47 -54 q 27 -44 35 -53 q 21 -24 19 -35 q 50 3 24 3 q 74 2 67 3 q 87 1 82 1 q 95 1 92 1 q 106 1 99 1 q 103 129 111 67 q 85 248 96 192 q 65 353 75 304 q 58 440 56 401 q 81 478 60 463 q 126 507 101 494 q 174 531 151 519 q 203 553 197 542 q 199 558 199 557 q 147 591 172 582 q 101 610 122 600 q 68 635 81 619 q 54 686 56 650 q 59 777 53 732 q 72 868 65 822 q 85 959 79 914 q 89 1050 90 1004 q 60 1049 75 1050 q 38 1047 44 1049 z "},">":{"ha":549,"x_min":32,"x_max":506,"o":"m 54 719 q 42 738 44 726 q 47 758 40 749 q 65 772 54 769 q 86 767 76 774 q 265 653 175 707 q 447 543 356 599 q 490 515 475 526 q 505 494 504 504 q 491 473 506 483 q 447 447 476 463 q 262 358 356 401 q 75 271 168 315 q 53 269 64 265 q 38 283 43 272 q 35 305 32 294 q 50 321 39 315 q 233 408 142 365 q 417 496 325 450 q 235 606 325 551 q 54 719 144 660 z "},"O":{"ha":488,"x_min":-1,"x_max":413,"o":"m 397 758 q 410 638 407 704 q 408 500 413 571 q 391 358 403 429 q 360 224 379 288 q 316 111 342 161 q 260 32 290 61 q 224 7 240 14 q 190 -1 207 0 q 131 13 157 -1 q 85 48 104 26 q 54 96 67 69 q 35 147 42 122 q 12 272 21 194 q 1 440 3 350 q 5 626 -1 531 q 28 807 11 722 q 74 958 44 892 q 146 1056 103 1024 q 199 1075 168 1072 q 260 1071 229 1078 q 317 1046 290 1064 q 358 1003 343 1028 q 378 955 369 983 q 392 894 388 926 q 399 826 397 861 q 397 758 400 792 m 201 928 q 274 932 238 939 q 335 900 311 925 q 322 949 331 931 q 310 978 317 963 q 293 1005 303 994 q 270 1019 283 1015 q 239 1013 257 1022 q 188 953 210 997 q 152 851 167 910 q 129 726 138 793 q 117 595 121 658 q 112 478 113 532 q 113 396 111 425 q 114 350 113 386 q 119 267 115 314 q 131 174 124 221 q 153 95 139 126 q 187 58 167 64 q 235 88 207 51 q 289 191 265 126 q 328 331 313 256 q 350 485 343 406 q 354 636 357 565 q 351 634 353 635 q 349 631 350 633 q 314 617 331 614 q 285 633 297 619 q 267 667 274 646 q 260 713 260 689 l 263 736 q 273 755 264 747 q 293 760 282 763 q 312 749 304 758 q 318 729 319 740 q 317 706 317 719 q 319 682 317 693 q 340 758 336 707 l 333 783 q 315 833 324 814 q 295 861 307 851 q 266 874 283 871 q 222 876 249 876 q 201 876 211 872 q 186 892 190 881 q 186 913 182 903 q 201 928 190 924 z "},";":{"ha":171,"x_min":39,"x_max":138,"o":"m 76 238 q 55 242 65 235 q 43 260 44 249 q 46 274 42 269 q 57 282 50 278 q 71 294 64 286 q 81 322 78 303 q 55 339 61 325 q 53 369 49 353 q 69 401 57 386 q 101 421 82 417 q 131 401 124 426 q 133 343 138 376 q 114 278 129 310 q 76 238 99 246 m 103 651 q 103 631 103 636 q 104 623 104 626 q 103 614 104 619 q 103 594 103 608 q 91 574 101 582 q 69 568 81 567 q 49 578 58 569 q 40 599 39 588 q 41 616 40 611 q 42 624 42 621 q 42 632 42 626 q 42 651 42 638 q 51 671 42 663 q 72 679 61 679 q 93 671 83 679 q 103 651 103 663 z "},":":{"ha":153,"x_min":39,"x_max":104,"o":"m 103 386 q 103 366 103 371 q 104 358 104 361 q 103 349 104 354 q 103 329 103 343 q 91 309 101 317 q 69 303 81 301 q 49 313 58 304 q 40 333 39 322 q 41 351 40 346 q 42 358 42 356 q 42 367 42 361 q 42 386 42 372 q 51 406 42 397 q 72 414 61 414 q 93 406 83 414 q 103 386 103 397 m 103 650 q 103 630 103 635 q 104 622 104 625 q 103 613 104 618 q 103 593 103 607 q 91 573 101 581 q 69 567 81 565 q 49 577 58 568 q 40 597 39 586 q 41 615 40 610 q 42 622 42 619 q 42 631 42 625 q 42 650 42 636 q 51 669 42 661 q 72 678 61 678 q 93 669 83 678 q 103 650 103 661 z "},"'":{"ha":139,"x_min":28,"x_max":92,"o":"m 33 669 l 31 821 q 37 840 28 832 q 57 849 46 847 q 77 842 68 850 q 88 822 86 833 l 89 671 q 83 651 92 658 q 64 643 75 643 q 44 650 53 642 q 33 669 35 658 z "},"\"":{"ha":281,"x_min":43,"x_max":218,"o":"m 46 821 q 52 840 43 832 q 72 849 61 847 q 92 842 83 850 q 103 822 101 833 l 104 671 q 99 651 107 658 q 79 643 90 643 q 59 650 68 642 q 49 669 50 658 l 46 821 m 157 821 q 163 840 154 832 q 183 849 172 847 q 203 842 194 850 q 214 822 213 833 l 215 671 q 210 651 218 658 q 190 643 201 643 q 170 650 179 642 q 160 669 161 658 l 157 821 z "},"ˇ":{"ha":1157,"x_min":-3,"x_max":276,"o":"m 271 717 q 239 659 257 690 q 197 606 221 628 q 144 581 172 585 q 81 607 115 578 q 37 660 54 631 q 3 721 19 690 q 1 742 -3 732 q 15 758 4 753 q 38 760 26 764 q 54 746 49 757 q 101 667 82 693 q 138 639 121 640 q 174 663 156 638 q 221 740 193 688 q 235 756 225 751 q 257 754 246 760 q 272 738 268 749 q 271 717 276 728 z "},"X":{"ha":672,"x_min":-36,"x_max":646,"o":"m 126 1161 q 149 1155 138 1163 q 165 1136 160 1147 q 158 1108 174 1117 q 176 1062 160 1101 q 217 962 192 1022 q 275 827 243 901 q 340 678 307 753 q 386 799 363 739 q 434 911 410 858 q 483 1006 458 964 q 531 1075 507 1049 q 549 1094 540 1086 q 565 1107 557 1101 q 581 1117 572 1113 q 603 1128 590 1121 q 639 1110 629 1135 q 621 1074 646 1083 q 562 1026 585 1057 q 519 960 539 994 q 442 789 476 881 q 374 600 407 697 l 471 379 q 501 310 483 350 q 538 228 519 269 q 570 149 556 188 q 590 85 585 111 q 582 26 597 50 q 524 1 567 1 q 501 8 513 0 q 483 26 489 15 q 490 54 475 46 q 470 120 486 76 q 433 212 454 164 q 392 304 413 260 q 363 372 372 349 q 344 413 354 392 q 324 458 335 435 q 256 290 292 371 q 175 142 219 208 q 138 92 157 114 q 98 56 119 71 q 50 34 76 42 q -10 29 24 26 q -28 41 -21 32 q -33 61 -36 50 q -21 80 -31 72 q 0 85 -11 88 q 71 107 39 82 q 128 168 103 132 q 172 245 153 204 q 204 315 192 286 q 244 414 224 357 q 289 538 265 471 q 213 710 253 619 q 140 880 174 801 q 83 1013 106 958 q 58 1078 60 1068 q 67 1136 51 1111 q 126 1161 82 1161 z "},"^":{"ha":578,"x_min":26,"x_max":535,"o":"m 81 285 q 63 273 74 275 q 42 278 51 271 q 28 294 31 283 q 33 317 26 306 q 145 497 92 406 q 251 681 199 589 q 279 723 268 708 q 301 738 290 738 q 322 725 311 739 q 347 682 332 711 q 440 497 396 590 q 529 313 483 404 q 531 291 535 301 q 517 274 528 281 q 495 272 506 268 q 479 286 485 275 q 390 469 433 378 q 300 650 347 560 q 192 467 246 557 q 81 285 139 376 z "},"_":{"ha":699,"x_min":56,"x_max":615,"o":"m 56 -100 q 335 -97 196 -99 q 614 -97 474 -96 q 613 -133 611 -121 q 614 -154 615 -146 q 335 -153 474 -153 q 56 -156 196 -154 l 56 -100 z "},"˝":{"ha":272,"x_min":29,"x_max":233,"o":"m 68 840 q 80 857 69 851 q 101 860 90 863 q 119 848 113 858 q 124 826 126 838 l 85 681 q 74 663 83 668 q 54 660 65 657 q 36 672 43 663 q 32 693 29 682 l 68 840 m 176 839 q 188 856 178 850 q 208 858 197 861 q 226 847 219 857 q 231 825 233 836 l 193 679 q 181 661 190 667 q 161 658 172 656 q 143 671 150 661 q 139 692 136 681 l 176 839 z "},"`":{"ha":106,"x_min":-7,"x_max":157,"o":"m 107 726 l 3 838 q -5 858 -7 847 q 5 876 -3 868 q 24 885 13 883 q 44 876 35 886 l 147 765 q 156 745 157 756 q 147 728 154 735 q 128 719 139 721 q 107 726 117 718 z "},"´":{"ha":164,"x_min":-7,"x_max":157,"o":"m 107 964 q 128 971 117 972 q 147 963 139 969 q 156 945 154 956 q 147 925 157 935 l 44 814 q 24 806 35 804 q 5 815 13 807 q -5 833 -3 822 q 3 853 -7 843 l 107 964 z "},"˙":{"ha":181,"x_min":54,"x_max":119,"o":"m 118 671 q 119 651 118 656 q 119 642 119 646 q 119 633 119 639 q 118 614 118 628 q 106 594 117 601 q 85 588 96 586 q 64 598 74 589 q 56 618 54 607 q 56 635 56 631 q 57 643 57 640 q 57 651 57 646 q 57 671 57 657 q 67 690 57 682 q 88 699 76 699 q 108 690 99 699 q 118 671 118 682 z "},"˛":{"ha":304,"x_min":44,"x_max":254,"o":"m 163 14 q 164 35 158 25 q 181 49 169 46 q 202 46 192 51 q 215 29 213 40 q 219 -33 224 -10 q 199 -72 214 -56 q 163 -100 185 -87 q 115 -129 140 -112 q 106 -137 110 -133 q 104 -147 103 -140 q 128 -149 111 -149 q 166 -150 146 -150 q 203 -149 186 -150 q 226 -149 221 -149 q 246 -157 238 -149 q 254 -178 254 -165 q 246 -197 254 -189 q 226 -206 238 -206 l 188 -206 q 151 -207 172 -206 q 108 -206 129 -208 q 71 -193 88 -203 q 50 -162 54 -183 q 52 -119 44 -136 q 74 -92 60 -103 q 105 -72 88 -81 q 137 -53 122 -64 q 160 -26 151 -42 q 163 14 168 -11 z "},"˚":{"ha":168,"x_min":15,"x_max":150,"o":"m 72 515 l 69 515 q 67 517 69 517 q 26 544 38 522 q 19 592 15 567 q 40 638 24 617 q 82 661 57 658 q 134 643 118 665 q 148 592 150 621 q 126 540 146 564 q 72 515 107 515 m 74 535 q 108 552 96 533 q 122 593 121 571 q 114 631 124 615 q 82 642 104 647 q 57 622 67 638 q 44 588 47 606 q 49 553 42 569 q 74 535 56 538 z "},"˘":{"ha":344,"x_min":19,"x_max":317,"o":"m 288 696 q 293 706 289 704 q 303 707 297 708 q 313 703 308 706 q 317 696 317 700 q 287 637 310 661 q 231 600 264 613 q 163 588 199 588 q 97 599 128 588 q 44 634 65 610 q 19 696 22 658 q 35 704 22 704 q 49 697 49 704 q 84 640 50 660 q 160 620 118 621 q 239 638 201 619 q 288 696 276 656 z "},"‚":{"ha":172,"x_min":42,"x_max":138,"o":"m 76 -82 q 55 -78 65 -85 q 43 -60 44 -71 q 46 -46 42 -50 q 57 -37 50 -42 q 71 -25 64 -33 q 81 3 78 -17 q 55 19 61 6 q 53 50 49 33 q 69 82 57 67 q 101 101 82 97 q 131 82 124 107 q 133 24 138 57 q 114 -42 129 -10 q 76 -82 99 -74 z "},"ƒ":{"ha":333,"x_min":-78,"x_max":303,"o":"m -12 -506 q -32 -497 -24 -506 q -40 -478 -40 -489 q -21 -451 -37 -458 q -17 -403 -18 -443 q -13 -300 -15 -362 q -10 -158 -11 -237 q -9 5 -10 -79 q -8 172 -8 89 q -7 328 -7 256 l -50 328 q -69 336 -61 328 q -78 356 -78 344 q -69 375 -78 367 q -50 383 -61 383 l -7 383 q -6 443 -7 413 q -6 499 -6 474 q -6 543 -6 525 q -6 565 -6 561 q -3 648 -6 600 q 17 739 0 696 q 69 810 33 782 q 169 836 104 839 q 245 813 219 833 q 283 760 271 793 q 297 688 294 728 q 303 610 300 649 q 294 590 303 599 q 275 581 286 582 q 256 587 264 579 q 246 606 247 594 q 244 657 244 626 q 238 715 244 688 q 217 761 232 742 q 171 779 201 781 q 134 762 149 779 q 111 717 119 744 q 100 652 103 689 q 97 574 97 615 q 98 544 97 565 q 99 497 99 524 q 99 440 99 469 q 99 383 99 410 l 186 383 q 207 375 199 383 q 215 356 215 367 q 207 336 215 344 q 186 328 199 328 l 99 328 q 99 175 99 256 q 98 14 99 94 q 97 -142 97 -67 q 94 -276 96 -217 q 92 -376 93 -336 q 88 -426 90 -417 q 55 -484 81 -460 q -12 -506 29 -508 z "},"„":{"ha":275,"x_min":26,"x_max":233,"o":"m 61 -82 q 40 -78 50 -85 q 28 -60 29 -71 q 31 -46 26 -50 q 42 -37 35 -42 q 56 -25 49 -33 q 65 3 63 -17 q 40 19 46 6 q 38 50 33 33 q 54 82 42 67 q 86 101 67 97 q 115 82 108 107 q 118 24 122 57 q 99 -42 114 -10 q 61 -82 83 -74 m 172 -82 q 151 -78 161 -85 q 139 -60 140 -71 q 142 -46 138 -50 q 153 -37 146 -42 q 167 -25 160 -33 q 176 3 174 -17 q 151 19 157 6 q 149 50 144 33 q 165 82 153 67 q 197 101 178 97 q 226 82 219 107 q 229 24 233 57 q 210 -42 225 -10 q 172 -82 194 -74 z "},"…":{"ha":492,"x_min":49,"x_max":442,"o":"m 113 82 q 113 62 113 67 q 114 53 114 57 q 113 44 114 50 q 113 25 113 39 q 101 5 111 13 q 79 -1 90 -3 q 58 9 68 0 q 50 29 49 18 q 51 47 50 42 q 51 54 51 51 q 51 63 51 57 q 51 82 51 68 q 61 101 51 93 q 82 110 71 110 q 103 101 93 110 q 113 82 113 93 m 276 82 q 277 62 276 67 q 278 53 278 57 q 277 44 278 50 q 276 25 276 39 q 265 5 275 13 q 243 -1 254 -3 q 222 9 232 0 q 214 29 213 18 q 215 47 214 42 q 215 54 215 51 q 215 63 215 57 q 215 82 215 68 q 225 101 215 93 q 246 110 235 110 q 267 101 257 110 q 276 82 276 93 m 440 82 q 441 62 440 67 q 442 53 442 57 q 441 44 442 50 q 440 25 440 39 q 428 5 439 13 q 407 -1 418 -3 q 386 9 396 0 q 378 29 376 18 q 378 47 378 42 q 379 54 379 51 q 379 63 379 57 q 379 82 379 68 q 389 101 379 93 q 410 110 399 110 q 431 101 421 110 q 440 82 440 93 z "},"†":{"ha":417,"x_min":32,"x_max":386,"o":"m 358 560 q 378 551 369 560 q 386 531 386 542 q 378 511 386 519 q 358 503 369 503 l 236 503 q 235 128 236 315 q 238 -221 235 -58 q 229 -242 238 -233 q 210 -250 221 -250 q 190 -242 199 -250 q 182 -222 182 -233 q 180 128 179 -58 q 181 504 181 315 l 61 506 q 40 514 49 506 q 33 533 32 522 q 42 553 33 544 q 61 561 50 561 l 181 560 q 181 733 181 647 q 179 897 181 819 q 187 917 179 908 q 207 925 194 925 q 226 918 218 926 q 235 899 235 910 q 236 735 236 821 q 236 560 236 649 l 358 560 z "},"‡":{"ha":417,"x_min":31,"x_max":385,"o":"m 357 569 q 376 561 368 569 q 385 540 385 553 q 376 521 385 529 q 357 513 368 513 l 236 513 l 236 57 l 357 57 q 376 49 368 57 q 385 29 385 40 q 376 10 385 18 q 357 1 368 1 l 236 1 q 236 -103 236 -51 q 238 -207 236 -156 q 229 -228 238 -219 q 210 -236 221 -236 q 190 -228 199 -236 q 182 -208 182 -219 q 181 -103 181 -156 q 181 3 181 -50 l 60 4 q 39 13 47 4 q 32 32 31 21 q 40 51 32 43 q 60 60 49 60 l 181 58 l 181 514 l 60 515 q 39 524 47 515 q 32 543 31 532 q 40 563 32 554 q 60 571 49 571 l 181 569 q 181 701 181 636 q 179 832 181 767 q 187 851 179 843 q 207 860 194 860 q 226 853 218 861 q 235 833 235 844 q 236 702 236 768 q 236 569 236 636 l 357 569 z "},"‰":{"ha":828,"x_min":6,"x_max":803,"o":"m 625 3 q 619 4 624 4 q 565 33 588 13 q 531 82 543 54 q 476 24 508 46 q 403 3 444 1 l 396 3 q 390 4 394 4 q 320 51 346 17 q 285 131 294 86 q 283 226 276 176 q 308 319 289 276 q 356 392 326 363 q 421 429 385 422 q 502 414 469 438 q 551 350 535 390 q 595 403 571 382 q 650 429 619 424 q 738 410 704 438 q 788 334 772 382 q 800 228 803 286 q 778 119 797 169 q 722 35 758 69 q 632 3 685 1 l 625 3 m 136 467 q 133 467 133 467 q 131 468 132 468 q 60 515 85 481 q 26 594 35 549 q 23 689 17 639 q 47 782 29 739 q 94 856 65 825 q 161 893 124 886 q 248 874 214 901 q 298 798 282 846 q 311 692 314 750 q 288 583 308 633 q 232 499 268 533 q 143 467 196 465 l 136 467 m 54 194 q 33 187 44 186 q 13 197 21 188 q 7 219 6 207 q 17 238 8 231 q 194 388 113 318 q 355 524 276 457 q 515 659 433 590 q 692 810 596 728 q 713 817 701 818 q 732 808 725 817 q 729 767 750 786 l 54 194 m 404 58 q 444 68 426 57 q 474 99 461 79 q 497 146 488 119 q 510 200 506 172 q 511 217 511 208 q 514 235 511 226 q 510 294 515 265 q 494 342 506 322 q 465 372 482 363 q 422 372 447 381 q 383 340 400 364 q 353 283 365 315 q 338 213 342 250 q 340 144 335 176 q 360 89 344 113 q 404 58 376 65 m 633 58 q 690 81 667 56 q 727 146 714 107 q 743 229 740 185 q 737 309 746 274 q 706 364 728 344 q 651 372 685 383 q 601 324 622 361 q 571 242 581 288 q 569 212 571 226 q 565 182 568 197 q 582 102 567 138 q 633 58 597 67 m 144 522 q 201 545 178 519 q 238 610 225 571 q 253 692 251 649 q 247 772 256 736 q 216 827 238 808 q 161 835 194 846 q 122 803 139 828 q 93 747 104 779 q 78 677 82 714 q 80 608 75 640 q 101 551 85 575 q 144 522 117 528 z "},"Š":{"ha":624,"x_min":-4,"x_max":549,"o":"m 446 1244 q 414 1187 432 1218 q 372 1134 396 1156 q 319 1109 347 1113 q 256 1135 290 1106 q 212 1188 229 1158 q 178 1249 194 1218 q 176 1270 172 1260 q 190 1286 179 1281 q 213 1288 201 1292 q 229 1274 224 1285 q 276 1194 257 1221 q 313 1167 296 1168 q 349 1190 331 1165 q 396 1268 368 1215 q 410 1283 400 1279 q 432 1282 421 1288 q 447 1266 443 1276 q 446 1244 451 1256 m 150 324 q 149 356 150 339 q 138 385 147 372 q 88 357 108 383 q 60 293 68 331 q 58 213 53 256 q 88 133 64 169 q 155 75 111 97 q 265 57 199 53 q 366 100 329 60 q 412 197 403 140 q 404 317 421 254 q 344 431 388 381 q 263 503 308 474 q 176 564 218 532 q 101 638 135 596 q 56 751 68 681 q 56 850 46 801 q 89 940 65 899 q 147 1013 113 981 q 224 1061 182 1044 q 293 1078 257 1075 q 365 1074 329 1082 q 433 1047 400 1065 q 492 997 465 1028 q 527 938 513 974 q 545 863 542 901 q 539 792 549 825 q 500 743 529 758 q 467 735 482 733 q 442 748 453 738 q 425 775 432 758 q 417 808 418 792 l 417 851 q 428 870 419 863 q 449 876 438 878 q 467 866 460 875 q 474 846 475 857 q 472 821 472 836 q 476 794 471 806 q 486 815 483 800 q 489 847 489 829 q 486 880 489 864 q 482 903 483 896 q 438 978 467 951 q 374 1010 408 1004 q 303 1006 339 1017 q 237 967 267 994 q 188 897 207 939 q 169 800 169 854 q 199 688 169 733 q 273 608 229 643 q 365 541 317 574 q 450 467 414 508 q 504 374 486 424 q 524 273 522 324 q 508 174 525 222 q 460 89 492 126 q 379 27 428 51 q 267 0 331 3 q 133 22 188 -4 q 48 92 79 49 q 6 188 17 135 q 3 291 -4 242 q 35 379 11 340 q 97 433 60 418 q 151 441 131 447 q 184 417 172 435 q 201 372 196 399 q 207 318 206 344 q 197 299 206 307 q 176 293 188 292 q 158 303 165 294 q 150 324 150 313 z "},"‹":{"ha":372,"x_min":24,"x_max":299,"o":"m 281 450 q 184 349 232 400 q 88 250 136 299 q 185 156 136 201 q 283 63 235 110 q 289 17 299 43 q 275 2 285 4 q 258 8 265 0 l 82 178 q 64 194 75 185 q 43 213 53 203 q 28 237 33 224 q 29 265 24 250 q 46 287 31 269 q 85 328 61 304 q 135 381 108 353 q 188 434 163 408 q 231 479 213 460 q 257 506 250 499 q 272 510 264 513 q 286 496 281 508 q 290 471 292 485 q 281 450 288 457 z "},"Œ":{"ha":963,"x_min":47,"x_max":908,"o":"m 407 1086 q 474 1066 449 1089 q 507 1011 499 1043 l 881 1011 q 900 1003 892 1011 q 908 983 908 994 q 900 964 908 972 q 881 956 892 956 q 695 956 788 956 q 510 954 603 956 q 510 874 510 922 q 509 769 510 826 q 508 651 508 713 q 506 529 507 589 l 701 529 q 721 521 713 529 q 729 501 729 513 q 721 481 729 489 q 701 472 713 472 l 504 472 l 500 292 q 499 248 500 275 q 498 188 499 221 q 497 122 497 156 q 497 57 497 88 l 881 57 q 900 49 892 57 q 908 29 908 40 q 900 8 908 17 q 881 0 892 0 l 501 0 q 503 -19 501 -11 q 506 -35 504 -28 q 519 -44 514 -37 q 524 -61 525 -51 q 515 -81 524 -72 q 496 -89 507 -89 q 428 -67 454 -92 q 396 -10 403 -43 q 389 51 390 15 q 388 128 388 88 q 290 22 335 49 q 207 3 244 -6 q 140 53 169 13 q 91 149 111 93 q 60 272 71 206 q 49 400 49 338 q 52 585 47 489 q 72 770 57 682 q 112 929 86 858 q 176 1035 138 1000 q 270 1063 215 1071 q 399 986 325 1054 q 398 1017 399 1006 q 397 1032 397 1029 q 379 1058 379 1039 q 388 1078 379 1069 q 407 1086 396 1086 m 389 221 q 389 243 389 231 q 390 281 389 256 q 392 352 390 307 q 394 472 393 397 l 347 472 q 328 481 336 472 q 319 500 319 489 q 328 521 319 513 q 347 529 336 529 l 396 529 q 399 719 397 624 q 400 890 400 815 q 321 968 356 951 q 260 969 286 985 q 215 911 233 953 q 183 814 196 869 q 163 695 171 758 q 152 574 156 632 q 148 468 149 515 q 149 397 147 421 q 155 292 150 349 q 169 187 160 236 q 196 103 179 138 q 238 66 213 69 q 301 97 264 63 q 389 221 338 132 z "},"‘":{"ha":182,"x_min":39,"x_max":135,"o":"m 100 647 q 122 643 111 650 q 133 625 132 636 q 131 611 135 615 q 119 603 126 607 q 106 590 113 599 q 96 563 99 582 q 121 546 114 560 q 124 515 128 532 q 107 483 119 499 q 75 464 94 468 q 46 483 53 458 q 43 542 39 508 q 62 607 47 575 q 100 647 76 639 z "},"’":{"ha":157,"x_min":28,"x_max":124,"o":"m 63 453 q 41 457 51 450 q 29 475 31 464 q 32 489 28 485 q 43 497 36 493 q 57 510 50 501 q 67 538 64 518 q 41 554 47 540 q 39 585 35 568 q 56 617 43 601 q 88 636 68 632 q 117 617 110 642 q 119 558 124 592 q 100 493 115 525 q 63 453 85 461 z "},"“":{"ha":289,"x_min":39,"x_max":246,"o":"m 100 647 q 122 643 111 650 q 133 625 132 636 q 131 611 135 615 q 119 603 126 607 q 106 590 113 599 q 96 563 99 582 q 121 546 114 560 q 124 515 128 532 q 107 483 119 499 q 75 464 94 468 q 46 483 53 458 q 43 542 39 508 q 62 607 47 575 q 100 647 76 639 m 211 647 q 233 643 222 650 q 244 625 243 636 q 242 611 246 615 q 231 603 238 607 q 217 590 224 599 q 207 563 210 582 q 232 546 225 560 q 235 515 239 532 q 218 483 231 499 q 186 464 206 468 q 157 483 164 458 q 154 542 150 508 q 173 607 158 575 q 211 647 188 639 z "},"”":{"ha":272,"x_min":28,"x_max":235,"o":"m 63 453 q 41 457 51 450 q 29 475 31 464 q 32 489 28 485 q 43 497 36 493 q 57 510 50 501 q 67 538 64 518 q 41 554 47 540 q 39 585 35 568 q 56 617 43 601 q 88 636 68 632 q 117 617 110 642 q 119 558 124 592 q 100 493 115 525 q 63 453 85 461 m 174 453 q 152 457 163 450 q 140 475 142 464 q 143 489 139 485 q 154 497 147 493 q 168 510 161 501 q 178 538 175 518 q 152 554 158 540 q 150 585 146 568 q 167 617 154 601 q 199 636 179 632 q 228 617 221 642 q 231 558 235 592 q 211 493 226 525 q 174 453 196 461 z "},"•":{"ha":225,"x_min":24,"x_max":199,"o":"m 97 232 l 94 232 q 90 233 94 233 q 38 271 51 242 q 29 332 24 300 q 56 390 35 364 q 110 421 78 417 q 178 398 157 426 q 196 332 199 369 q 168 263 193 294 q 97 232 143 232 z "},"–":{"ha":524,"x_min":56,"x_max":490,"o":"m 56 400 q 176 401 125 400 q 272 402 226 401 q 369 403 318 403 q 489 403 419 403 q 488 367 486 379 q 489 346 490 354 q 369 346 419 346 q 272 346 318 346 q 176 345 226 346 q 56 344 125 344 l 56 400 z "},"—":{"ha":800,"x_min":56,"x_max":754,"o":"m 56 400 q 217 401 125 400 q 404 402 308 401 q 592 403 500 403 q 753 403 683 403 q 752 367 750 379 q 753 346 754 354 q 592 346 683 346 q 404 346 500 346 q 217 345 308 346 q 56 344 125 344 l 56 400 z "},"˜":{"ha":407,"x_min":1,"x_max":393,"o":"m 14 810 q 72 847 46 838 q 139 846 97 857 q 188 827 163 840 q 240 803 214 814 q 292 790 267 793 q 339 801 317 788 l 357 815 q 381 815 368 828 q 381 792 393 804 l 357 772 q 310 756 333 757 q 263 760 286 754 q 216 778 239 767 q 171 799 193 789 q 101 817 128 818 q 38 786 75 817 q 14 786 26 774 q 14 810 1 799 z "},"™":{"ha":556,"x_min":8,"x_max":453,"o":"m 203 432 q 194 440 194 432 q 200 450 194 447 q 202 480 201 453 q 203 544 203 507 q 205 618 204 581 q 206 681 206 656 q 206 728 206 700 q 211 774 207 756 q 222 793 214 785 q 243 800 229 801 q 253 790 253 800 q 246 782 253 785 q 243 751 243 768 q 257 770 249 763 q 276 781 265 778 q 324 774 311 789 q 340 738 338 758 q 356 765 346 753 q 381 781 365 778 q 419 778 406 786 q 440 757 433 771 q 447 727 446 743 q 447 699 447 711 q 447 675 447 694 q 447 629 447 656 q 445 572 446 603 q 444 515 444 542 q 444 471 444 489 q 446 449 444 453 q 453 440 453 446 q 443 431 453 431 q 421 435 429 428 q 410 454 413 443 q 408 494 408 460 q 409 568 408 528 q 411 646 410 608 q 413 699 413 683 q 408 750 414 729 q 382 763 401 771 q 361 737 368 757 q 353 706 354 717 q 343 696 353 696 q 342 647 343 685 q 341 567 342 610 q 340 490 340 525 q 342 449 340 454 q 349 440 349 446 q 339 431 349 431 q 317 435 325 428 q 307 454 310 443 q 306 494 306 460 q 306 568 306 528 q 307 646 306 608 q 308 699 308 683 q 303 750 310 729 q 278 763 297 771 q 257 737 264 757 q 249 706 250 717 q 242 696 249 699 l 242 681 q 241 621 242 657 q 240 550 240 585 q 238 489 239 515 q 236 458 238 463 q 225 439 233 447 q 203 432 217 431 m 81 797 l 81 799 q 74 807 74 801 q 83 815 74 815 q 114 797 104 817 l 183 797 q 192 788 192 797 q 183 779 192 779 l 117 779 q 117 735 117 764 q 116 672 117 706 q 115 607 115 639 q 114 554 114 575 q 113 531 114 546 q 113 500 113 517 q 113 469 113 483 q 115 447 114 454 q 121 439 121 444 q 113 429 121 429 q 79 456 83 429 q 77 504 76 474 q 78 554 78 535 q 78 605 78 574 q 80 669 79 636 q 81 731 81 701 q 81 779 81 761 l 18 779 q 8 788 8 779 q 18 797 8 797 l 81 797 z "},"š":{"ha":351,"x_min":-140,"x_max":272,"o":"m 157 893 q 134 851 147 874 q 103 813 121 829 q 65 795 86 797 q 18 814 43 793 q -14 853 -1 831 q -37 897 -26 875 q -39 913 -42 904 q -29 924 -36 921 q -13 925 -22 928 q 0 915 -4 922 q 34 858 21 878 q 60 837 47 838 q 86 855 72 836 q 121 911 100 874 q 132 922 124 918 q 147 921 140 925 q 158 910 156 918 q 157 893 161 901 m -6 229 q -2 270 -4 244 q 3 327 0 296 q 10 394 7 358 q 18 467 14 431 q 3 674 -25 558 q 16 701 7 690 q 37 717 25 713 q 60 717 49 721 q 79 701 71 714 q 89 667 86 690 q 92 615 92 644 q 90 548 92 585 q 85 474 88 511 q 124 440 101 457 q 168 403 146 424 q 210 357 190 383 q 243 296 231 331 q 256 149 272 213 q 196 47 239 85 q 121 9 165 21 q 31 1 76 -3 q -53 24 -14 4 q -115 82 -93 44 q -136 159 -140 124 q -122 239 -132 194 q -109 255 -119 250 q -87 257 -99 260 q -71 244 -76 254 q -68 222 -65 233 l -76 188 q -54 97 -83 131 q 15 58 -25 63 q 93 81 56 53 q 140 176 131 110 q 131 292 151 240 q 71 388 111 343 q 68 392 68 390 q 57 294 61 339 q 50 226 53 250 q 41 207 50 215 q 21 199 32 199 q 1 208 10 200 q -6 229 -7 217 z "},"›":{"ha":339,"x_min":17,"x_max":286,"o":"m 29 450 q 20 471 22 457 q 24 496 18 485 q 38 510 29 508 q 53 506 46 513 q 78 479 60 499 q 122 434 97 460 q 174 381 147 408 q 225 328 201 353 q 264 287 249 304 q 281 265 279 269 q 281 237 286 250 q 267 213 276 224 q 246 194 257 203 q 228 178 235 185 l 51 8 q 35 2 44 0 q 21 17 25 4 q 18 41 17 28 q 26 63 19 54 q 124 156 75 110 q 222 250 174 201 q 126 349 174 299 q 29 450 78 400 z "},"œ":{"ha":674,"x_min":-12,"x_max":729,"o":"m 388 246 q 391 164 385 201 q 415 100 397 126 q 460 63 432 74 q 531 60 489 51 q 593 85 568 68 q 634 126 618 101 q 658 180 650 150 q 672 244 667 210 q 681 263 672 256 q 701 269 690 271 q 721 260 713 269 q 728 240 729 251 q 710 157 721 196 q 677 87 699 118 q 622 34 656 56 q 540 4 589 13 q 401 13 456 -8 q 317 75 347 33 q 267 25 294 44 q 206 1 240 6 q 83 32 132 -8 q 11 139 35 72 q -11 285 -12 206 q 17 432 -10 364 q 97 544 44 500 q 226 585 149 589 q 293 561 264 582 q 342 506 322 540 q 434 594 382 571 q 547 606 486 617 q 610 574 586 599 q 631 514 635 550 q 601 425 624 465 q 544 351 578 385 q 469 292 510 318 q 388 246 428 265 m 228 528 q 169 496 193 531 q 131 408 144 461 q 114 292 117 354 q 120 176 111 229 q 151 90 129 124 q 207 58 172 56 q 252 81 232 61 q 288 133 272 101 q 271 224 272 176 q 278 317 269 271 q 291 379 283 350 q 307 433 299 408 q 276 499 296 474 q 228 528 257 525 m 396 314 q 456 352 426 331 q 510 399 486 374 q 552 455 535 425 q 574 519 569 485 q 567 542 575 535 q 548 550 560 549 q 522 547 536 551 q 500 538 508 543 q 438 449 464 511 q 396 314 411 386 z "},"¨":{"ha":299,"x_min":22,"x_max":251,"o":"m 86 694 q 87 674 86 679 q 88 666 88 669 q 87 657 88 663 q 86 638 86 651 q 74 617 85 625 q 53 611 64 610 q 32 622 42 613 q 24 642 22 631 q 24 659 24 654 q 25 667 25 664 q 25 675 25 669 q 25 694 25 681 q 35 714 25 706 q 56 722 44 722 q 76 714 67 722 q 86 694 86 706 m 250 694 q 251 674 250 679 q 251 666 251 669 q 251 657 251 663 q 250 638 250 651 q 238 617 249 625 q 217 611 228 610 q 196 622 206 613 q 188 642 186 631 q 188 659 188 654 q 189 667 189 664 q 189 675 189 669 q 189 694 189 681 q 199 714 189 706 q 219 722 208 722 q 240 714 231 722 q 250 694 250 706 z "},"Ÿ":{"ha":564,"x_min":0,"x_max":476,"o":"m 450 1096 q 469 1087 461 1096 q 476 1067 476 1078 q 457 1042 476 1046 q 452 985 454 1033 q 449 864 450 938 q 445 698 447 790 q 442 510 443 606 q 440 321 442 414 q 438 153 439 228 q 437 29 438 79 q 436 -31 436 -21 q 432 -87 435 -56 q 421 -151 429 -119 q 397 -212 413 -183 q 357 -262 382 -242 q 295 -289 332 -282 q 207 -285 258 -296 q 144 -251 169 -276 q 104 -191 119 -225 q 81 -120 89 -157 q 72 -53 74 -83 q 80 -33 72 -42 q 100 -25 88 -25 q 119 -33 111 -25 q 128 -53 128 -42 q 135 -96 129 -69 q 150 -149 140 -122 q 175 -197 160 -175 q 210 -228 190 -219 q 263 -229 240 -240 q 301 -190 286 -218 q 324 -120 317 -161 q 331 -32 331 -79 l 331 110 q 288 44 314 72 q 221 6 261 15 q 101 13 143 -11 q 41 78 60 36 q 19 172 22 121 q 17 260 17 222 q 17 306 17 269 q 19 395 18 342 q 20 513 19 449 q 22 645 21 578 q 23 776 22 713 q 23 892 24 840 q 22 979 22 944 q 18 1022 21 1014 q 6 1032 11 1025 q 0 1049 0 1039 q 8 1068 0 1060 q 28 1078 17 1076 q 96 1061 69 1083 q 129 1004 122 1039 q 133 938 132 990 q 133 813 133 886 q 132 656 133 740 q 129 492 131 571 q 126 351 128 414 q 124 258 125 288 q 124 170 121 211 q 138 101 128 129 q 168 61 149 72 q 218 63 188 50 q 254 93 239 71 q 281 142 269 115 q 297 194 292 168 q 304 238 303 221 q 331 265 307 263 q 332 424 331 340 q 334 588 333 507 q 336 744 335 669 q 339 878 338 819 q 342 976 340 938 q 346 1024 343 1014 q 381 1079 354 1057 q 450 1096 407 1101 m 189 1208 q 190 1188 189 1193 q 190 1180 190 1183 q 190 1171 190 1176 q 189 1151 189 1165 q 177 1131 188 1139 q 156 1125 167 1124 q 135 1135 144 1126 q 126 1156 125 1144 q 127 1173 126 1168 q 128 1181 128 1178 q 128 1189 128 1183 q 128 1208 128 1194 q 138 1228 128 1219 q 158 1236 147 1236 q 179 1228 169 1236 q 189 1208 189 1219 m 353 1208 q 353 1188 353 1193 q 354 1180 354 1183 q 353 1171 354 1176 q 353 1151 353 1165 q 341 1131 351 1139 q 319 1125 331 1124 q 299 1135 308 1126 q 290 1156 289 1144 q 291 1173 290 1168 q 292 1181 292 1178 q 292 1189 292 1183 q 292 1208 292 1194 q 301 1228 292 1219 q 322 1236 311 1236 q 343 1228 333 1236 q 353 1208 353 1219 z "},"¡":{"ha":225,"x_min":43,"x_max":161,"o":"m 43 -124 q 48 -6 44 -76 q 56 149 51 64 q 65 331 60 235 q 73 526 69 428 q 79 719 76 624 q 81 900 82 815 q 88 920 79 911 q 107 929 96 929 q 128 921 119 929 q 136 901 136 913 q 141 629 138 774 q 149 345 144 485 q 156 83 153 206 q 161 -124 160 -40 q 142 -143 161 -136 q 102 -150 124 -150 q 62 -143 81 -150 q 43 -124 43 -136 m 76 1043 q 85 1063 76 1054 q 104 1071 93 1071 q 125 1063 117 1071 q 133 1043 133 1054 l 133 985 q 125 965 133 974 q 104 957 117 957 q 85 965 93 957 q 76 985 76 974 l 76 1043 z "},"¢":{"ha":399,"x_min":-10,"x_max":450,"o":"m 226 708 l 226 604 q 296 569 264 597 q 325 526 318 550 q 330 478 332 503 q 318 428 328 453 q 297 381 308 403 q 280 368 290 371 q 258 372 269 365 q 246 390 249 379 q 250 411 243 400 q 263 440 256 421 q 273 478 269 458 q 271 515 276 499 q 246 536 265 531 q 226 538 232 539 q 226 293 226 414 q 226 60 225 172 q 239 61 235 60 q 306 78 279 65 q 351 114 333 92 q 378 168 368 136 q 393 244 388 200 q 402 264 393 256 q 422 271 411 272 q 442 261 433 269 q 449 242 450 253 q 428 142 442 183 q 389 72 414 100 q 327 26 364 43 q 238 3 290 10 q 226 1 233 1 q 226 -46 226 -17 q 225 -93 225 -75 q 216 -114 225 -107 q 197 -121 207 -121 q 178 -115 186 -121 q 169 -94 169 -108 q 170 -47 169 -76 q 171 1 171 -17 q 63 51 103 8 q 7 155 24 94 q -4 287 -10 215 q 24 422 1 358 q 85 533 47 485 q 171 597 122 582 l 171 713 q 199 727 190 728 q 226 708 208 726 m 171 74 q 170 278 169 174 q 171 492 171 383 q 126 391 144 453 q 105 267 108 329 q 117 150 101 204 q 171 74 132 96 z "},"£":{"ha":543,"x_min":-75,"x_max":515,"o":"m 251 465 q 271 456 263 465 q 279 436 279 447 q 271 417 279 425 q 251 408 263 408 l 128 410 l 128 317 q 128 262 128 293 q 128 197 128 231 q 126 128 128 163 q 122 65 125 94 l 486 65 q 507 57 499 65 q 515 38 515 49 q 507 18 515 26 q 486 10 499 10 l 114 10 q 79 -44 104 -22 q 14 -62 54 -65 q -6 -55 3 -62 q -14 -35 -14 -47 q 6 -8 -14 -15 q 14 58 11 14 q 17 152 17 103 q 18 247 18 201 q 18 317 18 293 l 18 410 l -46 411 q -67 419 -58 411 q -74 439 -75 428 q -65 458 -74 450 q -46 467 -57 467 l 18 467 q 19 647 18 551 q 21 824 19 742 q 24 965 22 907 q 28 1033 25 1022 q 61 1090 35 1067 q 129 1111 88 1114 q 149 1104 140 1113 q 157 1085 157 1096 q 138 1057 157 1064 q 135 1022 136 1051 q 133 947 133 993 q 131 842 132 900 q 128 719 129 783 q 128 590 128 656 q 128 465 128 524 l 251 465 z "},"¤":{"ha":592,"x_min":21,"x_max":569,"o":"m 68 457 q 78 560 65 515 q 118 636 92 604 q 76 687 97 660 q 29 744 54 714 q 22 766 21 754 q 32 785 22 778 q 53 792 42 792 q 72 781 64 792 q 117 725 96 751 q 158 675 139 699 q 297 717 219 718 q 436 674 374 717 q 475 724 456 697 q 518 781 494 750 q 536 792 525 792 q 557 786 547 793 q 567 768 565 779 q 563 747 569 757 q 517 688 539 715 q 476 636 496 661 q 520 560 504 604 q 533 461 536 517 q 512 365 531 407 q 464 293 493 324 q 505 243 483 269 q 551 188 526 217 q 558 167 558 178 q 549 149 558 156 q 528 142 539 142 q 508 153 517 142 q 462 209 483 182 q 421 260 440 236 q 299 224 365 225 q 178 257 233 224 l 96 153 q 78 142 89 143 q 57 147 67 140 q 47 165 49 154 q 51 186 44 176 l 133 292 q 88 362 106 321 q 68 457 71 403 m 128 461 q 156 353 129 396 q 220 291 182 311 q 303 272 258 271 q 385 296 347 274 q 449 360 422 318 q 476 463 475 401 q 452 575 478 529 q 387 644 426 621 q 301 667 347 667 q 215 646 254 668 q 150 577 175 624 q 128 461 125 531 z "},"©":{"ha":533,"x_min":22,"x_max":515,"o":"m 78 424 q 110 303 81 350 q 183 233 140 256 q 274 213 225 211 q 364 238 322 214 q 434 310 406 263 q 464 425 463 357 q 437 550 465 499 q 365 628 408 601 q 269 656 321 654 q 174 632 217 657 q 103 555 131 607 q 78 424 75 503 m 28 418 q 58 570 22 510 q 148 660 93 631 q 268 688 203 689 q 388 657 333 688 q 479 567 443 626 q 511 422 515 508 q 472 289 508 343 q 384 207 436 235 q 272 178 332 179 q 159 202 211 176 q 69 282 107 228 q 28 418 32 336 m 299 486 q 305 499 301 490 q 310 517 308 508 q 308 533 311 526 q 297 543 306 540 q 269 532 282 547 q 247 491 256 517 q 233 435 238 465 q 233 380 229 406 q 252 338 238 354 q 293 325 267 322 q 339 342 325 329 q 354 350 346 347 q 367 351 363 353 q 370 343 372 350 q 356 322 368 336 q 293 297 332 303 q 225 309 250 292 q 190 357 200 326 q 181 424 179 388 q 195 494 183 461 q 228 550 207 526 q 275 575 249 574 q 319 560 300 578 q 336 517 340 540 q 321 472 332 493 q 303 468 313 461 q 299 486 293 476 z "},"¦":{"ha":224,"x_min":79,"x_max":142,"o":"m 142 792 q 140 672 140 722 q 140 575 140 621 q 139 478 140 529 q 136 358 138 428 q 101 359 114 361 q 79 358 88 357 q 82 478 81 428 q 84 575 83 529 q 85 672 85 621 q 86 792 85 722 l 142 792 m 142 250 q 140 130 140 181 q 140 33 140 79 q 139 -63 140 -12 q 136 -183 138 -114 q 101 -183 114 -181 q 79 -183 88 -185 q 82 -63 81 -114 q 84 33 83 -12 q 85 130 85 79 q 86 250 85 181 l 142 250 z "},"§":{"ha":440,"x_min":-8,"x_max":426,"o":"m 42 -92 q 96 -150 60 -128 q 194 -169 132 -172 q 277 -134 247 -167 q 315 -56 307 -101 q 308 42 322 -10 q 260 135 294 94 q 194 194 231 169 q 122 244 157 218 q 60 304 88 269 q 24 396 33 339 q 24 478 15 438 q 53 553 32 518 q 24 632 32 588 q 24 713 17 674 q 51 785 32 751 q 99 845 71 819 q 161 885 128 871 q 276 895 215 908 q 379 833 336 882 q 408 784 396 814 q 423 723 419 754 q 418 665 426 692 q 386 625 410 638 q 360 619 371 617 q 340 631 349 622 q 325 652 331 639 q 318 679 319 665 l 318 714 q 344 735 322 735 q 360 726 354 733 q 365 710 367 719 q 363 689 364 701 q 367 668 363 676 q 375 684 372 672 q 378 710 378 696 q 376 737 378 724 q 372 756 374 750 q 310 833 353 814 q 225 840 268 853 q 149 783 182 826 q 117 672 117 739 q 141 581 117 618 q 201 516 165 544 q 276 461 236 488 q 346 400 317 435 q 405 260 399 338 q 375 121 411 183 q 405 12 403 69 q 384 -96 407 -46 q 314 -179 361 -146 q 196 -217 267 -212 q 60 -182 110 -221 q -8 -89 10 -143 l 42 -92 m 117 436 q 136 353 117 388 q 185 292 156 319 q 251 242 215 265 q 317 192 286 218 q 307 284 322 236 q 260 371 292 332 q 192 431 229 407 q 121 481 156 454 q 117 436 117 460 z "},"ª":{"ha":397,"x_min":24,"x_max":379,"o":"m 208 589 q 203 622 207 604 q 193 653 200 639 q 175 678 186 668 q 150 690 164 688 q 117 676 131 693 q 94 633 103 660 q 84 574 86 607 q 87 515 82 542 q 105 472 92 489 q 139 458 118 454 q 169 474 157 461 q 188 504 181 488 q 199 539 194 521 q 206 572 203 557 q 211 581 208 579 q 208 589 208 586 m 217 751 q 251 741 238 753 q 268 711 264 729 q 269 672 271 697 q 266 617 268 647 q 263 555 264 586 q 265 500 261 524 q 278 464 268 476 q 308 458 289 451 q 326 473 318 463 q 338 496 333 483 q 347 522 343 508 q 350 543 350 535 q 365 556 353 557 q 379 540 379 556 q 374 508 378 525 q 363 474 371 490 q 341 445 354 457 q 310 431 328 433 q 241 444 261 422 q 215 499 221 467 q 187 453 204 472 q 139 431 169 433 q 73 446 99 425 q 35 501 47 467 q 25 575 24 535 q 41 649 26 615 q 83 704 56 683 q 149 719 110 725 q 188 703 172 717 q 215 671 204 690 q 215 703 215 689 q 213 724 215 717 q 203 738 204 728 q 217 751 203 751 z "},"−":{"ha":572,"x_min":56,"x_max":532,"o":"m 56 400 q 182 401 125 400 q 293 402 239 401 q 404 403 347 403 q 531 403 461 403 q 530 367 528 379 q 531 346 532 354 q 404 346 461 346 q 293 346 347 346 q 182 345 239 346 q 56 344 125 344 l 56 400 z "},"¬":{"ha":644,"x_min":32,"x_max":608,"o":"m 608 569 q 607 466 607 501 q 608 406 607 431 q 608 356 608 381 q 607 285 608 332 q 572 285 585 288 q 550 285 558 283 q 551 349 551 326 q 551 385 551 372 q 551 407 551 399 q 551 426 551 415 q 551 457 551 438 q 551 513 551 476 q 283 514 408 514 q 32 513 158 514 l 32 568 q 320 570 172 569 q 608 569 468 571 z "},"®":{"ha":556,"x_min":22,"x_max":515,"o":"m 28 418 q 58 570 22 510 q 148 660 93 631 q 268 688 203 689 q 388 657 333 688 q 479 567 443 626 q 511 422 515 508 q 472 289 508 343 q 384 207 436 235 q 272 178 332 179 q 159 202 211 176 q 69 282 107 228 q 28 418 32 336 m 78 424 q 110 303 81 350 q 183 233 140 256 q 274 213 225 211 q 364 238 322 214 q 434 310 406 263 q 464 425 463 357 q 437 550 465 499 q 365 628 408 601 q 269 656 321 654 q 174 632 217 657 q 103 555 131 607 q 78 424 75 503 m 204 608 q 225 603 218 610 q 235 585 232 596 q 236 565 236 582 q 236 522 236 547 q 248 554 240 539 q 267 580 256 569 q 292 594 278 590 q 325 592 307 597 q 351 569 344 585 q 357 535 358 554 q 349 498 356 517 q 333 465 342 479 q 305 433 321 446 q 269 410 289 419 q 301 385 292 403 q 315 347 311 367 q 322 309 319 326 q 332 285 324 292 q 340 283 335 283 q 350 275 350 283 q 342 265 350 267 q 303 280 313 263 q 290 320 293 297 q 281 365 286 343 q 257 396 276 388 q 242 400 249 400 q 235 403 236 400 q 233 382 233 392 q 233 364 233 372 q 233 342 233 356 q 232 313 232 328 q 233 284 232 297 q 235 264 233 271 q 240 256 240 261 q 232 247 240 247 q 211 253 218 246 q 201 271 204 260 q 199 316 199 288 q 200 364 199 344 q 201 424 200 386 q 202 498 201 461 q 203 562 203 535 q 201 592 203 589 q 196 600 196 594 q 204 608 196 608 m 235 413 q 241 417 236 415 q 249 419 246 418 q 292 455 274 428 q 320 510 311 482 q 325 560 329 539 q 299 578 321 582 q 276 565 286 575 q 260 540 267 554 q 250 512 254 526 q 244 486 246 497 q 235 478 244 478 l 235 413 z "},"±":{"ha":506,"x_min":36,"x_max":475,"o":"m 219 515 l 221 678 q 229 699 221 690 q 249 706 238 707 q 268 697 260 706 q 276 678 276 689 l 276 515 l 446 514 q 467 506 458 514 q 474 486 475 497 q 465 467 474 475 q 446 458 457 458 l 275 460 l 275 296 q 267 276 275 285 q 247 268 258 268 q 226 276 235 268 q 219 296 218 285 l 219 460 l 64 460 q 44 469 53 460 q 36 489 36 478 q 44 508 36 500 q 64 517 53 517 l 219 515 m 446 250 q 465 242 457 250 q 474 221 474 233 q 465 201 474 210 q 446 193 457 193 l 68 196 q 47 204 56 196 q 40 224 39 213 q 49 243 40 235 q 68 251 57 251 l 446 250 z "},"²":{"ha":189,"x_min":4,"x_max":174,"o":"m 10 676 q 20 742 7 713 q 76 779 33 771 q 128 774 107 785 q 160 744 149 764 q 172 698 171 724 q 168 647 174 672 q 156 615 163 626 q 142 596 150 603 q 121 585 133 589 q 92 579 108 582 q 57 565 68 574 q 42 543 46 556 q 38 513 38 531 q 39 472 39 496 l 39 439 q 85 438 61 438 q 124 443 110 438 q 147 469 144 451 q 150 507 150 488 q 157 518 147 515 q 168 508 165 518 q 160 451 169 476 q 114 419 151 426 q 94 419 108 419 q 63 418 79 418 q 33 418 47 418 q 15 418 19 418 q 6 425 7 418 q 5 440 6 426 q 4 471 4 454 q 5 501 4 488 q 6 518 6 515 q 15 564 7 549 q 35 587 24 579 q 62 597 47 594 q 90 603 76 599 q 116 617 104 607 q 133 651 128 628 q 138 689 138 669 q 133 725 139 708 q 114 752 126 742 q 79 761 101 763 q 39 736 51 760 q 29 679 26 713 q 21 668 32 671 q 10 676 13 665 z "},"³":{"ha":171,"x_min":-15,"x_max":161,"o":"m -11 668 q 3 741 -15 711 q 69 771 22 771 q 122 749 106 772 q 136 693 139 725 q 122 652 133 672 q 88 618 111 632 q 143 582 125 611 q 161 517 161 553 q 133 442 160 471 q 60 415 107 413 q 1 443 17 418 q -12 506 -14 468 q -1 514 -10 517 q 7 504 10 514 q 16 456 6 475 q 60 435 26 438 q 109 455 96 432 q 126 515 122 478 q 109 575 124 556 q 67 600 94 594 q 50 603 56 603 q 28 600 44 603 q 16 609 19 600 q 26 621 13 618 q 38 622 31 621 q 64 635 46 624 q 90 664 81 644 q 102 702 100 683 q 97 735 104 721 q 71 751 90 750 q 19 729 32 754 q 8 671 6 704 q 0 660 8 660 q -11 668 -11 657 z "},"·":{"ha":144,"x_min":22,"x_max":88,"o":"m 86 375 q 87 355 86 360 q 88 347 88 350 q 87 338 88 343 q 86 318 86 332 q 74 298 85 306 q 53 292 64 290 q 32 302 42 293 q 24 322 22 311 q 24 340 24 335 q 25 347 25 344 q 25 356 25 350 q 25 375 25 361 q 35 394 25 386 q 56 403 44 403 q 76 394 67 403 q 86 375 86 386 z "},"¹":{"ha":133,"x_min":26,"x_max":93,"o":"m 93 786 q 90 617 92 701 q 86 446 88 532 q 90 445 86 444 q 93 444 93 446 l 93 422 q 63 422 81 422 q 36 424 44 422 q 37 435 36 428 q 38 446 38 442 q 42 447 38 449 q 47 449 47 446 q 51 605 50 531 q 54 754 53 679 q 41 758 51 763 q 26 749 31 753 q 38 772 29 763 q 58 787 47 782 q 79 792 69 792 q 93 786 89 792 z "},"»":{"ha":410,"x_min":-14,"x_max":383,"o":"m 125 644 q 116 665 118 651 q 119 690 114 679 q 150 700 131 717 q 175 674 156 693 q 219 628 194 654 q 272 575 244 603 q 322 523 299 547 q 360 481 344 499 q 378 460 376 464 q 378 431 383 444 q 363 408 372 418 q 342 388 354 397 q 324 372 331 379 l 149 203 q 131 197 140 194 q 118 211 122 199 q 114 235 113 222 q 124 257 115 249 l 318 444 l 125 644 m -1 644 q -10 665 -8 651 q -7 690 -12 679 q 7 705 -1 703 q 22 700 15 707 q 48 674 29 693 q 92 628 67 654 q 144 575 117 603 q 194 523 171 547 q 233 481 218 499 q 250 460 249 464 q 251 431 256 444 q 236 408 246 418 q 215 388 226 397 q 197 372 204 379 l 21 203 q 4 197 14 194 q -10 211 -6 199 q -12 235 -14 222 q -4 257 -11 249 q 94 350 44 304 q 192 444 143 396 q 95 544 143 493 q -1 644 47 594 z "},"¼":{"ha":471,"x_min":21,"x_max":432,"o":"m 407 750 q 238 385 324 565 q 69 21 153 206 q 56 10 65 14 q 40 10 47 7 q 28 40 21 18 q 197 405 111 225 q 365 769 282 585 q 378 781 368 778 q 394 781 388 783 q 407 750 414 772 m 408 374 l 404 147 l 425 147 q 431 138 431 146 q 425 126 432 129 q 415 127 421 126 q 403 128 410 128 l 400 32 q 403 31 400 29 q 407 29 407 32 l 407 7 q 378 7 396 7 q 353 8 361 7 l 353 31 q 358 31 353 32 q 363 32 363 31 l 365 128 q 296 128 331 129 q 242 125 261 128 q 238 119 239 119 q 233 109 236 115 q 225 99 229 103 q 215 93 221 94 q 204 99 210 92 q 201 117 201 104 q 207 136 200 131 q 226 142 214 139 q 248 199 238 167 q 266 266 258 232 q 277 331 274 300 q 279 382 281 361 q 289 394 276 392 q 299 385 299 394 q 298 331 301 361 q 287 267 294 300 q 269 203 279 235 q 249 146 260 171 q 304 149 274 149 q 365 149 335 149 q 368 245 367 197 q 369 340 369 293 q 356 344 367 350 q 342 335 346 339 q 352 359 343 349 q 372 374 361 369 q 394 379 383 379 q 408 374 404 379 m 167 782 l 160 440 q 163 439 160 438 q 165 438 167 440 l 165 415 q 136 415 154 415 q 111 417 118 415 l 111 439 q 116 440 111 440 q 121 440 121 439 q 125 599 124 524 q 128 749 126 674 q 115 753 125 758 q 100 743 104 747 q 112 767 103 757 q 132 783 121 778 q 153 788 143 788 q 167 782 163 788 z "},"½":{"ha":414,"x_min":11,"x_max":404,"o":"m 397 750 q 228 385 314 565 q 60 21 143 206 q 47 10 56 14 q 31 10 38 7 q 18 40 11 18 q 187 405 101 225 q 356 769 272 585 q 368 781 358 778 q 385 781 378 783 q 397 750 404 772 m 218 240 q 226 302 215 275 q 274 336 238 329 q 318 332 300 342 q 346 303 336 322 q 357 260 356 285 q 353 213 358 236 q 331 165 344 175 q 288 147 317 154 q 258 135 268 143 q 246 115 249 126 q 243 87 243 103 q 243 49 243 71 l 243 15 q 282 14 261 14 q 315 21 303 14 q 335 44 332 28 q 336 79 338 61 q 344 89 333 89 q 350 88 347 89 q 353 82 353 86 q 348 28 356 50 q 308 -1 340 6 q 290 -2 303 -1 q 264 -3 278 -3 q 238 -3 250 -3 q 221 -3 225 -3 q 214 3 215 0 q 213 17 214 4 q 213 46 213 31 q 213 74 213 61 q 214 89 214 88 q 230 147 215 133 q 263 165 244 160 q 298 176 281 169 q 322 217 315 183 q 327 251 326 233 q 322 285 328 269 q 306 311 317 301 q 275 319 294 321 q 242 297 253 319 q 233 242 231 274 q 228 232 236 232 q 218 240 221 231 m 157 782 l 150 440 q 153 439 150 438 q 156 438 157 440 l 156 415 q 126 415 144 415 q 101 417 108 415 l 101 439 q 106 440 101 440 q 111 440 111 439 q 115 599 114 524 q 118 749 117 674 q 105 753 115 758 q 90 743 94 747 q 102 767 93 757 q 122 783 111 778 q 143 788 133 788 q 157 782 153 788 z "},"ı":{"ha":325,"x_min":-25,"x_max":318,"o":"m 289 3 q 222 24 247 0 q 189 82 196 47 q 188 161 183 108 q 198 275 192 214 q 208 399 204 336 q 205 508 211 461 q 179 581 199 556 q 119 592 160 606 q 84 564 100 585 q 57 517 68 543 q 40 465 46 492 q 32 422 33 439 q 22 403 31 411 q 1 396 13 394 q -17 406 -10 397 q -25 426 -25 415 q -13 493 -22 457 q 13 562 -4 529 q 56 619 29 594 q 119 649 82 643 q 238 635 197 661 q 294 566 278 610 q 312 472 311 522 q 313 383 313 421 q 309 315 313 363 q 302 216 306 268 q 297 119 299 164 q 299 57 294 74 q 318 31 318 50 q 309 11 318 19 q 289 3 300 3 z "},"°":{"ha":313,"x_min":35,"x_max":272,"o":"m 157 567 l 153 567 q 147 568 153 568 q 85 585 110 568 q 49 629 61 603 q 35 687 36 656 q 44 747 35 718 q 74 800 54 776 q 124 833 94 824 q 197 835 165 847 q 246 797 228 824 q 268 734 264 771 q 262 663 272 697 q 226 602 251 629 q 157 567 200 575 m 154 603 q 197 626 181 607 q 219 672 213 646 q 222 726 225 699 q 206 774 218 753 q 175 803 194 794 q 131 799 156 811 q 92 755 104 788 q 83 688 81 722 q 103 628 85 654 q 154 603 121 601 z "},"º":{"ha":283,"x_min":-1,"x_max":246,"o":"m 147 740 q 110 719 125 742 q 87 664 96 697 q 76 592 78 631 q 81 520 75 553 q 100 466 86 488 q 135 447 114 444 q 171 472 156 450 q 195 526 186 494 q 206 594 204 557 q 201 663 207 631 q 181 716 194 694 q 147 740 168 738 m 133 413 q 58 432 88 407 q 13 498 28 457 q -1 588 -1 539 q 17 680 0 638 q 66 750 33 722 q 147 775 99 778 q 203 747 182 772 q 235 682 225 721 q 244 598 246 643 q 228 513 242 553 q 192 445 215 474 q 133 413 168 417 z "},"¾":{"ha":449,"x_min":13,"x_max":432,"o":"m 407 750 q 238 385 324 565 q 69 21 153 206 q 56 10 65 14 q 40 10 47 7 q 28 40 21 18 q 197 405 111 225 q 365 769 282 585 q 378 781 368 778 q 394 781 388 783 q 407 750 414 772 m 408 374 l 404 147 l 425 147 q 431 138 431 146 q 425 126 432 129 q 415 127 421 126 q 403 128 410 128 l 400 32 q 403 31 400 29 q 407 29 407 32 l 407 7 q 378 7 396 7 q 353 8 361 7 l 353 31 q 358 31 353 32 q 363 32 363 31 l 365 128 q 296 128 331 129 q 242 125 261 128 q 238 119 239 119 q 233 109 236 115 q 225 99 229 103 q 215 93 221 94 q 204 99 210 92 q 201 117 201 104 q 207 136 200 131 q 226 142 214 139 q 248 199 238 167 q 266 266 258 232 q 277 331 274 300 q 279 382 281 361 q 289 394 276 392 q 299 385 299 394 q 298 331 301 361 q 287 267 294 300 q 269 203 279 235 q 249 146 260 171 q 304 149 274 149 q 365 149 335 149 q 368 245 367 197 q 369 340 369 293 q 356 344 367 350 q 342 335 346 339 q 352 359 343 349 q 372 374 361 369 q 394 379 383 379 q 408 374 404 379 m 17 668 q 31 741 13 711 q 97 771 50 771 q 150 749 133 772 q 164 693 167 725 q 150 652 161 672 q 115 618 139 632 q 171 582 153 611 q 189 517 189 553 q 161 442 188 471 q 88 415 135 413 q 29 443 44 418 q 15 506 14 468 q 26 514 18 517 q 35 504 38 514 q 44 456 33 475 q 88 435 54 438 q 137 455 124 432 q 154 515 150 478 q 137 575 151 556 q 94 600 122 594 q 78 603 83 603 q 56 600 72 603 q 44 609 47 600 q 54 621 40 618 q 66 622 58 621 q 92 635 74 624 q 118 664 108 644 q 130 702 128 683 q 125 735 132 721 q 99 751 118 750 q 47 729 60 754 q 36 671 33 704 q 28 660 36 660 q 17 668 17 657 z "},"¿":{"ha":410,"x_min":24,"x_max":393,"o":"m 339 92 q 385 -31 378 36 q 361 -158 393 -97 q 287 -231 333 -207 q 190 -251 240 -254 q 88 -225 124 -249 q 38 -164 51 -201 q 29 -80 24 -126 q 53 14 35 -33 q 101 105 72 61 q 163 181 131 149 q 206 228 185 203 q 249 303 228 254 q 285 458 283 378 q 303 478 285 475 q 322 460 322 478 q 294 294 318 372 q 207 154 269 217 q 169 99 188 135 q 138 19 150 63 q 121 -67 125 -24 q 127 -146 117 -111 q 165 -199 138 -181 q 243 -208 193 -217 q 310 -167 285 -197 q 344 -97 335 -136 q 344 -13 353 -57 q 310 68 336 31 q 313 94 297 82 q 326 99 318 100 q 339 92 333 99 m 286 551 q 304 571 286 571 q 322 551 322 571 l 322 513 q 304 494 322 494 q 286 513 286 494 l 286 551 z "},"×":{"ha":463,"x_min":86,"x_max":417,"o":"m 101 371 l 211 481 l 94 596 q 86 616 86 604 q 94 635 86 628 q 133 635 114 654 l 250 522 l 369 642 q 390 651 378 651 q 408 643 401 651 q 417 623 417 635 q 410 604 417 611 l 289 482 l 407 368 q 415 348 415 360 q 407 329 415 336 q 387 319 399 319 q 368 328 375 319 l 250 442 l 142 331 q 122 323 133 322 q 101 331 110 324 q 93 351 93 339 q 101 371 93 363 z "},"÷":{"ha":515,"x_min":21,"x_max":497,"o":"m 285 386 q 285 366 285 371 q 286 358 286 361 q 285 349 286 354 q 285 329 285 343 q 273 309 283 317 q 251 303 263 301 q 231 313 240 304 q 222 333 221 322 q 223 351 222 346 q 224 358 224 356 q 224 367 224 361 q 224 386 224 372 q 233 406 224 397 q 254 414 243 414 q 275 406 265 414 q 285 386 285 397 m 285 650 q 285 630 285 635 q 286 622 286 625 q 285 613 286 618 q 285 593 285 607 q 273 573 283 581 q 251 567 263 565 q 231 577 240 568 q 222 597 221 586 q 223 615 222 610 q 224 622 224 619 q 224 631 224 625 q 224 650 224 636 q 233 669 224 661 q 254 678 243 678 q 275 669 265 678 q 285 650 285 661 m 21 521 q 147 522 90 521 q 258 523 204 522 q 369 524 313 524 q 496 524 426 524 q 495 488 493 500 q 496 467 497 475 q 369 467 426 467 q 258 467 313 467 q 147 466 204 467 q 21 465 90 465 l 21 521 z "},"þ":{"ha":488,"x_min":54,"x_max":444,"o":"m 110 869 q 111 711 111 794 q 111 543 111 628 q 204 590 149 581 q 310 578 265 600 q 385 516 356 557 q 430 420 415 475 q 444 306 444 365 q 428 191 443 247 q 382 92 413 135 q 307 26 351 50 q 203 7 263 1 q 153 20 175 10 q 111 47 131 31 q 111 -106 111 -31 q 113 -250 111 -182 q 104 -271 113 -262 q 85 -279 96 -279 q 65 -271 74 -279 q 57 -251 57 -262 q 56 18 56 -125 q 56 308 56 161 q 56 599 56 456 q 54 868 56 742 q 62 888 54 879 q 82 896 69 896 q 101 889 93 897 q 110 869 110 881 m 199 64 q 264 94 236 58 q 307 184 292 129 q 324 303 322 239 q 315 421 326 367 q 276 508 303 475 q 206 533 249 542 q 147 500 169 526 q 111 439 125 474 l 111 133 q 148 87 126 106 q 199 64 169 68 z "},"g":{"ha":538,"x_min":-3,"x_max":604,"o":"m 296 -456 q 204 -446 247 -462 q 129 -397 161 -429 q 79 -322 97 -365 q 65 -230 61 -278 q 96 -134 68 -182 q 182 -46 124 -86 q 267 -4 219 -19 q 365 14 315 11 q 365 68 365 42 q 364 121 364 94 q 311 42 344 75 q 222 1 278 8 q 93 32 143 -8 q 20 138 43 72 q 0 282 -3 204 q 31 426 3 360 q 113 532 60 492 q 242 563 165 572 q 315 533 285 557 q 367 474 346 510 q 369 509 368 493 q 374 536 371 525 q 405 592 381 568 q 469 613 429 615 q 489 604 481 613 q 497 585 497 596 q 479 560 497 567 q 472 485 474 539 q 468 372 469 432 q 467 258 467 313 q 468 181 468 204 q 470 97 469 140 q 471 8 471 53 q 549 -18 515 0 l 589 -42 q 601 -59 599 -49 q 597 -79 604 -69 q 579 -91 590 -89 q 558 -86 568 -93 q 514 -61 533 -71 q 471 -46 494 -51 q 472 -116 472 -82 q 472 -181 472 -150 q 465 -275 472 -229 q 439 -358 458 -321 q 385 -422 419 -396 q 296 -456 351 -449 m 363 294 q 358 308 358 300 q 349 372 356 339 q 328 434 342 406 q 293 483 314 463 q 243 508 272 504 q 179 481 207 514 q 135 397 151 449 q 115 282 119 344 q 121 167 111 219 q 156 83 131 115 q 222 57 181 50 q 279 87 257 63 q 316 144 301 111 q 338 213 331 176 q 351 278 346 249 q 363 293 354 289 l 363 294 m 365 -39 q 241 -74 300 -46 q 146 -161 182 -103 q 120 -239 122 -199 q 133 -314 118 -279 q 178 -373 147 -349 q 249 -403 208 -397 q 314 -376 290 -400 q 349 -319 338 -353 q 363 -248 361 -286 q 365 -178 365 -210 l 365 -39 z "},"s":{"ha":369,"x_min":-25,"x_max":306,"o":"m 225 400 q 242 445 240 421 q 234 489 244 469 q 203 521 224 508 q 154 532 183 533 q 90 501 108 529 q 75 436 71 472 q 99 372 79 397 q 147 325 119 346 q 203 285 174 304 q 257 244 233 267 q 293 189 281 221 q 300 111 306 157 q 281 65 296 86 q 242 28 265 43 q 190 7 219 14 q 131 1 161 0 q 31 40 65 6 q -12 117 -4 75 q -5 198 -21 160 q 49 247 11 236 q 69 243 60 250 q 81 225 78 236 q 77 205 83 214 q 60 193 71 196 q 43 169 49 190 q 42 125 38 149 q 60 81 46 101 q 100 58 74 61 q 169 72 146 53 q 196 119 192 90 q 187 185 201 157 q 148 235 172 213 q 93 277 124 257 q 37 319 63 297 q -7 369 11 342 q -25 435 -25 397 q -10 502 -25 474 q 28 549 4 531 q 85 577 53 568 q 151 585 117 586 q 232 563 197 583 q 283 510 267 543 q 295 438 300 478 q 257 356 290 397 q 238 351 249 349 q 219 363 226 353 q 215 381 213 371 q 225 400 218 392 z "},"o":{"ha":431,"x_min":-1,"x_max":382,"o":"m 232 492 q 174 463 199 494 q 137 381 150 431 q 121 274 124 332 q 127 166 118 215 q 157 85 136 117 q 211 57 178 53 q 268 92 244 60 q 305 173 292 125 q 321 276 318 221 q 315 378 324 331 q 285 457 306 425 q 232 492 265 489 m 210 1 q 92 30 139 -8 q 22 130 44 68 q 1 266 -1 192 q 28 404 3 340 q 104 510 54 468 q 229 547 154 551 q 317 505 282 544 q 367 407 351 465 q 380 281 382 349 q 358 153 378 213 q 300 51 338 93 q 210 1 263 8 z "},"x":{"ha":436,"x_min":-10,"x_max":368,"o":"m 58 583 q 113 490 86 536 q 168 394 140 443 q 230 508 204 461 q 258 564 256 554 q 254 590 243 571 q 272 609 260 601 q 294 617 283 617 q 350 597 338 619 q 351 540 363 574 q 337 510 349 532 q 308 457 325 489 q 268 385 290 425 q 221 300 246 344 l 361 57 q 365 35 368 46 q 351 19 363 25 q 331 15 342 13 q 315 28 321 18 q 253 136 283 82 q 190 244 222 190 l 190 243 q 166 200 181 226 q 138 145 151 174 q 112 92 124 117 q 97 53 100 67 q 103 28 111 49 q 84 9 96 17 q 61 0 72 1 q 5 18 19 -4 q 0 74 -10 40 q 31 147 7 100 q 86 247 54 193 l 138 339 q 75 447 106 393 q 13 554 44 501 q 8 574 6 564 q 21 592 11 585 q 41 596 31 599 q 58 583 51 593 z "},"z":{"ha":392,"x_min":-10,"x_max":332,"o":"m 36 556 q 128 557 82 557 q 219 557 174 557 q 222 567 219 564 q 239 586 228 578 q 261 594 250 594 q 317 574 303 597 q 322 518 332 550 q 306 481 319 508 q 274 413 293 453 q 229 322 254 372 q 178 219 204 272 q 161 187 171 207 q 141 145 151 167 q 121 101 131 124 q 104 61 111 79 l 299 61 q 317 53 310 61 q 324 35 325 46 q 315 15 324 24 q 296 7 307 7 l 103 7 q 101 6 101 6 q 85 -14 96 -6 q 63 -22 74 -22 q 5 -4 19 -26 q -3 50 -10 18 q 25 124 4 76 q 74 225 46 171 q 115 307 94 267 q 153 383 135 347 q 185 450 171 419 q 211 503 200 481 q 122 503 167 503 q 33 501 78 503 q 15 510 22 501 q 8 529 7 518 q 17 548 8 540 q 36 556 25 556 z "},"w":{"ha":560,"x_min":-35,"x_max":494,"o":"m -12 600 q 56 583 24 604 q 99 529 88 561 q 110 463 107 507 q 115 367 114 419 q 118 260 117 315 q 124 161 119 206 q 139 88 129 117 q 165 60 149 60 q 203 104 185 60 q 232 219 222 149 q 256 297 232 264 q 324 329 279 329 q 317 292 321 317 q 311 238 314 268 q 308 177 308 208 q 308 119 307 146 q 315 77 310 93 q 331 61 321 61 q 360 92 346 61 q 388 169 375 122 q 411 273 400 217 q 430 381 422 329 q 442 472 438 432 q 446 525 446 511 q 451 544 444 536 q 467 551 457 551 q 485 542 478 550 q 494 524 493 535 q 486 438 492 489 q 472 328 481 386 q 449 213 463 271 q 416 108 435 156 q 374 32 397 61 q 324 1 351 3 q 271 27 288 -1 q 243 96 254 56 q 206 28 228 56 q 157 0 183 1 q 90 31 115 -1 q 50 114 65 63 q 27 229 35 165 q 15 354 19 293 q 4 468 10 415 q -12 549 -1 521 q -32 574 -29 554 q -28 592 -35 585 q -12 600 -22 600 z "},"v":{"ha":464,"x_min":-35,"x_max":400,"o":"m -10 599 q 60 581 31 603 q 101 526 89 558 q 116 460 110 504 q 127 365 122 417 q 138 260 132 314 q 153 161 144 206 q 175 88 163 117 q 207 60 188 60 q 241 90 224 60 q 274 169 258 121 q 302 273 289 217 q 325 381 315 329 q 340 473 335 433 q 346 526 346 513 q 369 553 343 553 q 390 544 381 553 q 400 525 399 536 q 391 439 397 490 q 373 330 385 388 q 344 214 361 272 q 306 108 328 156 q 258 31 285 61 q 199 0 231 1 q 121 31 151 -1 q 72 113 90 63 q 42 227 53 164 q 25 352 32 290 q 10 466 18 414 q -10 546 3 518 q -32 571 -28 550 q -28 590 -35 582 q -10 599 -21 597 z "},"r":{"ha":347,"x_min":-19,"x_max":332,"o":"m 8 619 q 74 599 49 622 q 106 543 99 576 q 106 540 106 540 q 108 540 107 540 q 108 533 108 539 q 108 511 108 526 q 172 581 135 560 q 243 599 208 603 q 303 568 278 594 q 332 494 328 542 q 324 476 332 483 q 306 468 317 468 q 290 470 300 468 q 272 476 281 472 q 256 484 263 479 q 249 494 249 489 q 233 541 246 528 q 201 546 219 554 q 165 507 183 538 q 132 425 146 476 l 125 393 q 107 371 124 378 q 106 307 107 339 q 106 244 106 275 q 106 201 106 228 q 106 147 106 175 q 109 93 107 118 q 115 54 111 68 q 135 29 135 49 q 128 10 136 18 q 110 1 121 3 q 43 20 69 -1 q 8 75 17 42 q -1 148 1 101 q 0 249 -3 194 q 1 360 0 306 q 1 458 1 414 q 1 531 1 501 q 0 567 1 560 q -19 593 -19 574 q -11 612 -19 604 q 8 619 -3 619 z "},"q":{"ha":538,"x_min":-3,"x_max":500,"o":"m 376 -479 q 357 -472 365 -479 q 349 -453 349 -464 q 354 -436 349 -443 q 367 -426 360 -429 q 369 -392 368 -421 q 369 -319 369 -364 q 369 -219 369 -275 q 369 -105 369 -164 q 368 13 368 -46 q 367 122 368 72 q 313 39 347 74 q 222 -3 279 4 q 93 28 143 -12 q 20 134 43 68 q 0 278 -3 200 q 31 422 3 356 q 113 528 60 488 q 242 558 165 568 q 317 527 286 553 q 369 464 349 501 q 372 499 371 483 q 376 525 374 514 q 408 581 383 558 q 472 601 432 604 q 492 594 483 603 q 500 575 500 586 q 482 550 500 556 q 476 506 478 536 q 472 440 474 476 q 470 362 471 403 q 469 283 469 321 q 470 216 469 246 q 471 171 471 186 q 473 67 472 125 q 474 -53 474 8 q 476 -173 475 -114 q 476 -281 476 -232 q 474 -362 475 -329 q 472 -403 474 -394 q 441 -458 465 -435 q 376 -479 417 -482 m 357 304 q 349 368 356 335 q 328 430 342 401 q 293 478 314 458 q 243 504 272 499 q 179 477 207 510 q 135 392 151 444 q 115 277 119 339 q 121 163 111 215 q 156 77 131 110 q 222 51 181 44 q 279 82 257 57 q 316 140 301 107 q 338 208 331 172 q 351 274 346 244 q 363 289 354 285 q 357 304 357 297 z "},"p":{"ha":544,"x_min":-17,"x_max":482,"o":"m 122 253 q 131 189 124 222 q 151 127 138 156 q 186 78 165 99 q 236 53 207 57 q 300 79 272 46 q 344 165 328 113 q 364 279 360 217 q 358 394 368 342 q 324 478 349 446 q 257 504 299 511 q 200 474 222 499 q 163 417 178 450 q 141 348 149 383 q 128 283 133 313 q 117 267 126 274 q 122 253 122 258 m 99 -469 q 34 -449 58 -472 q 3 -393 10 -426 q 1 -353 1 -386 q 0 -272 0 -319 q 1 -164 0 -224 q 3 -43 1 -104 q 6 76 4 18 q 8 179 7 133 q 10 257 10 203 q 11 371 11 311 q 8 484 11 431 q 0 558 6 538 q -17 585 -17 565 q -9 603 -17 596 q 10 611 -1 611 q 75 590 50 614 q 107 535 100 567 q 111 493 110 518 q 114 439 113 468 q 168 519 135 485 q 257 560 201 553 q 385 529 335 569 q 459 423 436 489 q 479 278 482 357 q 448 134 476 200 q 367 28 419 68 q 238 -3 314 -12 q 163 28 194 4 q 111 89 132 53 q 108 -72 110 14 q 106 -231 107 -157 q 106 -358 106 -306 q 108 -418 106 -410 q 121 -428 115 -421 q 125 -443 126 -435 q 117 -462 125 -454 q 99 -469 110 -471 z "},"h":{"ha":467,"x_min":-10,"x_max":414,"o":"m 18 851 q 83 831 58 854 q 114 775 107 807 q 116 747 115 765 q 116 695 117 728 q 113 613 115 663 q 110 494 111 564 q 147 535 125 518 q 197 558 168 551 q 311 549 271 572 q 370 483 351 525 q 393 392 389 442 q 397 308 397 343 q 396 243 397 289 q 392 147 394 197 q 391 53 390 97 q 396 -6 392 10 q 408 -15 403 -8 q 414 -32 414 -22 q 406 -51 414 -43 q 388 -58 399 -58 q 322 -40 347 -62 q 289 14 296 -18 q 285 90 283 40 q 289 200 286 140 q 292 319 292 260 q 285 425 293 379 q 258 494 278 471 q 199 503 238 517 q 165 475 179 496 q 142 429 151 454 q 126 378 132 404 q 119 336 121 353 q 106 314 119 321 q 103 244 104 282 q 103 169 103 206 q 106 101 104 132 q 113 53 108 69 q 125 43 119 50 q 131 26 131 36 q 122 8 129 15 q 103 0 114 0 q 38 21 63 -3 q 7 76 14 44 q 0 140 1 103 q -1 218 -1 178 q 0 298 -1 258 q 1 367 1 338 q 6 512 3 439 q 9 645 8 585 q 10 747 10 706 q 8 799 10 789 q -10 825 -10 806 q -1 844 -10 836 q 18 851 7 851 z "},"k":{"ha":475,"x_min":-7,"x_max":467,"o":"m 383 429 q 322 420 356 443 q 257 360 288 397 q 203 284 226 324 q 175 224 181 244 q 253 200 224 225 q 303 140 283 175 q 339 69 324 106 q 375 13 354 33 q 403 -8 389 -3 q 428 -14 417 -12 q 450 -15 440 -15 q 467 -18 460 -15 q 358 -29 400 -36 q 290 -1 317 -22 q 248 49 264 19 q 217 106 232 79 q 185 153 203 133 q 135 174 167 172 q 107 186 114 174 q 108 138 107 165 q 109 83 108 110 q 111 35 110 57 q 115 4 113 14 q 133 -21 133 -3 q 125 -40 133 -32 q 106 -47 117 -49 q 41 -27 65 -50 q 10 28 17 -4 q 3 99 4 54 q 1 193 1 144 q 3 288 1 242 q 6 364 4 335 q 9 510 7 436 q 12 647 11 585 q 13 751 13 708 q 11 804 13 794 q -7 831 -7 811 q 1 849 -7 842 q 21 857 10 857 q 85 837 61 860 q 117 781 110 814 q 118 728 118 769 q 117 629 118 688 q 114 501 117 571 q 110 364 111 432 q 108 298 110 340 q 107 210 107 256 q 135 272 117 233 q 179 355 154 311 q 234 440 204 399 q 295 510 264 482 q 359 546 326 538 q 421 532 392 554 q 425 506 429 524 q 412 470 421 488 q 394 440 403 453 q 383 429 385 428 z "},"e":{"ha":350,"x_min":-3,"x_max":283,"o":"m 100 281 q 140 323 113 292 q 191 390 167 354 q 226 457 215 425 q 218 503 238 489 q 168 493 189 513 q 133 439 147 474 q 112 361 119 404 q 100 281 104 318 m 96 215 q 98 174 96 200 q 106 121 100 147 q 124 75 113 94 q 153 56 135 56 q 192 75 178 56 q 213 121 206 94 q 222 174 219 147 q 224 215 224 200 q 233 234 225 226 q 251 242 240 242 q 271 233 263 240 q 278 214 279 225 q 271 140 276 176 q 251 74 265 103 q 214 25 238 44 q 156 1 190 6 q 83 15 118 -3 q 29 72 49 32 q 6 151 14 101 q -2 256 -3 200 q 9 369 -1 313 q 42 472 19 426 q 101 543 65 517 q 189 565 138 569 q 231 554 208 564 q 268 524 254 544 q 276 467 283 501 q 246 390 269 432 q 183 303 222 349 q 96 215 144 258 z "},"c":{"ha":346,"x_min":-1,"x_max":279,"o":"m 211 440 q 211 489 226 468 q 175 507 196 510 q 149 484 161 504 q 128 431 138 464 q 113 358 119 399 q 103 276 107 318 q 99 188 99 231 q 105 113 99 144 q 125 65 111 81 q 161 60 139 50 q 190 87 178 68 q 208 128 201 106 q 219 174 215 151 q 224 213 224 197 q 233 232 225 224 q 251 239 240 240 q 271 231 263 239 q 278 211 279 222 q 269 143 276 179 q 247 76 263 107 q 208 24 232 46 q 147 0 183 3 q 68 20 99 -3 q 22 83 38 43 q 3 173 7 122 q 3 276 -1 224 q 19 394 7 338 q 56 490 32 450 q 117 547 81 529 q 207 547 154 564 q 245 524 231 540 q 266 488 260 508 q 269 447 272 468 q 254 407 267 425 q 236 397 247 399 q 215 403 225 396 q 206 421 207 410 q 211 440 204 432 z "},"b":{"ha":539,"x_min":-6,"x_max":471,"o":"m 114 253 q 125 189 117 222 q 148 128 133 156 q 184 81 163 100 q 235 57 206 61 q 298 85 271 51 q 340 172 325 119 q 356 287 354 225 q 347 401 358 349 q 308 485 335 453 q 240 508 282 517 q 184 476 206 501 q 150 418 163 451 q 131 349 138 385 q 119 283 124 313 q 110 267 118 275 q 114 253 114 260 m 21 856 q 86 835 61 858 q 118 779 111 813 q 119 685 121 760 q 113 465 117 610 q 163 529 132 503 q 240 564 193 556 q 342 553 299 574 q 414 492 385 532 q 457 399 443 453 q 470 290 471 346 q 455 179 469 233 q 411 83 440 125 q 338 19 382 42 q 238 1 294 -4 q 165 28 196 6 q 111 86 133 51 q 115 40 113 60 q 119 8 117 19 q 136 -18 136 1 q 128 -37 136 -29 q 110 -44 121 -44 q 44 -24 69 -47 q 13 32 19 -1 q 6 106 8 58 q 4 207 4 154 q 5 309 4 260 q 6 388 6 358 q 10 529 7 458 q 13 658 13 600 q 14 755 14 715 q 11 804 14 794 q -1 814 4 807 q -6 829 -6 821 q 2 848 -6 840 q 21 856 10 856 z "},"t":{"ha":172,"x_min":-106,"x_max":233,"o":"m -79 751 l 8 751 q 7 794 8 790 q -11 821 -11 801 q -3 840 -11 832 q 17 847 6 847 q 81 827 57 850 q 113 771 106 804 q 113 763 113 768 q 114 751 114 758 l 206 751 q 225 744 217 751 q 233 725 233 736 q 225 706 233 714 q 206 697 217 697 l 114 697 q 113 599 114 656 q 110 482 111 542 q 107 367 108 422 q 104 272 106 311 q 103 217 104 256 q 103 138 103 179 q 104 58 103 96 q 110 7 106 21 q 128 -18 128 1 q 101 -46 128 -43 q 35 -27 61 -49 q 3 28 10 -6 q -2 71 0 40 q -4 138 -4 101 q -3 213 -4 175 q -1 276 -3 250 q 1 369 0 315 q 4 482 3 424 q 7 597 6 540 q 8 697 8 653 l -79 697 q -98 706 -90 697 q -106 725 -106 714 q -98 744 -106 736 q -79 751 -90 751 z "},"u":{"ha":463,"x_min":-14,"x_max":417,"o":"m 306 615 q 370 595 346 618 q 401 539 394 572 q 403 503 403 531 q 401 434 403 475 q 397 343 400 393 q 393 240 394 293 q 392 193 393 224 q 392 129 392 163 q 393 66 392 96 q 399 22 394 36 q 411 13 406 19 q 417 -3 417 6 q 409 -22 417 -14 q 390 -31 401 -31 q 324 -12 350 -35 q 292 42 299 10 l 288 75 q 249 28 272 47 q 193 3 225 8 q 79 16 118 -10 q 22 83 40 42 q 2 174 4 125 q 0 258 0 222 q 2 324 0 278 q 6 419 4 369 q 8 513 8 469 q 4 572 8 557 q -14 599 -14 579 q 13 625 -14 625 q 78 605 53 628 q 111 549 104 582 q 114 472 117 522 q 107 363 111 422 q 101 244 103 304 q 106 138 99 183 q 132 69 113 93 q 190 58 151 44 q 224 84 210 64 q 249 129 239 104 q 264 179 258 154 q 271 221 269 204 q 288 244 272 238 l 288 246 q 291 356 289 303 q 294 453 293 410 q 297 526 296 497 q 296 563 297 556 q 283 572 289 565 q 278 589 278 579 q 287 608 279 600 q 306 615 294 615 z "},"a":{"ha":529,"x_min":-6,"x_max":483,"o":"m 371 617 q 435 597 411 619 q 467 540 460 574 q 468 504 468 532 q 467 435 468 476 q 463 345 465 394 q 460 243 461 296 q 458 201 460 226 q 457 147 457 175 q 458 92 457 118 q 464 53 460 67 q 482 28 482 49 q 475 9 483 17 q 456 0 467 1 q 390 19 415 -3 q 357 74 364 40 l 353 104 q 301 36 333 64 q 219 1 268 8 q 90 32 140 -8 q 17 138 40 72 q -3 282 -6 204 q 28 426 0 360 q 110 532 57 492 q 239 563 163 572 q 310 534 279 557 q 361 476 340 511 q 363 535 363 513 q 361 564 364 557 q 349 574 354 567 q 344 590 343 582 q 352 609 344 601 q 371 617 360 617 m 354 308 q 345 372 353 339 q 324 434 338 406 q 290 483 311 463 q 240 508 269 504 q 176 481 203 514 q 132 397 149 449 q 111 282 115 344 q 117 167 107 219 q 153 83 128 115 q 219 57 178 50 q 276 87 254 63 q 313 144 299 111 q 335 213 328 176 q 349 278 343 249 q 356 290 351 288 l 356 301 q 354 308 354 304 z "},"i":{"ha":176,"x_min":-7,"x_max":132,"o":"m 21 621 q 85 601 61 624 q 115 544 108 578 q 117 509 117 536 q 115 444 117 482 q 112 357 114 406 q 108 256 110 308 q 107 210 108 239 q 106 152 106 182 q 107 95 106 122 q 113 54 108 68 q 131 29 131 50 q 124 10 132 18 q 104 1 115 3 q 39 20 64 -1 q 6 75 14 42 q -1 153 0 101 q 3 260 -1 206 q 6 369 4 317 q 10 464 8 422 q 11 533 11 506 q 10 568 11 561 q -7 594 -7 575 q 1 613 -7 606 q 21 621 10 621 m 15 729 q 47 721 32 731 q 73 696 61 711 q 92 661 85 681 q 101 622 99 642 q 83 632 94 626 q 58 641 71 638 q 33 646 44 644 q 15 644 21 647 q 10 649 11 643 q 8 662 8 654 q 7 677 7 669 q 7 686 7 685 q -7 707 -7 693 q 15 729 -7 729 z "},"m":{"ha":754,"x_min":-6,"x_max":703,"o":"m 22 615 q 87 594 63 618 q 118 539 111 571 q 119 514 119 535 q 155 553 135 538 q 203 574 175 568 q 277 576 246 582 q 330 556 308 571 q 364 519 351 542 q 383 471 376 497 q 424 536 399 507 q 490 574 450 565 q 573 575 539 583 q 628 547 607 567 q 661 499 650 528 q 678 439 672 469 q 684 378 683 408 q 686 324 685 347 q 685 258 686 304 q 681 163 683 213 q 679 69 679 113 q 683 10 679 25 q 703 -15 700 3 q 695 -35 703 -26 q 676 -43 688 -43 q 610 -25 636 -47 q 578 29 585 -3 q 573 106 571 56 q 578 215 575 156 q 583 335 582 275 q 578 440 585 394 q 551 509 571 486 q 493 518 532 532 q 459 490 474 511 q 435 444 444 469 q 420 394 425 419 q 414 351 415 368 q 399 328 411 335 l 399 324 q 397 258 399 304 q 394 163 396 213 q 392 69 392 113 q 396 10 392 25 q 415 -15 415 3 q 408 -35 415 -26 q 389 -43 400 -43 q 323 -25 349 -47 q 290 29 297 -3 q 285 106 283 56 q 291 215 288 156 q 296 335 294 275 q 290 440 297 394 q 264 509 283 486 q 206 518 244 532 q 172 490 186 511 q 147 444 157 469 q 133 394 138 419 q 126 351 128 368 q 114 329 126 339 q 112 286 113 308 q 111 240 111 264 q 109 198 110 224 q 108 144 108 172 q 110 90 108 115 q 115 51 111 65 q 128 42 122 49 q 133 26 133 35 q 126 7 133 15 q 107 -1 118 -1 q 41 17 67 -6 q 8 71 15 39 q 1 144 1 97 q 6 246 1 192 q 9 356 7 303 q 13 453 11 410 q 14 526 14 497 q 13 563 14 556 q 0 572 6 565 q -4 588 -6 579 q 3 607 -4 599 q 22 615 11 615 z "},"f":{"ha":172,"x_min":-117,"x_max":222,"o":"m 96 838 q 115 830 107 838 q 124 811 124 822 q 118 794 124 801 q 106 785 113 788 q 103 741 104 782 q 103 633 103 700 l 194 633 q 214 626 206 633 q 222 607 222 618 q 214 588 222 596 q 194 579 206 579 l 101 579 q 101 427 101 510 q 100 258 100 344 q 100 88 100 172 q 100 -67 100 4 q 101 -193 100 -139 q 101 -274 101 -247 q 103 -331 103 -301 q 103 -390 104 -361 q 101 -442 103 -418 q 96 -478 99 -465 q 63 -533 89 -511 q -3 -551 38 -554 q -22 -542 -14 -550 q -29 -524 -31 -535 q -11 -499 -29 -504 q -5 -454 -7 -485 q -3 -390 -3 -424 q -3 -326 -3 -357 q -4 -279 -4 -296 q -5 -199 -4 -254 q -6 -72 -6 -144 q -6 87 -6 1 q -6 259 -6 172 q -5 428 -6 346 q -4 579 -4 511 l -90 579 q -109 588 -101 579 q -117 607 -117 596 q -109 626 -117 618 q -90 633 -101 633 l -3 633 q -2 723 -3 689 q 0 761 -1 757 q 31 817 7 794 q 96 838 56 840 z "},"j":{"ha":179,"x_min":-299,"x_max":243,"o":"m -64 -471 q -156 -461 -112 -478 q -231 -412 -199 -444 q -281 -336 -264 -381 q -295 -244 -299 -292 q -264 -148 -292 -196 q -178 -60 -236 -100 q -94 -19 -142 -35 q 4 -1 -46 -4 q 4 85 4 43 q 3 165 4 128 q 2 247 3 194 q 2 354 1 299 q 5 460 3 410 q 13 538 7 511 q 44 592 19 569 q 110 613 69 615 q 128 606 121 614 q 136 586 136 597 q 119 561 136 568 q 113 517 115 547 q 110 447 111 486 q 108 365 108 408 q 107 283 107 322 q 108 213 107 244 q 108 165 108 181 q 109 82 108 126 q 111 -7 110 38 q 189 -32 154 -15 l 229 -57 q 241 -74 239 -64 q 236 -94 243 -85 q 219 -106 229 -104 q 199 -101 208 -108 q 154 -76 174 -86 q 111 -61 135 -67 l 111 -196 q 104 -290 111 -243 q 78 -374 97 -336 q 26 -437 60 -411 q -64 -471 -8 -464 m 6 -54 q -120 -90 -61 -61 q -214 -175 -179 -118 q -240 -254 -237 -214 q -228 -329 -243 -294 q -183 -388 -212 -364 q -111 -418 -153 -412 q -46 -390 -69 -414 q -11 -333 -22 -367 q 3 -262 0 -300 q 6 -192 6 -224 l 6 -54 m 125 726 q 147 704 147 726 q 133 683 147 688 q 133 674 133 681 q 133 659 133 667 q 131 646 132 651 q 125 642 129 640 q 108 643 119 644 q 83 638 96 642 q 58 629 69 635 q 39 619 46 624 q 48 658 40 639 q 67 693 56 678 q 93 718 78 708 q 125 726 108 728 z "},"l":{"ha":183,"x_min":-6,"x_max":135,"o":"m 22 854 q 87 834 63 857 q 118 778 111 811 q 119 726 119 767 q 119 627 119 685 q 115 501 118 569 q 111 364 113 432 q 110 288 111 340 q 108 179 108 236 q 110 71 108 122 q 117 -1 111 19 q 129 -11 124 -4 q 135 -28 135 -18 q 126 -47 135 -39 q 107 -54 118 -54 q 42 -34 67 -57 q 11 22 18 -11 q 4 94 6 49 q 3 190 3 140 q 4 288 3 240 q 6 364 6 335 q 10 509 7 435 q 13 645 13 583 q 14 750 14 707 q 13 803 14 793 q -6 828 -6 810 q 3 847 -6 839 q 22 854 11 856 z "},"d":{"ha":536,"x_min":-3,"x_max":493,"o":"m 378 851 q 442 831 418 854 q 474 775 467 808 q 476 726 476 764 q 475 635 476 689 q 471 516 474 582 q 467 382 468 450 q 466 337 467 367 q 465 269 465 307 q 465 191 465 232 q 467 113 465 150 q 469 47 468 76 q 475 3 471 17 q 488 -7 483 0 q 493 -22 493 -14 q 485 -41 493 -33 q 465 -49 476 -49 q 401 -28 425 -51 q 369 28 376 -6 q 365 67 367 43 q 361 118 363 90 q 308 42 342 74 q 222 3 275 10 q 93 33 143 -7 q 20 140 43 74 q 0 283 -3 206 q 31 427 3 361 q 113 533 60 493 q 242 564 165 574 q 313 535 282 558 q 364 476 343 513 q 370 706 368 628 q 368 799 372 783 q 356 808 361 801 q 350 825 350 815 q 358 844 350 836 q 378 851 367 851 m 361 296 q 357 310 357 301 q 348 374 356 340 q 327 435 340 407 q 293 484 314 464 q 243 510 272 504 q 178 483 206 515 q 135 397 151 450 q 114 283 118 344 q 120 168 110 221 q 156 83 131 115 q 222 57 181 50 q 279 88 257 63 q 316 145 301 113 q 338 214 331 178 q 351 279 346 250 q 361 294 354 289 l 361 296 z "},"y":{"ha":463,"x_min":-24,"x_max":529,"o":"m 222 -468 q 131 -458 174 -475 q 56 -410 88 -442 q 6 -333 24 -378 q -9 -241 -12 -289 q 22 -145 -6 -193 q 108 -57 50 -97 q 292 1 186 -6 q 290 40 290 21 q 290 76 290 58 q 251 28 275 49 q 196 3 228 8 q 113 4 146 -6 q 58 34 79 14 q 25 83 36 54 q 8 144 14 113 q 2 206 3 175 q 1 260 1 236 q 2 319 1 279 q 3 404 3 360 q 1 487 3 449 q -4 540 0 525 q -22 567 -22 547 q -15 585 -24 578 q 4 593 -7 593 q 69 573 44 596 q 101 517 94 550 q 106 442 107 490 q 101 340 104 394 q 98 228 99 285 q 106 130 97 172 q 134 66 114 88 q 193 58 154 44 q 227 85 213 65 q 251 130 242 106 q 267 179 261 154 q 274 221 272 204 q 278 235 274 229 q 288 243 282 240 q 288 310 288 275 q 290 378 289 344 q 292 440 290 411 q 299 488 294 468 q 331 544 306 521 q 396 564 356 567 q 415 557 407 565 q 424 538 424 549 q 406 513 424 518 q 397 444 400 492 q 394 342 394 396 q 394 240 393 289 q 394 168 394 192 l 397 -4 q 475 -29 440 -12 l 515 -54 q 527 -72 525 -61 q 522 -92 529 -82 q 505 -103 515 -101 q 485 -99 494 -106 q 440 -74 460 -83 q 397 -58 421 -64 l 397 -193 q 390 -287 397 -240 q 365 -371 383 -333 q 312 -435 346 -408 q 222 -468 278 -461 m 292 -51 q 167 -87 226 -58 q 72 -172 107 -115 q 47 -251 49 -211 q 59 -326 44 -292 q 104 -385 74 -361 q 175 -415 135 -410 q 240 -388 217 -412 q 276 -331 264 -364 q 290 -260 288 -297 q 292 -190 292 -222 l 292 -51 z "},"n":{"ha":478,"x_min":-6,"x_max":425,"o":"m 22 614 q 87 594 63 617 q 118 538 111 571 q 119 522 119 533 q 119 496 119 511 q 158 544 135 524 q 214 572 181 565 q 297 574 263 582 q 352 546 331 565 q 385 498 374 526 q 401 438 396 469 q 408 376 407 407 q 408 322 408 346 q 407 257 408 303 q 403 161 406 211 q 402 67 401 111 q 407 8 403 24 q 425 -17 425 3 q 417 -36 425 -28 q 399 -44 410 -44 q 333 -26 358 -49 q 300 28 307 -4 q 297 104 294 54 q 302 214 299 154 q 307 334 306 274 q 301 440 308 394 q 274 508 293 485 q 215 517 254 532 q 182 489 196 510 q 158 443 168 468 q 143 393 149 418 q 136 351 138 368 q 113 325 136 328 q 112 283 113 304 q 110 240 111 263 q 108 197 110 224 q 107 143 107 171 q 108 90 107 115 q 114 50 110 64 q 133 25 133 44 q 107 -3 133 0 q 41 16 67 -6 q 8 71 15 38 q 1 144 1 97 q 4 244 1 190 q 8 356 6 301 q 11 453 10 410 q 13 525 13 496 q 13 561 14 554 q -6 588 -6 568 q 3 606 -6 599 q 22 614 11 614 z "},"":{"ha":1231,"x_min":-6,"x_max":2149,"o":"m 371 617 q 435 597 411 619 q 467 540 460 574 q 464 485 467 536 q 459 363 461 435 q 458 212 457 292 q 467 71 458 132 q 503 -58 476 -3 q 578 -153 531 -114 q 695 -215 625 -193 q 861 -243 765 -237 q 1157 -209 1010 -251 q 1438 -87 1304 -167 q 1688 104 1572 -7 q 1892 347 1804 215 q 2032 623 1979 478 q 2093 915 2085 768 l 2093 947 q 2102 967 2094 958 q 2121 974 2110 975 q 2140 965 2132 974 q 2147 946 2149 957 l 2147 913 q 2083 606 2139 758 q 1937 317 2028 454 q 1724 65 1846 181 q 1463 -135 1603 -51 q 1168 -262 1322 -218 q 858 -297 1014 -306 q 655 -261 742 -292 q 506 -178 568 -231 q 407 -55 444 -126 q 353 104 369 17 q 301 36 333 64 q 219 1 268 8 q 90 32 140 -8 q 17 138 40 72 q -3 282 -6 204 q 28 426 0 360 q 110 532 57 492 q 239 563 163 572 q 310 534 279 557 q 361 476 340 511 q 363 535 363 513 q 361 564 364 557 q 349 574 354 567 q 344 590 343 582 q 352 609 344 601 q 371 617 360 617 m 354 308 q 345 372 353 339 q 324 434 338 406 q 290 483 311 463 q 240 508 269 504 q 176 481 203 514 q 132 397 149 449 q 111 282 115 344 q 117 167 107 219 q 153 83 128 115 q 219 57 178 50 q 276 87 254 63 q 313 144 299 111 q 335 213 328 176 q 349 278 343 249 q 356 290 351 288 l 356 301 q 354 308 354 304 z "},"à":{"ha":529,"x_min":-6,"x_max":483,"o":"m 371 617 q 435 597 411 619 q 467 540 460 574 q 468 504 468 532 q 467 435 468 476 q 463 345 465 394 q 460 243 461 296 q 458 201 460 226 q 457 147 457 175 q 458 92 457 118 q 464 53 460 67 q 482 28 482 49 q 475 9 483 17 q 456 0 467 1 q 390 19 415 -3 q 357 74 364 40 l 353 104 q 301 36 333 64 q 219 1 268 8 q 90 32 140 -8 q 17 138 40 72 q -3 282 -6 204 q 28 426 0 360 q 110 532 57 492 q 239 563 163 572 q 310 534 279 557 q 361 476 340 511 q 363 535 363 513 q 361 564 364 557 q 349 574 354 567 q 344 590 343 582 q 352 609 344 601 q 371 617 360 617 m 354 308 q 345 372 353 339 q 324 434 338 406 q 290 483 311 463 q 240 508 269 504 q 176 481 203 514 q 132 397 149 449 q 111 282 115 344 q 117 167 107 219 q 153 83 128 115 q 219 57 178 50 q 276 87 254 63 q 313 144 299 111 q 335 213 328 176 q 349 278 343 249 q 356 290 351 288 l 356 301 q 354 308 354 304 m 265 657 l 161 768 q 153 788 151 778 q 163 806 156 799 q 182 815 171 814 q 203 807 193 817 l 306 696 q 314 676 315 686 q 305 658 313 665 q 286 650 297 651 q 265 657 275 649 z "},"Á":{"ha":794,"x_min":-3,"x_max":711,"o":"m 635 -69 q 565 -53 593 -75 q 528 3 538 -31 q 519 85 524 18 q 508 244 514 153 l 186 244 q 140 118 165 174 q 86 32 115 63 q 74 21 79 25 q 65 13 69 17 q 54 7 60 10 q 40 -1 49 4 q 18 -3 29 -7 q 3 13 7 1 q 1 34 -3 24 q 17 49 6 44 q 40 66 32 60 q 60 88 49 72 q 96 154 79 114 q 128 244 113 194 l 46 244 q 25 253 33 244 q 17 272 17 261 q 25 292 17 283 q 46 300 33 300 l 143 300 q 171 415 154 343 q 208 571 188 488 q 254 739 229 654 q 307 892 279 824 q 365 1003 335 961 q 428 1044 396 1046 q 499 997 469 1043 q 548 881 528 951 q 581 725 568 811 q 600 557 593 639 q 610 406 607 475 q 615 301 613 338 l 683 301 q 703 293 694 301 q 711 272 711 285 q 703 253 711 261 q 683 244 694 244 l 618 244 q 624 150 621 194 q 631 71 628 106 q 635 13 633 36 q 639 -15 638 -10 q 660 -40 660 -19 q 653 -60 661 -51 q 635 -69 646 -69 m 506 301 q 502 382 504 324 q 497 515 500 440 q 488 672 493 590 q 472 822 482 753 q 448 939 463 892 q 413 992 433 986 q 373 939 393 983 q 333 828 353 894 q 293 685 313 763 q 256 533 274 607 q 225 396 239 458 q 201 300 211 333 l 506 301 m 443 1240 q 464 1247 453 1249 q 483 1239 475 1246 q 492 1222 490 1232 q 483 1201 493 1211 l 381 1090 q 360 1082 371 1081 q 341 1091 349 1083 q 331 1109 333 1099 q 339 1129 329 1119 l 443 1240 z "},"À":{"ha":794,"x_min":-3,"x_max":711,"o":"m 635 -69 q 565 -53 593 -75 q 528 3 538 -31 q 519 85 524 18 q 508 244 514 153 l 186 244 q 140 118 165 174 q 86 32 115 63 q 74 21 79 25 q 65 13 69 17 q 54 7 60 10 q 40 -1 49 4 q 18 -3 29 -7 q 3 13 7 1 q 1 34 -3 24 q 17 49 6 44 q 40 66 32 60 q 60 88 49 72 q 96 154 79 114 q 128 244 113 194 l 46 244 q 25 253 33 244 q 17 272 17 261 q 25 292 17 283 q 46 300 33 300 l 143 300 q 171 415 154 343 q 208 571 188 488 q 254 739 229 654 q 307 892 279 824 q 365 1003 335 961 q 428 1044 396 1046 q 499 997 469 1043 q 548 881 528 951 q 581 725 568 811 q 600 557 593 639 q 610 406 607 475 q 615 301 613 338 l 683 301 q 703 293 694 301 q 711 272 711 285 q 703 253 711 261 q 683 244 694 244 l 618 244 q 624 150 621 194 q 631 71 628 106 q 635 13 633 36 q 639 -15 638 -10 q 660 -40 660 -19 q 653 -60 661 -51 q 635 -69 646 -69 m 506 301 q 502 382 504 324 q 497 515 500 440 q 488 672 493 590 q 472 822 482 753 q 448 939 463 892 q 413 992 433 986 q 373 939 393 983 q 333 828 353 894 q 293 685 313 763 q 256 533 274 607 q 225 396 239 458 q 201 300 211 333 l 506 301 m 451 1075 l 347 1186 q 340 1206 338 1196 q 349 1224 342 1217 q 368 1233 357 1232 q 389 1225 379 1235 l 492 1114 q 500 1094 501 1104 q 491 1076 499 1083 q 472 1068 483 1069 q 451 1075 461 1067 z "},"Â":{"ha":794,"x_min":-3,"x_max":711,"o":"m 635 -69 q 565 -53 593 -75 q 528 3 538 -31 q 519 85 524 18 q 508 244 514 153 l 186 244 q 140 118 165 174 q 86 32 115 63 q 74 21 79 25 q 65 13 69 17 q 54 7 60 10 q 40 -1 49 4 q 18 -3 29 -7 q 3 13 7 1 q 1 34 -3 24 q 17 49 6 44 q 40 66 32 60 q 60 88 49 72 q 96 154 79 114 q 128 244 113 194 l 46 244 q 25 253 33 244 q 17 272 17 261 q 25 292 17 283 q 46 300 33 300 l 143 300 q 171 415 154 343 q 208 571 188 488 q 254 739 229 654 q 307 892 279 824 q 365 1003 335 961 q 428 1044 396 1046 q 499 997 469 1043 q 548 881 528 951 q 581 725 568 811 q 600 557 593 639 q 610 406 607 475 q 615 301 613 338 l 683 301 q 703 293 694 301 q 711 272 711 285 q 703 253 711 261 q 683 244 694 244 l 618 244 q 624 150 621 194 q 631 71 628 106 q 635 13 633 36 q 639 -15 638 -10 q 660 -40 660 -19 q 653 -60 661 -51 q 635 -69 646 -69 m 506 301 q 502 382 504 324 q 497 515 500 440 q 488 672 493 590 q 472 822 482 753 q 448 939 463 892 q 413 992 433 986 q 373 939 393 983 q 333 828 353 894 q 293 685 313 763 q 256 533 274 607 q 225 396 239 458 q 201 300 211 333 l 506 301 m 293 1114 q 325 1172 307 1140 q 367 1224 343 1203 q 420 1249 392 1246 q 483 1224 449 1253 q 527 1170 510 1200 q 561 1110 544 1140 q 563 1088 567 1099 q 549 1072 560 1078 q 526 1070 538 1067 q 510 1085 515 1074 q 463 1163 482 1136 q 426 1192 443 1190 q 390 1167 408 1193 q 343 1090 371 1142 q 328 1075 339 1079 q 307 1076 318 1071 q 292 1092 296 1082 q 293 1114 288 1103 z "},"Î":{"ha":288,"x_min":3,"x_max":282,"o":"m 100 1079 q 168 1058 143 1082 q 200 1000 193 1035 q 202 951 201 992 q 203 851 203 911 q 201 719 203 792 q 199 572 200 646 q 196 432 197 499 q 193 318 194 365 q 192 258 193 294 q 190 185 190 222 q 192 112 190 147 q 199 54 193 76 q 213 44 207 51 q 217 28 218 38 q 208 8 217 17 q 189 0 200 0 q 122 21 147 -3 q 89 79 96 44 q 80 195 78 133 q 85 318 82 257 q 88 438 86 368 q 90 584 89 507 q 92 737 90 661 q 93 874 93 813 q 92 978 93 936 q 90 1025 92 1019 q 72 1051 72 1032 q 81 1071 72 1063 q 100 1079 89 1079 m 8 1149 q 40 1206 22 1175 q 83 1259 58 1238 q 135 1284 107 1281 q 199 1258 164 1288 q 242 1205 225 1235 q 276 1144 260 1175 q 278 1123 282 1133 q 264 1107 275 1113 q 242 1105 253 1101 q 225 1119 231 1108 q 178 1198 197 1171 q 141 1226 158 1225 q 105 1202 124 1228 q 58 1125 86 1176 q 44 1110 54 1114 q 22 1111 33 1106 q 7 1127 11 1117 q 8 1149 3 1138 z "},"Ã":{"ha":794,"x_min":-3,"x_max":711,"o":"m 635 -69 q 565 -53 593 -75 q 528 3 538 -31 q 519 85 524 18 q 508 244 514 153 l 186 244 q 140 118 165 174 q 86 32 115 63 q 74 21 79 25 q 65 13 69 17 q 54 7 60 10 q 40 -1 49 4 q 18 -3 29 -7 q 3 13 7 1 q 1 34 -3 24 q 17 49 6 44 q 40 66 32 60 q 60 88 49 72 q 96 154 79 114 q 128 244 113 194 l 46 244 q 25 253 33 244 q 17 272 17 261 q 25 292 17 283 q 46 300 33 300 l 143 300 q 171 415 154 343 q 208 571 188 488 q 254 739 229 654 q 307 892 279 824 q 365 1003 335 961 q 428 1044 396 1046 q 499 997 469 1043 q 548 881 528 951 q 581 725 568 811 q 600 557 593 639 q 610 406 607 475 q 615 301 613 338 l 683 301 q 703 293 694 301 q 711 272 711 285 q 703 253 711 261 q 683 244 694 244 l 618 244 q 624 150 621 194 q 631 71 628 106 q 635 13 633 36 q 639 -15 638 -10 q 660 -40 660 -19 q 653 -60 661 -51 q 635 -69 646 -69 m 506 301 q 502 382 504 324 q 497 515 500 440 q 488 672 493 590 q 472 822 482 753 q 448 939 463 892 q 413 992 433 986 q 373 939 393 983 q 333 828 353 894 q 293 685 313 763 q 256 533 274 607 q 225 396 239 458 q 201 300 211 333 l 506 301 m 214 1124 q 272 1161 246 1151 q 339 1160 297 1171 q 388 1141 363 1154 q 440 1117 414 1128 q 492 1104 467 1107 q 539 1115 517 1101 l 557 1129 q 581 1129 568 1142 q 581 1106 593 1118 l 557 1086 q 510 1069 533 1071 q 463 1074 486 1068 q 416 1092 439 1081 q 371 1113 393 1103 q 301 1131 328 1132 q 238 1100 275 1131 q 214 1100 226 1088 q 214 1124 201 1113 z "},"Ä":{"ha":794,"x_min":-3,"x_max":711,"o":"m 635 -69 q 565 -53 593 -75 q 528 3 538 -31 q 519 85 524 18 q 508 244 514 153 l 186 244 q 140 118 165 174 q 86 32 115 63 q 74 21 79 25 q 65 13 69 17 q 54 7 60 10 q 40 -1 49 4 q 18 -3 29 -7 q 3 13 7 1 q 1 34 -3 24 q 17 49 6 44 q 40 66 32 60 q 60 88 49 72 q 96 154 79 114 q 128 244 113 194 l 46 244 q 25 253 33 244 q 17 272 17 261 q 25 292 17 283 q 46 300 33 300 l 143 300 q 171 415 154 343 q 208 571 188 488 q 254 739 229 654 q 307 892 279 824 q 365 1003 335 961 q 428 1044 396 1046 q 499 997 469 1043 q 548 881 528 951 q 581 725 568 811 q 600 557 593 639 q 610 406 607 475 q 615 301 613 338 l 683 301 q 703 293 694 301 q 711 272 711 285 q 703 253 711 261 q 683 244 694 244 l 618 244 q 624 150 621 194 q 631 71 628 106 q 635 13 633 36 q 639 -15 638 -10 q 660 -40 660 -19 q 653 -60 661 -51 q 635 -69 646 -69 m 506 301 q 502 382 504 324 q 497 515 500 440 q 488 672 493 590 q 472 822 482 753 q 448 939 463 892 q 413 992 433 986 q 373 939 393 983 q 333 828 353 894 q 293 685 313 763 q 256 533 274 607 q 225 396 239 458 q 201 300 211 333 l 506 301 m 374 1175 q 374 1155 374 1160 q 375 1147 375 1150 q 374 1138 375 1143 q 374 1118 374 1132 q 362 1098 372 1106 q 340 1092 351 1090 q 319 1102 329 1093 q 311 1122 310 1111 q 312 1140 311 1135 q 313 1147 313 1144 q 313 1156 313 1150 q 313 1175 313 1161 q 322 1194 313 1186 q 343 1203 332 1203 q 364 1194 354 1203 q 374 1175 374 1186 m 538 1175 q 538 1155 538 1160 q 539 1147 539 1150 q 538 1138 539 1143 q 538 1118 538 1132 q 526 1098 536 1106 q 504 1092 515 1090 q 483 1102 493 1093 q 475 1122 474 1111 q 476 1140 475 1135 q 476 1147 476 1144 q 476 1156 476 1150 q 476 1175 476 1161 q 486 1194 476 1186 q 507 1203 496 1203 q 528 1194 518 1203 q 538 1175 538 1186 z "},"Å":{"ha":794,"x_min":-3,"x_max":711,"o":"m 635 -69 q 565 -53 593 -75 q 528 3 538 -31 q 519 85 524 18 q 508 244 514 153 l 186 244 q 140 118 165 174 q 86 32 115 63 q 74 21 79 25 q 65 13 69 17 q 54 7 60 10 q 40 -1 49 4 q 18 -3 29 -7 q 3 13 7 1 q 1 34 -3 24 q 17 49 6 44 q 40 66 32 60 q 60 88 49 72 q 96 154 79 114 q 128 244 113 194 l 46 244 q 25 253 33 244 q 17 272 17 261 q 25 292 17 283 q 46 300 33 300 l 143 300 q 171 415 154 343 q 208 571 188 488 q 254 739 229 654 q 307 892 279 824 q 365 1003 335 961 q 428 1044 396 1046 q 499 997 469 1043 q 548 881 528 951 q 581 725 568 811 q 600 557 593 639 q 610 406 607 475 q 615 301 613 338 l 683 301 q 703 293 694 301 q 711 272 711 285 q 703 253 711 261 q 683 244 694 244 l 618 244 q 624 150 621 194 q 631 71 628 106 q 635 13 633 36 q 639 -15 638 -10 q 660 -40 660 -19 q 653 -60 661 -51 q 635 -69 646 -69 m 506 301 q 502 382 504 324 q 497 515 500 440 q 488 672 493 590 q 472 822 482 753 q 448 939 463 892 q 413 992 433 986 q 373 939 393 983 q 333 828 353 894 q 293 685 313 763 q 256 533 274 607 q 225 396 239 458 q 201 300 211 333 l 506 301 m 414 1079 l 411 1079 q 408 1081 411 1081 q 368 1108 379 1086 q 361 1156 357 1131 q 382 1201 365 1181 q 424 1225 399 1222 q 476 1207 460 1229 q 490 1156 492 1185 q 468 1103 488 1128 q 414 1079 449 1079 m 415 1099 q 450 1116 438 1097 q 464 1157 463 1135 q 456 1195 465 1179 q 424 1206 446 1211 q 399 1185 408 1201 q 386 1151 389 1169 q 390 1117 383 1133 q 415 1099 397 1101 z "},"Æ":{"ha":1047,"x_min":8,"x_max":993,"o":"m 965 1011 q 985 1003 976 1011 q 993 983 993 994 q 985 964 993 972 q 965 956 976 956 q 780 956 872 956 q 594 954 688 956 q 594 874 594 922 q 594 769 594 826 q 592 651 593 713 q 590 529 592 589 l 786 529 q 806 521 797 529 q 814 501 814 513 q 806 481 814 489 q 786 472 797 472 l 589 472 l 585 292 q 584 248 585 275 q 583 188 583 221 q 582 122 582 156 q 582 57 582 88 l 965 57 q 985 49 976 57 q 993 29 993 40 q 985 8 993 17 q 965 0 976 0 l 586 0 q 588 -19 586 -11 q 590 -35 589 -28 q 604 -44 599 -37 q 608 -61 610 -51 q 600 -81 608 -72 q 581 -89 592 -89 q 513 -67 539 -92 q 481 -10 488 -43 q 474 43 476 13 q 472 108 472 74 q 472 178 471 143 q 474 244 472 213 l 197 244 q 151 118 176 174 q 97 32 126 63 q 85 21 90 25 q 76 13 81 17 q 65 7 71 10 q 51 -1 60 4 q 29 -3 40 -7 q 14 13 18 1 q 13 34 8 24 q 28 49 17 44 q 51 66 43 60 q 71 88 60 72 q 107 154 90 114 q 139 244 124 194 l 57 244 q 36 253 44 244 q 28 272 28 261 q 36 292 28 283 q 57 300 44 300 l 154 300 q 182 415 165 343 q 219 571 199 488 q 265 739 240 654 q 318 892 290 824 q 376 1003 346 961 q 439 1044 407 1046 q 483 1047 461 1044 q 526 1049 506 1050 q 563 1040 546 1047 q 592 1011 579 1032 l 965 1011 m 424 992 q 384 939 404 983 q 344 828 364 894 q 304 685 324 763 q 267 533 285 607 q 236 396 250 458 q 213 300 222 333 l 476 301 l 479 472 l 481 529 q 483 672 482 600 q 483 811 483 744 q 459 935 474 885 q 424 992 444 985 z "},"Ç":{"ha":554,"x_min":-4,"x_max":475,"o":"m 475 353 q 463 243 472 303 q 431 131 454 183 q 367 43 408 79 q 260 1 326 7 q 128 44 182 -4 q 44 174 75 92 q 5 360 14 256 q 6 571 -4 464 q 44 778 15 678 q 117 949 72 878 q 224 1051 163 1019 q 358 1057 285 1083 q 424 1008 400 1042 q 458 935 449 975 q 465 855 468 896 q 449 784 461 814 q 415 740 436 754 q 368 740 393 726 q 347 762 354 749 q 338 790 340 775 q 335 822 335 806 q 336 851 335 838 q 347 870 338 863 q 367 876 356 878 q 385 865 378 875 q 392 844 393 856 q 390 821 390 835 q 394 796 390 807 q 408 838 404 808 q 408 901 413 868 q 386 964 403 935 q 339 1004 369 993 q 265 984 300 1018 q 202 885 231 950 q 153 733 174 821 q 123 553 133 646 q 115 369 113 460 q 133 207 117 278 q 180 93 149 136 q 260 51 211 50 q 340 87 310 53 q 387 168 369 121 q 410 266 404 215 q 418 353 417 317 q 426 372 418 364 q 447 381 435 381 q 467 372 458 381 q 475 353 475 364 m 254 14 q 257 -26 249 -11 q 280 -53 265 -42 q 312 -72 294 -64 q 343 -92 329 -81 q 365 -119 357 -103 q 367 -162 372 -136 q 346 -193 363 -183 q 308 -206 329 -203 q 266 -207 288 -208 q 229 -206 244 -206 l 190 -206 q 171 -197 179 -206 q 163 -178 163 -189 q 171 -157 163 -165 q 190 -149 179 -149 q 213 -149 196 -149 q 250 -150 231 -150 q 288 -149 269 -150 q 313 -147 306 -149 q 310 -137 314 -140 q 301 -129 307 -133 q 254 -100 276 -112 q 217 -72 232 -87 q 198 -33 203 -56 q 201 29 193 -10 q 215 46 204 40 q 236 49 225 51 q 253 35 247 46 q 254 14 258 25 z "},"È":{"ha":589,"x_min":-54,"x_max":535,"o":"m 33 1086 q 100 1066 75 1089 q 133 1011 125 1043 l 507 1011 q 526 1003 518 1011 q 535 983 535 994 q 526 964 535 972 q 507 956 518 956 q 322 956 414 956 q 136 954 229 956 q 136 874 136 922 q 135 769 136 826 q 134 651 135 713 q 132 529 133 589 l 328 529 q 347 521 339 529 q 356 501 356 513 q 347 481 356 489 q 328 472 339 472 l 131 472 l 126 292 q 126 248 126 275 q 124 188 125 221 q 124 122 124 156 q 124 57 124 88 l 507 57 q 526 49 518 57 q 535 29 535 40 q 526 8 535 17 q 507 0 518 0 l 128 0 q 129 -19 128 -11 q 132 -35 131 -28 q 146 -44 140 -37 q 150 -61 151 -51 q 142 -81 150 -72 q 122 -89 133 -89 q 55 -67 81 -92 q 22 -10 29 -43 q 15 56 17 17 q 14 138 14 96 q 15 221 14 181 q 18 292 17 261 l 21 472 l -26 472 q -46 481 -37 472 q -54 500 -54 489 q -46 521 -54 513 q -26 529 -37 529 l 22 529 q 25 699 24 613 q 26 857 26 785 q 26 977 26 929 q 24 1032 25 1025 q 6 1058 6 1039 q 14 1078 6 1069 q 33 1086 22 1086 m 276 1129 l 172 1240 q 165 1260 163 1250 q 174 1278 167 1271 q 193 1288 182 1286 q 214 1279 204 1289 l 317 1168 q 325 1148 326 1158 q 316 1131 324 1138 q 297 1122 308 1124 q 276 1129 286 1121 z "},"É":{"ha":589,"x_min":-54,"x_max":535,"o":"m 33 1086 q 100 1066 75 1089 q 133 1011 125 1043 l 507 1011 q 526 1003 518 1011 q 535 983 535 994 q 526 964 535 972 q 507 956 518 956 q 322 956 414 956 q 136 954 229 956 q 136 874 136 922 q 135 769 136 826 q 134 651 135 713 q 132 529 133 589 l 328 529 q 347 521 339 529 q 356 501 356 513 q 347 481 356 489 q 328 472 339 472 l 131 472 l 126 292 q 126 248 126 275 q 124 188 125 221 q 124 122 124 156 q 124 57 124 88 l 507 57 q 526 49 518 57 q 535 29 535 40 q 526 8 535 17 q 507 0 518 0 l 128 0 q 129 -19 128 -11 q 132 -35 131 -28 q 146 -44 140 -37 q 150 -61 151 -51 q 142 -81 150 -72 q 122 -89 133 -89 q 55 -67 81 -92 q 22 -10 29 -43 q 15 56 17 17 q 14 138 14 96 q 15 221 14 181 q 18 292 17 261 l 21 472 l -26 472 q -46 481 -37 472 q -54 500 -54 489 q -46 521 -54 513 q -26 529 -37 529 l 22 529 q 25 699 24 613 q 26 857 26 785 q 26 977 26 929 q 24 1032 25 1025 q 6 1058 6 1039 q 14 1078 6 1069 q 33 1086 22 1086 m 304 1249 q 325 1256 314 1257 q 344 1247 336 1254 q 353 1230 351 1240 q 344 1210 354 1219 l 242 1099 q 221 1090 232 1089 q 202 1099 210 1092 q 192 1117 194 1107 q 200 1138 190 1128 l 304 1249 z "},"Ê":{"ha":589,"x_min":-54,"x_max":535,"o":"m 33 1086 q 100 1066 75 1089 q 133 1011 125 1043 l 507 1011 q 526 1003 518 1011 q 535 983 535 994 q 526 964 535 972 q 507 956 518 956 q 322 956 414 956 q 136 954 229 956 q 136 874 136 922 q 135 769 136 826 q 134 651 135 713 q 132 529 133 589 l 328 529 q 347 521 339 529 q 356 501 356 513 q 347 481 356 489 q 328 472 339 472 l 131 472 l 126 292 q 126 248 126 275 q 124 188 125 221 q 124 122 124 156 q 124 57 124 88 l 507 57 q 526 49 518 57 q 535 29 535 40 q 526 8 535 17 q 507 0 518 0 l 128 0 q 129 -19 128 -11 q 132 -35 131 -28 q 146 -44 140 -37 q 150 -61 151 -51 q 142 -81 150 -72 q 122 -89 133 -89 q 55 -67 81 -92 q 22 -10 29 -43 q 15 56 17 17 q 14 138 14 96 q 15 221 14 181 q 18 292 17 261 l 21 472 l -26 472 q -46 481 -37 472 q -54 500 -54 489 q -46 521 -54 513 q -26 529 -37 529 l 22 529 q 25 699 24 613 q 26 857 26 785 q 26 977 26 929 q 24 1032 25 1025 q 6 1058 6 1039 q 14 1078 6 1069 q 33 1086 22 1086 m 160 1114 q 192 1172 174 1140 q 234 1224 210 1203 q 287 1249 258 1246 q 350 1224 315 1253 q 394 1170 376 1200 q 428 1110 411 1140 q 430 1088 433 1099 q 415 1072 426 1078 q 393 1070 404 1067 q 376 1085 382 1074 q 329 1163 349 1136 q 292 1192 310 1190 q 256 1167 275 1193 q 210 1090 238 1142 q 195 1075 206 1079 q 174 1076 185 1071 q 158 1092 163 1082 q 160 1114 154 1103 z "},"Ë":{"ha":589,"x_min":-54,"x_max":535,"o":"m 33 1086 q 100 1066 75 1089 q 133 1011 125 1043 l 507 1011 q 526 1003 518 1011 q 535 983 535 994 q 526 964 535 972 q 507 956 518 956 q 322 956 414 956 q 136 954 229 956 q 136 874 136 922 q 135 769 136 826 q 134 651 135 713 q 132 529 133 589 l 328 529 q 347 521 339 529 q 356 501 356 513 q 347 481 356 489 q 328 472 339 472 l 131 472 l 126 292 q 126 248 126 275 q 124 188 125 221 q 124 122 124 156 q 124 57 124 88 l 507 57 q 526 49 518 57 q 535 29 535 40 q 526 8 535 17 q 507 0 518 0 l 128 0 q 129 -19 128 -11 q 132 -35 131 -28 q 146 -44 140 -37 q 150 -61 151 -51 q 142 -81 150 -72 q 122 -89 133 -89 q 55 -67 81 -92 q 22 -10 29 -43 q 15 56 17 17 q 14 138 14 96 q 15 221 14 181 q 18 292 17 261 l 21 472 l -26 472 q -46 481 -37 472 q -54 500 -54 489 q -46 521 -54 513 q -26 529 -37 529 l 22 529 q 25 699 24 613 q 26 857 26 785 q 26 977 26 929 q 24 1032 25 1025 q 6 1058 6 1039 q 14 1078 6 1069 q 33 1086 22 1086 m 240 1160 q 241 1140 240 1144 q 242 1131 242 1135 q 241 1122 242 1128 q 240 1103 240 1117 q 228 1083 239 1090 q 207 1076 218 1075 q 186 1087 196 1078 q 178 1107 176 1096 q 178 1124 178 1119 q 179 1132 179 1129 q 179 1140 179 1135 q 179 1160 179 1146 q 189 1179 179 1171 q 210 1188 199 1188 q 231 1179 221 1188 q 240 1160 240 1171 m 404 1160 q 405 1140 404 1144 q 406 1131 406 1135 q 405 1122 406 1128 q 404 1103 404 1117 q 392 1083 403 1090 q 371 1076 382 1075 q 350 1087 360 1078 q 342 1107 340 1096 q 342 1124 342 1119 q 343 1132 343 1129 q 343 1140 343 1135 q 343 1160 343 1146 q 353 1179 343 1171 q 374 1188 363 1188 q 394 1179 385 1188 q 404 1160 404 1171 z "},"Ì":{"ha":207,"x_min":-4,"x_max":160,"o":"m 31 1079 q 99 1058 74 1082 q 131 1000 124 1035 q 133 951 132 992 q 133 851 133 911 q 132 719 133 792 q 129 572 131 646 q 126 432 128 499 q 124 318 125 365 q 122 258 124 294 q 121 185 121 222 q 122 112 121 147 q 129 54 124 76 q 143 44 138 51 q 147 28 149 38 q 139 8 147 17 q 119 0 131 0 q 52 21 78 -3 q 19 79 26 44 q 10 195 8 133 q 15 318 13 257 q 18 438 17 368 q 20 584 19 507 q 22 737 21 661 q 24 874 24 813 q 23 978 24 936 q 21 1025 22 1019 q 3 1051 3 1032 q 11 1071 3 1063 q 31 1079 19 1079 m 110 1114 l 6 1225 q -2 1245 -4 1235 q 8 1263 0 1256 q 26 1272 15 1271 q 47 1264 38 1274 l 150 1153 q 158 1133 160 1143 q 149 1115 157 1122 q 131 1107 142 1108 q 110 1114 119 1106 z "},"Í":{"ha":207,"x_min":3,"x_max":185,"o":"m 31 1079 q 99 1058 74 1082 q 131 1000 124 1035 q 133 951 132 992 q 133 851 133 911 q 132 719 133 792 q 129 572 131 646 q 126 432 128 499 q 124 318 125 365 q 122 258 124 294 q 121 185 121 222 q 122 112 121 147 q 129 54 124 76 q 143 44 138 51 q 147 28 149 38 q 139 8 147 17 q 119 0 131 0 q 52 21 78 -3 q 19 79 26 44 q 10 195 8 133 q 15 318 13 257 q 18 438 17 368 q 20 584 19 507 q 22 737 21 661 q 24 874 24 813 q 23 978 24 936 q 21 1025 22 1019 q 3 1051 3 1032 q 11 1071 3 1063 q 31 1079 19 1079 m 135 1278 q 156 1285 144 1286 q 174 1276 167 1283 q 183 1259 182 1269 q 175 1239 185 1249 l 72 1128 q 51 1119 63 1118 q 33 1128 40 1121 q 23 1147 25 1136 q 31 1167 21 1157 l 135 1278 z "},"Ï":{"ha":267,"x_min":21,"x_max":250,"o":"m 90 1079 q 158 1058 133 1082 q 190 1000 183 1035 q 192 951 192 992 q 193 851 193 911 q 192 719 193 792 q 189 572 190 646 q 186 432 188 499 q 183 318 185 365 q 182 258 183 294 q 181 185 181 222 q 182 112 181 147 q 189 54 183 76 q 203 44 197 51 q 207 28 208 38 q 199 8 207 17 q 179 0 190 0 q 112 21 138 -3 q 79 79 86 44 q 70 195 68 133 q 75 318 72 257 q 78 438 76 368 q 80 584 79 507 q 82 737 81 661 q 83 874 83 813 q 83 978 83 936 q 81 1025 82 1019 q 63 1051 63 1032 q 71 1071 63 1063 q 90 1079 79 1079 m 85 1197 q 85 1177 85 1182 q 86 1169 86 1172 q 85 1160 86 1165 q 85 1140 85 1154 q 73 1120 83 1128 q 51 1114 63 1113 q 31 1124 40 1115 q 22 1144 21 1133 q 23 1162 22 1157 q 24 1169 24 1167 q 24 1178 24 1172 q 24 1197 24 1183 q 33 1217 24 1208 q 54 1225 43 1225 q 75 1217 65 1225 q 85 1197 85 1208 m 249 1197 q 249 1177 249 1182 q 250 1169 250 1172 q 249 1160 250 1165 q 249 1140 249 1154 q 237 1120 247 1128 q 215 1114 226 1113 q 194 1124 204 1115 q 186 1144 185 1133 q 187 1162 186 1157 q 188 1169 188 1167 q 188 1178 188 1172 q 188 1197 188 1183 q 197 1217 188 1208 q 218 1225 207 1225 q 239 1217 229 1225 q 249 1197 249 1208 z "},"Ð":{"ha":708,"x_min":13,"x_max":636,"o":"m 339 529 q 358 520 350 529 q 367 500 367 511 q 358 481 367 489 q 339 472 350 472 l 253 472 l 249 318 q 247 247 249 293 q 246 152 246 201 q 247 58 246 103 q 254 -8 249 14 q 268 -18 263 -11 q 272 -35 274 -25 q 264 -54 272 -46 q 244 -62 256 -62 q 177 -42 203 -65 q 144 17 151 -18 q 138 83 139 43 q 136 165 136 122 q 138 247 136 207 q 140 318 139 288 q 142 388 140 349 q 143 474 143 428 l 42 475 q 21 483 29 475 q 14 503 13 492 q 22 522 14 514 q 42 531 31 531 l 144 529 q 147 707 146 615 q 148 876 147 799 q 148 1005 149 953 q 146 1064 147 1057 q 128 1090 128 1071 q 136 1110 128 1101 q 156 1118 144 1118 q 224 1097 199 1121 q 256 1039 249 1074 q 258 978 258 1029 q 258 853 258 928 q 285 931 269 892 q 322 1001 300 969 q 371 1053 343 1032 q 435 1078 399 1074 q 531 1036 492 1083 q 595 909 571 989 q 628 726 619 829 q 630 517 636 624 q 603 310 624 410 q 549 136 583 210 q 469 24 515 63 q 365 4 424 -14 q 310 38 332 14 q 276 94 288 63 q 263 159 264 125 q 271 224 263 193 q 287 238 276 235 q 308 236 297 242 q 323 220 319 231 q 321 199 326 210 q 318 163 317 182 q 325 124 319 143 q 342 88 331 104 q 369 63 353 71 q 426 80 400 46 q 473 181 453 114 q 506 338 493 247 q 525 524 519 428 q 528 712 531 619 q 515 875 526 804 q 483 986 504 946 q 432 1019 463 1026 q 370 972 396 1011 q 327 885 344 933 q 300 788 310 836 q 288 711 290 739 q 277 692 286 700 q 257 686 268 685 l 254 529 l 339 529 z "},"Ñ":{"ha":518,"x_min":-1,"x_max":471,"o":"m 26 6 q 6 13 14 4 q -1 32 -1 21 q 18 60 -1 53 q 22 107 19 65 q 26 210 24 149 q 31 348 29 272 q 35 500 33 424 q 38 647 36 576 q 40 765 40 717 q 41 834 40 796 q 42 911 42 872 q 46 986 43 950 q 56 1050 49 1022 q 90 1108 64 1085 q 158 1129 117 1132 q 178 1121 171 1129 q 186 1101 186 1113 q 167 1075 186 1082 q 160 1036 163 1060 q 154 983 157 1013 q 197 1040 172 1015 q 258 1074 222 1065 q 345 1077 310 1085 q 403 1050 381 1069 q 437 1001 425 1031 q 454 939 449 971 q 460 876 460 907 q 460 819 460 844 q 458 747 460 806 q 455 608 457 689 q 451 433 453 526 q 449 260 450 340 q 448 123 447 181 q 451 56 449 65 q 471 31 471 50 q 462 10 471 19 q 442 1 453 1 q 374 17 400 -6 q 342 74 349 40 q 338 139 339 86 q 339 265 338 192 q 342 422 340 338 q 346 585 343 507 q 351 728 349 664 q 354 821 353 792 q 353 908 356 867 q 340 977 350 949 q 310 1017 329 1006 q 260 1015 290 1028 q 224 985 239 1007 q 197 938 208 964 q 180 885 186 911 q 172 840 174 858 q 150 814 169 819 q 149 787 149 799 q 149 765 149 775 q 147 651 149 718 q 144 512 146 585 q 141 366 143 439 q 137 233 139 293 q 133 133 135 174 q 129 85 131 93 q 94 26 121 50 q 26 6 68 3 m 75 1179 q 133 1217 107 1207 q 200 1215 158 1226 q 249 1197 224 1210 q 301 1173 275 1183 q 353 1160 328 1163 q 400 1171 378 1157 l 418 1185 q 442 1185 429 1197 q 442 1161 454 1174 l 418 1142 q 371 1125 394 1126 q 324 1130 347 1124 q 277 1147 300 1136 q 232 1168 254 1158 q 163 1187 189 1188 q 99 1156 136 1186 q 75 1156 88 1143 q 75 1179 63 1168 z "},"Ò":{"ha":488,"x_min":-1,"x_max":413,"o":"m 397 758 q 410 638 407 704 q 408 500 413 571 q 391 358 403 429 q 360 224 379 288 q 316 111 342 161 q 260 32 290 61 q 224 7 240 14 q 190 -1 207 0 q 131 13 157 -1 q 85 48 104 26 q 54 96 67 69 q 35 147 42 122 q 12 272 21 194 q 1 440 3 350 q 5 626 -1 531 q 28 807 11 722 q 74 958 44 892 q 146 1056 103 1024 q 199 1075 168 1072 q 260 1071 229 1078 q 317 1046 290 1064 q 358 1003 343 1028 q 378 955 369 983 q 392 894 388 926 q 399 826 397 861 q 397 758 400 792 m 201 928 q 274 932 238 939 q 335 900 311 925 q 322 949 331 931 q 310 978 317 963 q 293 1005 303 994 q 270 1019 283 1015 q 239 1013 257 1022 q 188 953 210 997 q 152 851 167 910 q 129 726 138 793 q 117 595 121 658 q 112 478 113 532 q 113 396 111 425 q 114 350 113 386 q 119 267 115 314 q 131 174 124 221 q 153 95 139 126 q 187 58 167 64 q 235 88 207 51 q 289 191 265 126 q 328 331 313 256 q 350 485 343 406 q 354 636 357 565 q 351 634 353 635 q 349 631 350 633 q 314 617 331 614 q 285 633 297 619 q 267 667 274 646 q 260 713 260 689 l 263 736 q 273 755 264 747 q 293 760 282 763 q 312 749 304 758 q 318 729 319 740 q 317 706 317 719 q 319 682 317 693 q 340 758 336 707 l 333 783 q 315 833 324 814 q 295 861 307 851 q 266 874 283 871 q 222 876 249 876 q 201 876 211 872 q 186 892 190 881 q 186 913 182 903 q 201 928 190 924 m 275 1096 l 171 1207 q 163 1227 161 1217 q 173 1245 165 1238 q 192 1254 181 1253 q 213 1246 203 1256 l 315 1135 q 324 1115 325 1125 q 315 1097 322 1104 q 296 1089 307 1090 q 275 1096 285 1088 z "},"Ó":{"ha":488,"x_min":-1,"x_max":413,"o":"m 397 758 q 410 638 407 704 q 408 500 413 571 q 391 358 403 429 q 360 224 379 288 q 316 111 342 161 q 260 32 290 61 q 224 7 240 14 q 190 -1 207 0 q 131 13 157 -1 q 85 48 104 26 q 54 96 67 69 q 35 147 42 122 q 12 272 21 194 q 1 440 3 350 q 5 626 -1 531 q 28 807 11 722 q 74 958 44 892 q 146 1056 103 1024 q 199 1075 168 1072 q 260 1071 229 1078 q 317 1046 290 1064 q 358 1003 343 1028 q 378 955 369 983 q 392 894 388 926 q 399 826 397 861 q 397 758 400 792 m 201 928 q 274 932 238 939 q 335 900 311 925 q 322 949 331 931 q 310 978 317 963 q 293 1005 303 994 q 270 1019 283 1015 q 239 1013 257 1022 q 188 953 210 997 q 152 851 167 910 q 129 726 138 793 q 117 595 121 658 q 112 478 113 532 q 113 396 111 425 q 114 350 113 386 q 119 267 115 314 q 131 174 124 221 q 153 95 139 126 q 187 58 167 64 q 235 88 207 51 q 289 191 265 126 q 328 331 313 256 q 350 485 343 406 q 354 636 357 565 q 351 634 353 635 q 349 631 350 633 q 314 617 331 614 q 285 633 297 619 q 267 667 274 646 q 260 713 260 689 l 263 736 q 273 755 264 747 q 293 760 282 763 q 312 749 304 758 q 318 729 319 740 q 317 706 317 719 q 319 682 317 693 q 340 758 336 707 l 333 783 q 315 833 324 814 q 295 861 307 851 q 266 874 283 871 q 222 876 249 876 q 201 876 211 872 q 186 892 190 881 q 186 913 182 903 q 201 928 190 924 m 275 1278 q 296 1285 285 1286 q 315 1276 307 1283 q 324 1259 322 1269 q 315 1239 325 1249 l 213 1128 q 192 1119 203 1118 q 173 1128 181 1121 q 163 1147 165 1136 q 171 1167 161 1157 l 275 1278 z "},"Ô":{"ha":488,"x_min":-1,"x_max":413,"o":"m 397 758 q 410 638 407 704 q 408 500 413 571 q 391 358 403 429 q 360 224 379 288 q 316 111 342 161 q 260 32 290 61 q 224 7 240 14 q 190 -1 207 0 q 131 13 157 -1 q 85 48 104 26 q 54 96 67 69 q 35 147 42 122 q 12 272 21 194 q 1 440 3 350 q 5 626 -1 531 q 28 807 11 722 q 74 958 44 892 q 146 1056 103 1024 q 199 1075 168 1072 q 260 1071 229 1078 q 317 1046 290 1064 q 358 1003 343 1028 q 378 955 369 983 q 392 894 388 926 q 399 826 397 861 q 397 758 400 792 m 201 928 q 274 932 238 939 q 335 900 311 925 q 322 949 331 931 q 310 978 317 963 q 293 1005 303 994 q 270 1019 283 1015 q 239 1013 257 1022 q 188 953 210 997 q 152 851 167 910 q 129 726 138 793 q 117 595 121 658 q 112 478 113 532 q 113 396 111 425 q 114 350 113 386 q 119 267 115 314 q 131 174 124 221 q 153 95 139 126 q 187 58 167 64 q 235 88 207 51 q 289 191 265 126 q 328 331 313 256 q 350 485 343 406 q 354 636 357 565 q 351 634 353 635 q 349 631 350 633 q 314 617 331 614 q 285 633 297 619 q 267 667 274 646 q 260 713 260 689 l 263 736 q 273 755 264 747 q 293 760 282 763 q 312 749 304 758 q 318 729 319 740 q 317 706 317 719 q 319 682 317 693 q 340 758 336 707 l 333 783 q 315 833 324 814 q 295 861 307 851 q 266 874 283 871 q 222 876 249 876 q 201 876 211 872 q 186 892 190 881 q 186 913 182 903 q 201 928 190 924 m 110 1114 q 142 1172 124 1140 q 184 1224 160 1203 q 237 1249 208 1246 q 300 1224 265 1253 q 344 1170 326 1200 q 378 1110 361 1140 q 380 1088 383 1099 q 365 1072 376 1078 q 343 1070 354 1067 q 326 1085 332 1074 q 279 1163 299 1136 q 242 1192 260 1190 q 206 1167 225 1193 q 160 1090 188 1142 q 145 1075 156 1079 q 124 1076 135 1071 q 108 1092 113 1082 q 110 1114 104 1103 z "},"Õ":{"ha":488,"x_min":-1,"x_max":439,"o":"m 397 758 q 410 638 407 704 q 408 500 413 571 q 391 358 403 429 q 360 224 379 288 q 316 111 342 161 q 260 32 290 61 q 224 7 240 14 q 190 -1 207 0 q 131 13 157 -1 q 85 48 104 26 q 54 96 67 69 q 35 147 42 122 q 12 272 21 194 q 1 440 3 350 q 5 626 -1 531 q 28 807 11 722 q 74 958 44 892 q 146 1056 103 1024 q 199 1075 168 1072 q 260 1071 229 1078 q 317 1046 290 1064 q 358 1003 343 1028 q 378 955 369 983 q 392 894 388 926 q 399 826 397 861 q 397 758 400 792 m 201 928 q 274 932 238 939 q 335 900 311 925 q 322 949 331 931 q 310 978 317 963 q 293 1005 303 994 q 270 1019 283 1015 q 239 1013 257 1022 q 188 953 210 997 q 152 851 167 910 q 129 726 138 793 q 117 595 121 658 q 112 478 113 532 q 113 396 111 425 q 114 350 113 386 q 119 267 115 314 q 131 174 124 221 q 153 95 139 126 q 187 58 167 64 q 235 88 207 51 q 289 191 265 126 q 328 331 313 256 q 350 485 343 406 q 354 636 357 565 q 351 634 353 635 q 349 631 350 633 q 314 617 331 614 q 285 633 297 619 q 267 667 274 646 q 260 713 260 689 l 263 736 q 273 755 264 747 q 293 760 282 763 q 312 749 304 758 q 318 729 319 740 q 317 706 317 719 q 319 682 317 693 q 340 758 336 707 l 333 783 q 315 833 324 814 q 295 861 307 851 q 266 874 283 871 q 222 876 249 876 q 201 876 211 872 q 186 892 190 881 q 186 913 182 903 q 201 928 190 924 m 60 1124 q 117 1161 92 1151 q 185 1160 143 1171 q 234 1141 208 1154 q 286 1117 260 1128 q 338 1104 313 1107 q 385 1115 363 1101 l 403 1129 q 426 1129 414 1142 q 426 1106 439 1118 l 403 1086 q 356 1069 379 1071 q 308 1074 332 1068 q 262 1092 285 1081 q 217 1113 239 1103 q 147 1131 174 1132 q 83 1100 121 1131 q 60 1100 72 1088 q 60 1124 47 1113 z "},"Ö":{"ha":488,"x_min":-1,"x_max":413,"o":"m 397 758 q 410 638 407 704 q 408 500 413 571 q 391 358 403 429 q 360 224 379 288 q 316 111 342 161 q 260 32 290 61 q 224 7 240 14 q 190 -1 207 0 q 131 13 157 -1 q 85 48 104 26 q 54 96 67 69 q 35 147 42 122 q 12 272 21 194 q 1 440 3 350 q 5 626 -1 531 q 28 807 11 722 q 74 958 44 892 q 146 1056 103 1024 q 199 1075 168 1072 q 260 1071 229 1078 q 317 1046 290 1064 q 358 1003 343 1028 q 378 955 369 983 q 392 894 388 926 q 399 826 397 861 q 397 758 400 792 m 201 928 q 274 932 238 939 q 335 900 311 925 q 322 949 331 931 q 310 978 317 963 q 293 1005 303 994 q 270 1019 283 1015 q 239 1013 257 1022 q 188 953 210 997 q 152 851 167 910 q 129 726 138 793 q 117 595 121 658 q 112 478 113 532 q 113 396 111 425 q 114 350 113 386 q 119 267 115 314 q 131 174 124 221 q 153 95 139 126 q 187 58 167 64 q 235 88 207 51 q 289 191 265 126 q 328 331 313 256 q 350 485 343 406 q 354 636 357 565 q 351 634 353 635 q 349 631 350 633 q 314 617 331 614 q 285 633 297 619 q 267 667 274 646 q 260 713 260 689 l 263 736 q 273 755 264 747 q 293 760 282 763 q 312 749 304 758 q 318 729 319 740 q 317 706 317 719 q 319 682 317 693 q 340 758 336 707 l 333 783 q 315 833 324 814 q 295 861 307 851 q 266 874 283 871 q 222 876 249 876 q 201 876 211 872 q 186 892 190 881 q 186 913 182 903 q 201 928 190 924 m 196 1176 q 197 1156 196 1161 q 197 1148 197 1151 q 197 1139 197 1144 q 196 1119 196 1133 q 184 1099 194 1107 q 163 1093 174 1092 q 142 1103 151 1094 q 133 1124 132 1113 q 134 1141 133 1136 q 135 1149 135 1146 q 135 1157 135 1151 q 135 1176 135 1163 q 144 1196 135 1188 q 165 1204 154 1204 q 186 1196 176 1204 q 196 1176 196 1188 m 360 1176 q 360 1156 360 1161 q 361 1148 361 1151 q 360 1139 361 1144 q 360 1119 360 1133 q 348 1099 358 1107 q 326 1093 338 1092 q 306 1103 315 1094 q 297 1124 296 1113 q 298 1141 297 1136 q 299 1149 299 1146 q 299 1157 299 1151 q 299 1176 299 1163 q 308 1196 299 1188 q 329 1204 318 1204 q 350 1196 340 1204 q 360 1176 360 1188 z "},"Ø":{"ha":488,"x_min":-1,"x_max":413,"o":"m 340 1056 q 298 792 321 931 q 251 511 275 653 q 203 231 226 369 q 161 -32 181 93 q 149 -50 158 -43 q 129 -56 140 -57 q 111 -44 118 -53 q 106 -24 104 -35 q 148 240 125 101 q 195 519 171 378 q 242 800 219 661 q 285 1064 265 939 q 296 1082 286 1075 q 317 1088 306 1089 q 335 1076 328 1085 q 340 1056 342 1067 m 397 758 q 410 638 407 704 q 408 500 413 571 q 391 358 403 429 q 360 224 379 288 q 316 111 342 161 q 260 32 290 61 q 224 7 240 14 q 190 -1 207 0 q 131 13 157 -1 q 85 48 104 26 q 54 96 67 69 q 35 147 42 122 q 12 272 21 194 q 1 440 3 350 q 5 626 -1 531 q 28 807 11 722 q 74 958 44 892 q 146 1056 103 1024 q 199 1075 168 1072 q 260 1071 229 1078 q 317 1046 290 1064 q 358 1003 343 1028 q 378 955 369 983 q 392 894 388 926 q 399 826 397 861 q 397 758 400 792 m 201 928 q 274 932 238 939 q 335 900 311 925 q 322 949 331 931 q 310 978 317 963 q 293 1005 303 994 q 270 1019 283 1015 q 239 1013 257 1022 q 188 953 210 997 q 152 851 167 910 q 129 726 138 793 q 117 595 121 658 q 112 478 113 532 q 113 396 111 425 q 114 350 113 386 q 119 267 115 314 q 131 174 124 221 q 153 95 139 126 q 187 58 167 64 q 235 88 207 51 q 289 191 265 126 q 328 331 313 256 q 350 485 343 406 q 354 636 357 565 q 351 634 353 635 q 349 631 350 633 q 314 617 331 614 q 285 633 297 619 q 267 667 274 646 q 260 713 260 689 l 263 736 q 273 755 264 747 q 293 760 282 763 q 312 749 304 758 q 318 729 319 740 q 317 706 317 719 q 319 682 317 693 q 340 758 336 707 l 333 783 q 315 833 324 814 q 295 861 307 851 q 266 874 283 871 q 222 876 249 876 q 201 876 211 872 q 186 892 190 881 q 186 913 182 903 q 201 928 190 924 z "},"Ù":{"ha":522,"x_min":0,"x_max":475,"o":"m 447 1124 q 467 1117 458 1125 q 475 1097 475 1108 q 454 1069 472 1076 q 451 1022 453 1063 q 446 919 449 981 q 440 781 443 857 q 435 629 438 706 q 432 483 433 553 q 429 364 431 413 q 428 295 429 333 q 426 218 428 257 q 422 142 425 179 q 413 79 418 106 q 378 21 404 44 q 310 0 351 -3 q 290 8 297 0 q 282 28 282 17 q 301 54 282 47 q 308 95 306 69 q 314 153 311 121 q 271 92 297 118 q 207 56 244 65 q 120 52 156 44 q 63 79 85 60 q 28 128 40 99 q 12 190 17 158 q 7 253 7 222 q 7 310 7 285 q 8 356 7 319 q 10 445 8 392 q 13 564 11 499 q 17 696 15 629 q 19 827 18 763 q 21 944 21 892 q 20 1031 21 996 q 18 1074 19 1065 q 0 1099 0 1078 q 8 1119 0 1110 q 28 1128 17 1128 q 96 1112 71 1135 q 128 1056 121 1089 q 131 990 131 1042 q 130 865 131 938 q 126 707 129 792 q 122 544 124 622 q 117 401 119 465 q 113 308 114 338 q 113 222 110 263 q 126 152 115 181 q 156 113 136 124 q 206 114 175 101 q 242 144 226 122 q 269 192 257 165 q 287 244 281 218 q 294 289 293 271 q 319 317 297 311 q 321 342 321 331 q 321 364 321 354 q 323 478 321 411 q 326 617 325 544 q 331 763 328 690 q 335 896 333 836 q 340 996 338 956 q 344 1044 342 1036 q 378 1103 351 1079 q 447 1124 406 1126 m 254 1124 l 150 1235 q 142 1255 140 1244 q 152 1273 144 1265 q 171 1282 160 1281 q 192 1274 182 1283 l 294 1163 q 303 1142 304 1153 q 294 1125 301 1132 q 275 1117 286 1118 q 254 1124 264 1115 z "},"Ú":{"ha":522,"x_min":0,"x_max":475,"o":"m 447 1124 q 467 1117 458 1125 q 475 1097 475 1108 q 454 1069 472 1076 q 451 1022 453 1063 q 446 919 449 981 q 440 781 443 857 q 435 629 438 706 q 432 483 433 553 q 429 364 431 413 q 428 295 429 333 q 426 218 428 257 q 422 142 425 179 q 413 79 418 106 q 378 21 404 44 q 310 0 351 -3 q 290 8 297 0 q 282 28 282 17 q 301 54 282 47 q 308 95 306 69 q 314 153 311 121 q 271 92 297 118 q 207 56 244 65 q 120 52 156 44 q 63 79 85 60 q 28 128 40 99 q 12 190 17 158 q 7 253 7 222 q 7 310 7 285 q 8 356 7 319 q 10 445 8 392 q 13 564 11 499 q 17 696 15 629 q 19 827 18 763 q 21 944 21 892 q 20 1031 21 996 q 18 1074 19 1065 q 0 1099 0 1078 q 8 1119 0 1110 q 28 1128 17 1128 q 96 1112 71 1135 q 128 1056 121 1089 q 131 990 131 1042 q 130 865 131 938 q 126 707 129 792 q 122 544 124 622 q 117 401 119 465 q 113 308 114 338 q 113 222 110 263 q 126 152 115 181 q 156 113 136 124 q 206 114 175 101 q 242 144 226 122 q 269 192 257 165 q 287 244 281 218 q 294 289 293 271 q 319 317 297 311 q 321 342 321 331 q 321 364 321 354 q 323 478 321 411 q 326 617 325 544 q 331 763 328 690 q 335 896 333 836 q 340 996 338 956 q 344 1044 342 1036 q 378 1103 351 1079 q 447 1124 406 1126 m 292 1278 q 313 1285 301 1286 q 331 1276 324 1283 q 340 1259 339 1269 q 332 1239 342 1249 l 229 1128 q 208 1119 219 1118 q 190 1128 197 1121 q 180 1147 182 1136 q 188 1167 178 1157 l 292 1278 z "},"Û":{"ha":522,"x_min":0,"x_max":475,"o":"m 447 1124 q 467 1117 458 1125 q 475 1097 475 1108 q 454 1069 472 1076 q 451 1022 453 1063 q 446 919 449 981 q 440 781 443 857 q 435 629 438 706 q 432 483 433 553 q 429 364 431 413 q 428 295 429 333 q 426 218 428 257 q 422 142 425 179 q 413 79 418 106 q 378 21 404 44 q 310 0 351 -3 q 290 8 297 0 q 282 28 282 17 q 301 54 282 47 q 308 95 306 69 q 314 153 311 121 q 271 92 297 118 q 207 56 244 65 q 120 52 156 44 q 63 79 85 60 q 28 128 40 99 q 12 190 17 158 q 7 253 7 222 q 7 310 7 285 q 8 356 7 319 q 10 445 8 392 q 13 564 11 499 q 17 696 15 629 q 19 827 18 763 q 21 944 21 892 q 20 1031 21 996 q 18 1074 19 1065 q 0 1099 0 1078 q 8 1119 0 1110 q 28 1128 17 1128 q 96 1112 71 1135 q 128 1056 121 1089 q 131 990 131 1042 q 130 865 131 938 q 126 707 129 792 q 122 544 124 622 q 117 401 119 465 q 113 308 114 338 q 113 222 110 263 q 126 152 115 181 q 156 113 136 124 q 206 114 175 101 q 242 144 226 122 q 269 192 257 165 q 287 244 281 218 q 294 289 293 271 q 319 317 297 311 q 321 342 321 331 q 321 364 321 354 q 323 478 321 411 q 326 617 325 544 q 331 763 328 690 q 335 896 333 836 q 340 996 338 956 q 344 1044 342 1036 q 378 1103 351 1079 q 447 1124 406 1126 m 111 1193 q 143 1251 125 1219 q 185 1303 161 1282 q 238 1328 210 1325 q 301 1303 267 1332 q 345 1249 328 1279 q 379 1189 363 1219 q 381 1167 385 1178 q 367 1151 378 1157 q 344 1149 356 1146 q 328 1164 333 1153 q 281 1242 300 1215 q 244 1271 261 1269 q 208 1247 226 1272 q 161 1169 189 1221 q 147 1154 157 1158 q 125 1156 136 1150 q 110 1172 114 1161 q 111 1193 106 1182 z "},"Ü":{"ha":522,"x_min":0,"x_max":475,"o":"m 447 1124 q 467 1117 458 1125 q 475 1097 475 1108 q 454 1069 472 1076 q 451 1022 453 1063 q 446 919 449 981 q 440 781 443 857 q 435 629 438 706 q 432 483 433 553 q 429 364 431 413 q 428 295 429 333 q 426 218 428 257 q 422 142 425 179 q 413 79 418 106 q 378 21 404 44 q 310 0 351 -3 q 290 8 297 0 q 282 28 282 17 q 301 54 282 47 q 308 95 306 69 q 314 153 311 121 q 271 92 297 118 q 207 56 244 65 q 120 52 156 44 q 63 79 85 60 q 28 128 40 99 q 12 190 17 158 q 7 253 7 222 q 7 310 7 285 q 8 356 7 319 q 10 445 8 392 q 13 564 11 499 q 17 696 15 629 q 19 827 18 763 q 21 944 21 892 q 20 1031 21 996 q 18 1074 19 1065 q 0 1099 0 1078 q 8 1119 0 1110 q 28 1128 17 1128 q 96 1112 71 1135 q 128 1056 121 1089 q 131 990 131 1042 q 130 865 131 938 q 126 707 129 792 q 122 544 124 622 q 117 401 119 465 q 113 308 114 338 q 113 222 110 263 q 126 152 115 181 q 156 113 136 124 q 206 114 175 101 q 242 144 226 122 q 269 192 257 165 q 287 244 281 218 q 294 289 293 271 q 319 317 297 311 q 321 342 321 331 q 321 364 321 354 q 323 478 321 411 q 326 617 325 544 q 331 763 328 690 q 335 896 333 836 q 340 996 338 956 q 344 1044 342 1036 q 378 1103 351 1079 q 447 1124 406 1126 m 210 1225 q 210 1205 210 1210 q 211 1197 211 1200 q 210 1188 211 1193 q 210 1168 210 1182 q 198 1148 208 1156 q 176 1142 188 1140 q 156 1152 165 1143 q 147 1172 146 1161 q 148 1190 147 1185 q 149 1197 149 1194 q 149 1206 149 1200 q 149 1225 149 1211 q 158 1244 149 1236 q 179 1253 168 1253 q 200 1244 190 1253 q 210 1225 210 1236 m 374 1225 q 374 1205 374 1210 q 375 1197 375 1200 q 374 1188 375 1193 q 374 1168 374 1182 q 362 1148 372 1156 q 340 1142 351 1140 q 319 1152 329 1143 q 311 1172 310 1161 q 312 1190 311 1185 q 313 1197 313 1194 q 313 1206 313 1200 q 313 1225 313 1211 q 322 1244 313 1236 q 343 1253 332 1253 q 364 1244 354 1253 q 374 1225 374 1236 z "},"Ý":{"ha":536,"x_min":0,"x_max":476,"o":"m 450 1096 q 469 1087 461 1096 q 476 1067 476 1078 q 457 1042 476 1046 q 452 985 454 1033 q 449 864 450 938 q 445 698 447 790 q 442 510 443 606 q 440 321 442 414 q 438 153 439 228 q 437 29 438 79 q 436 -31 436 -21 q 432 -87 435 -56 q 421 -151 429 -119 q 397 -212 413 -183 q 357 -262 382 -242 q 295 -289 332 -282 q 207 -285 258 -296 q 144 -251 169 -276 q 104 -191 119 -225 q 81 -120 89 -157 q 72 -53 74 -83 q 80 -33 72 -42 q 100 -25 88 -25 q 119 -33 111 -25 q 128 -53 128 -42 q 135 -96 129 -69 q 150 -149 140 -122 q 175 -197 160 -175 q 210 -228 190 -219 q 263 -229 240 -240 q 301 -190 286 -218 q 324 -120 317 -161 q 331 -32 331 -79 l 331 110 q 288 44 314 72 q 221 6 261 15 q 101 13 143 -11 q 41 78 60 36 q 19 172 22 121 q 17 260 17 222 q 17 306 17 269 q 19 395 18 342 q 20 513 19 449 q 22 645 21 578 q 23 776 22 713 q 23 892 24 840 q 22 979 22 944 q 18 1022 21 1014 q 6 1032 11 1025 q 0 1049 0 1039 q 8 1068 0 1060 q 28 1078 17 1076 q 96 1061 69 1083 q 129 1004 122 1039 q 133 938 132 990 q 133 813 133 886 q 132 656 133 740 q 129 492 131 571 q 126 351 128 414 q 124 258 125 288 q 124 170 121 211 q 138 101 128 129 q 168 61 149 72 q 218 63 188 50 q 254 93 239 71 q 281 142 269 115 q 297 194 292 168 q 304 238 303 221 q 331 265 307 263 q 332 424 331 340 q 334 588 333 507 q 336 744 335 669 q 339 878 338 819 q 342 976 340 938 q 346 1024 343 1014 q 381 1079 354 1057 q 450 1096 407 1101 m 299 1278 q 319 1285 308 1286 q 338 1276 331 1283 q 347 1259 346 1269 q 339 1239 349 1249 l 236 1128 q 215 1119 226 1118 q 197 1128 204 1121 q 187 1147 189 1136 q 194 1167 185 1157 l 299 1278 z "},"á":{"ha":529,"x_min":-6,"x_max":483,"o":"m 371 617 q 435 597 411 619 q 467 540 460 574 q 468 504 468 532 q 467 435 468 476 q 463 345 465 394 q 460 243 461 296 q 458 201 460 226 q 457 147 457 175 q 458 92 457 118 q 464 53 460 67 q 482 28 482 49 q 475 9 483 17 q 456 0 467 1 q 390 19 415 -3 q 357 74 364 40 l 353 104 q 301 36 333 64 q 219 1 268 8 q 90 32 140 -8 q 17 138 40 72 q -3 282 -6 204 q 28 426 0 360 q 110 532 57 492 q 239 563 163 572 q 310 534 279 557 q 361 476 340 511 q 363 535 363 513 q 361 564 364 557 q 349 574 354 567 q 344 590 343 582 q 352 609 344 601 q 371 617 360 617 m 354 308 q 345 372 353 339 q 324 434 338 406 q 290 483 311 463 q 240 508 269 504 q 176 481 203 514 q 132 397 149 449 q 111 282 115 344 q 117 167 107 219 q 153 83 128 115 q 219 57 178 50 q 276 87 254 63 q 313 144 299 111 q 335 213 328 176 q 349 278 343 249 q 356 290 351 288 l 356 301 q 354 308 354 304 m 267 815 q 288 822 276 824 q 306 814 299 821 q 315 797 314 807 q 307 776 317 786 l 204 665 q 183 657 194 656 q 165 666 172 658 q 155 684 157 674 q 163 704 153 694 l 267 815 z "},"â":{"ha":529,"x_min":-6,"x_max":483,"o":"m 371 617 q 435 597 411 619 q 467 540 460 574 q 468 504 468 532 q 467 435 468 476 q 463 345 465 394 q 460 243 461 296 q 458 201 460 226 q 457 147 457 175 q 458 92 457 118 q 464 53 460 67 q 482 28 482 49 q 475 9 483 17 q 456 0 467 1 q 390 19 415 -3 q 357 74 364 40 l 353 104 q 301 36 333 64 q 219 1 268 8 q 90 32 140 -8 q 17 138 40 72 q -3 282 -6 204 q 28 426 0 360 q 110 532 57 492 q 239 563 163 572 q 310 534 279 557 q 361 476 340 511 q 363 535 363 513 q 361 564 364 557 q 349 574 354 567 q 344 590 343 582 q 352 609 344 601 q 371 617 360 617 m 354 308 q 345 372 353 339 q 324 434 338 406 q 290 483 311 463 q 240 508 269 504 q 176 481 203 514 q 132 397 149 449 q 111 282 115 344 q 117 167 107 219 q 153 83 128 115 q 219 57 178 50 q 276 87 254 63 q 313 144 299 111 q 335 213 328 176 q 349 278 343 249 q 356 290 351 288 l 356 301 q 354 308 354 304 m 119 721 q 151 778 133 747 q 194 831 169 810 q 247 856 218 853 q 310 831 275 860 q 353 777 336 807 q 388 717 371 747 q 390 695 393 706 q 375 679 386 685 q 353 677 364 674 q 336 692 342 681 q 289 770 308 743 q 252 799 269 797 q 216 774 235 800 q 169 697 197 749 q 155 682 165 686 q 133 683 144 678 q 118 699 122 689 q 119 721 114 710 z "},"ã":{"ha":529,"x_min":-6,"x_max":483,"o":"m 371 617 q 435 597 411 619 q 467 540 460 574 q 468 504 468 532 q 467 435 468 476 q 463 345 465 394 q 460 243 461 296 q 458 201 460 226 q 457 147 457 175 q 458 92 457 118 q 464 53 460 67 q 482 28 482 49 q 475 9 483 17 q 456 0 467 1 q 390 19 415 -3 q 357 74 364 40 l 353 104 q 301 36 333 64 q 219 1 268 8 q 90 32 140 -8 q 17 138 40 72 q -3 282 -6 204 q 28 426 0 360 q 110 532 57 492 q 239 563 163 572 q 310 534 279 557 q 361 476 340 511 q 363 535 363 513 q 361 564 364 557 q 349 574 354 567 q 344 590 343 582 q 352 609 344 601 q 371 617 360 617 m 354 308 q 345 372 353 339 q 324 434 338 406 q 290 483 311 463 q 240 508 269 504 q 176 481 203 514 q 132 397 149 449 q 111 282 115 344 q 117 167 107 219 q 153 83 128 115 q 219 57 178 50 q 276 87 254 63 q 313 144 299 111 q 335 213 328 176 q 349 278 343 249 q 356 290 351 288 l 356 301 q 354 308 354 304 m 76 701 q 134 739 108 729 q 201 738 160 749 q 251 719 225 732 q 303 695 276 706 q 354 682 329 685 q 401 693 379 679 l 419 707 q 443 707 431 719 q 443 683 456 696 l 419 664 q 372 647 396 649 q 325 652 349 646 q 278 669 301 658 q 233 690 256 681 q 164 709 190 710 q 100 678 138 708 q 76 678 89 665 q 76 701 64 690 z "},"ä":{"ha":529,"x_min":-6,"x_max":483,"o":"m 371 617 q 435 597 411 619 q 467 540 460 574 q 468 504 468 532 q 467 435 468 476 q 463 345 465 394 q 460 243 461 296 q 458 201 460 226 q 457 147 457 175 q 458 92 457 118 q 464 53 460 67 q 482 28 482 49 q 475 9 483 17 q 456 0 467 1 q 390 19 415 -3 q 357 74 364 40 l 353 104 q 301 36 333 64 q 219 1 268 8 q 90 32 140 -8 q 17 138 40 72 q -3 282 -6 204 q 28 426 0 360 q 110 532 57 492 q 239 563 163 572 q 310 534 279 557 q 361 476 340 511 q 363 535 363 513 q 361 564 364 557 q 349 574 354 567 q 344 590 343 582 q 352 609 344 601 q 371 617 360 617 m 354 308 q 345 372 353 339 q 324 434 338 406 q 290 483 311 463 q 240 508 269 504 q 176 481 203 514 q 132 397 149 449 q 111 282 115 344 q 117 167 107 219 q 153 83 128 115 q 219 57 178 50 q 276 87 254 63 q 313 144 299 111 q 335 213 328 176 q 349 278 343 249 q 356 290 351 288 l 356 301 q 354 308 354 304 m 214 714 q 215 694 214 699 q 215 685 215 689 q 215 676 215 682 q 214 657 214 671 q 202 637 213 644 q 181 631 192 629 q 160 641 169 632 q 151 661 150 650 q 152 678 151 674 q 153 686 153 683 q 153 694 153 689 q 153 714 153 700 q 163 733 153 725 q 183 742 172 742 q 204 733 194 742 q 214 714 214 725 m 378 714 q 378 694 378 699 q 379 685 379 689 q 378 676 379 682 q 378 657 378 671 q 366 637 376 644 q 344 631 356 629 q 324 641 333 632 q 315 661 314 650 q 316 678 315 674 q 317 686 317 683 q 317 694 317 689 q 317 714 317 700 q 326 733 317 725 q 347 742 336 742 q 368 733 358 742 q 378 714 378 725 z "},"å":{"ha":529,"x_min":-6,"x_max":483,"o":"m 371 617 q 435 597 411 619 q 467 540 460 574 q 468 504 468 532 q 467 435 468 476 q 463 345 465 394 q 460 243 461 296 q 458 201 460 226 q 457 147 457 175 q 458 92 457 118 q 464 53 460 67 q 482 28 482 49 q 475 9 483 17 q 456 0 467 1 q 390 19 415 -3 q 357 74 364 40 l 353 104 q 301 36 333 64 q 219 1 268 8 q 90 32 140 -8 q 17 138 40 72 q -3 282 -6 204 q 28 426 0 360 q 110 532 57 492 q 239 563 163 572 q 310 534 279 557 q 361 476 340 511 q 363 535 363 513 q 361 564 364 557 q 349 574 354 567 q 344 590 343 582 q 352 609 344 601 q 371 617 360 617 m 354 308 q 345 372 353 339 q 324 434 338 406 q 290 483 311 463 q 240 508 269 504 q 176 481 203 514 q 132 397 149 449 q 111 282 115 344 q 117 167 107 219 q 153 83 128 115 q 219 57 178 50 q 276 87 254 63 q 313 144 299 111 q 335 213 328 176 q 349 278 343 249 q 356 290 351 288 l 356 301 q 354 308 354 304 m 254 610 l 251 610 q 249 611 251 611 q 208 639 219 617 q 201 686 197 661 q 222 732 206 711 q 264 756 239 753 q 316 738 300 760 q 330 687 332 715 q 308 634 328 658 q 254 610 289 610 m 256 629 q 290 647 278 628 q 304 688 303 665 q 296 726 306 710 q 264 736 286 742 q 239 716 249 732 q 226 682 229 700 q 231 648 224 664 q 256 629 238 632 z "},"æ":{"ha":879,"x_min":119,"x_max":819,"o":"m 625 215 q 626 196 625 201 q 630 153 626 182 q 642 99 633 125 q 667 60 651 74 q 710 65 683 47 q 733 94 724 75 q 746 135 742 113 q 751 178 750 157 q 753 215 753 200 q 762 234 754 226 q 781 242 769 242 q 800 233 792 240 q 807 214 808 225 q 801 139 806 179 q 779 65 796 99 q 746 25 767 40 q 701 3 725 10 q 652 1 678 -3 q 606 17 626 4 q 596 5 603 10 q 581 0 589 0 q 515 19 540 -3 q 482 74 489 40 l 478 104 q 426 36 458 64 q 344 1 393 8 q 215 32 265 -8 q 142 138 165 72 q 122 282 119 204 q 153 426 125 360 q 235 532 182 492 q 364 563 288 572 q 435 534 404 557 q 486 476 465 511 q 488 535 488 513 q 486 564 489 557 q 474 574 479 567 q 469 590 468 582 q 477 609 469 601 q 496 617 485 617 q 560 597 536 619 q 592 540 585 574 q 593 524 593 535 q 593 499 593 514 q 644 550 614 531 q 718 565 675 569 q 760 554 738 564 q 797 524 783 544 q 808 447 819 490 q 768 361 796 404 q 704 281 740 318 q 642 221 668 243 q 625 215 635 215 m 479 308 q 470 372 478 339 q 449 434 463 406 q 415 483 436 463 q 365 508 394 504 q 301 481 328 514 q 257 397 274 449 q 236 282 240 344 q 242 167 232 219 q 278 83 253 115 q 344 57 303 50 q 401 87 379 63 q 438 144 424 111 q 460 213 453 176 q 474 278 468 249 q 481 290 476 288 l 481 301 q 479 308 479 304 m 629 281 q 676 326 651 300 q 719 381 700 351 q 749 439 739 410 q 751 494 758 468 q 750 499 750 497 q 747 503 750 500 q 694 488 715 508 q 660 435 674 468 q 640 360 647 401 q 629 281 633 318 z "},"ç":{"ha":346,"x_min":-1,"x_max":279,"o":"m 211 440 q 211 489 226 468 q 175 507 196 510 q 149 484 161 504 q 128 431 138 464 q 113 358 119 399 q 103 276 107 318 q 99 188 99 231 q 105 113 99 144 q 125 65 111 81 q 161 60 139 50 q 190 87 178 68 q 208 128 201 106 q 219 174 215 151 q 224 213 224 197 q 233 232 225 224 q 251 239 240 240 q 271 231 263 239 q 278 211 279 222 q 269 143 276 179 q 247 76 263 107 q 208 24 232 46 q 147 0 183 3 q 68 20 99 -3 q 22 83 38 43 q 3 173 7 122 q 3 276 -1 224 q 19 394 7 338 q 56 490 32 450 q 117 547 81 529 q 207 547 154 564 q 245 524 231 540 q 266 488 260 508 q 269 447 272 468 q 254 407 267 425 q 236 397 247 399 q 215 403 225 396 q 206 421 207 410 q 211 440 204 432 m 151 14 q 154 -26 146 -11 q 177 -53 163 -42 q 209 -72 192 -64 q 240 -92 226 -81 q 262 -119 254 -103 q 264 -162 269 -136 q 243 -193 260 -183 q 206 -206 226 -203 q 163 -207 185 -208 q 126 -206 142 -206 l 88 -206 q 68 -197 76 -206 q 60 -178 60 -189 q 68 -157 60 -165 q 88 -149 76 -149 q 110 -149 93 -149 q 147 -150 128 -150 q 185 -149 167 -150 q 210 -147 203 -149 q 208 -137 211 -140 q 199 -129 204 -133 q 151 -100 174 -112 q 115 -72 129 -87 q 95 -33 100 -56 q 99 29 90 -10 q 112 46 101 40 q 133 49 122 51 q 150 35 144 46 q 151 14 156 25 z "},"è":{"ha":350,"x_min":-3,"x_max":283,"o":"m 100 281 q 140 323 113 292 q 191 390 167 354 q 226 457 215 425 q 218 503 238 489 q 168 493 189 513 q 133 439 147 474 q 112 361 119 404 q 100 281 104 318 m 96 215 q 98 174 96 200 q 106 121 100 147 q 124 75 113 94 q 153 56 135 56 q 192 75 178 56 q 213 121 206 94 q 222 174 219 147 q 224 215 224 200 q 233 234 225 226 q 251 242 240 242 q 271 233 263 240 q 278 214 279 225 q 271 140 276 176 q 251 74 265 103 q 214 25 238 44 q 156 1 190 6 q 83 15 118 -3 q 29 72 49 32 q 6 151 14 101 q -2 256 -3 200 q 9 369 -1 313 q 42 472 19 426 q 101 543 65 517 q 189 565 138 569 q 231 554 208 564 q 268 524 254 544 q 276 467 283 501 q 246 390 269 432 q 183 303 222 349 q 96 215 144 258 m 186 661 l 82 772 q 74 792 72 782 q 84 810 76 803 q 103 819 92 818 q 124 811 114 821 l 226 700 q 235 680 236 690 q 226 663 233 669 q 207 654 218 656 q 186 661 196 653 z "},"é":{"ha":350,"x_min":-3,"x_max":283,"o":"m 100 281 q 140 323 113 292 q 191 390 167 354 q 226 457 215 425 q 218 503 238 489 q 168 493 189 513 q 133 439 147 474 q 112 361 119 404 q 100 281 104 318 m 96 215 q 98 174 96 200 q 106 121 100 147 q 124 75 113 94 q 153 56 135 56 q 192 75 178 56 q 213 121 206 94 q 222 174 219 147 q 224 215 224 200 q 233 234 225 226 q 251 242 240 242 q 271 233 263 240 q 278 214 279 225 q 271 140 276 176 q 251 74 265 103 q 214 25 238 44 q 156 1 190 6 q 83 15 118 -3 q 29 72 49 32 q 6 151 14 101 q -2 256 -3 200 q 9 369 -1 313 q 42 472 19 426 q 101 543 65 517 q 189 565 138 569 q 231 554 208 564 q 268 524 254 544 q 276 467 283 501 q 246 390 269 432 q 183 303 222 349 q 96 215 144 258 m 206 794 q 226 801 215 803 q 245 793 238 800 q 254 776 253 786 q 246 756 256 765 l 143 644 q 122 636 133 635 q 103 645 111 638 q 94 663 96 653 q 101 683 92 674 l 206 794 z "},"ê":{"ha":350,"x_min":-3,"x_max":303,"o":"m 100 281 q 140 323 113 292 q 191 390 167 354 q 226 457 215 425 q 218 503 238 489 q 168 493 189 513 q 133 439 147 474 q 112 361 119 404 q 100 281 104 318 m 96 215 q 98 174 96 200 q 106 121 100 147 q 124 75 113 94 q 153 56 135 56 q 192 75 178 56 q 213 121 206 94 q 222 174 219 147 q 224 215 224 200 q 233 234 225 226 q 251 242 240 242 q 271 233 263 240 q 278 214 279 225 q 271 140 276 176 q 251 74 265 103 q 214 25 238 44 q 156 1 190 6 q 83 15 118 -3 q 29 72 49 32 q 6 151 14 101 q -2 256 -3 200 q 9 369 -1 313 q 42 472 19 426 q 101 543 65 517 q 189 565 138 569 q 231 554 208 564 q 268 524 254 544 q 276 467 283 501 q 246 390 269 432 q 183 303 222 349 q 96 215 144 258 m 29 686 q 61 744 43 713 q 103 797 79 775 q 156 822 128 818 q 219 796 185 825 q 263 742 246 772 q 297 682 281 713 q 299 660 303 671 q 285 644 296 650 q 263 642 274 639 q 246 657 251 646 q 199 735 218 708 q 162 764 179 763 q 126 740 144 765 q 79 663 107 714 q 65 647 75 651 q 43 649 54 643 q 28 665 32 654 q 29 686 24 675 z "},"ë":{"ha":350,"x_min":-3,"x_max":289,"o":"m 100 281 q 140 323 113 292 q 191 390 167 354 q 226 457 215 425 q 218 503 238 489 q 168 493 189 513 q 133 439 147 474 q 112 361 119 404 q 100 281 104 318 m 96 215 q 98 174 96 200 q 106 121 100 147 q 124 75 113 94 q 153 56 135 56 q 192 75 178 56 q 213 121 206 94 q 222 174 219 147 q 224 215 224 200 q 233 234 225 226 q 251 242 240 242 q 271 233 263 240 q 278 214 279 225 q 271 140 276 176 q 251 74 265 103 q 214 25 238 44 q 156 1 190 6 q 83 15 118 -3 q 29 72 49 32 q 6 151 14 101 q -2 256 -3 200 q 9 369 -1 313 q 42 472 19 426 q 101 543 65 517 q 189 565 138 569 q 231 554 208 564 q 268 524 254 544 q 276 467 283 501 q 246 390 269 432 q 183 303 222 349 q 96 215 144 258 m 124 694 q 124 674 124 679 q 125 666 125 669 q 124 657 125 663 q 124 638 124 651 q 112 617 122 625 q 90 611 101 610 q 69 622 79 613 q 61 642 60 631 q 62 659 61 654 q 63 667 63 664 q 63 675 63 669 q 63 694 63 681 q 72 714 63 706 q 93 722 82 722 q 114 714 104 722 q 124 694 124 706 m 288 694 q 288 674 288 679 q 289 666 289 669 q 288 657 289 663 q 288 638 288 651 q 276 617 286 625 q 254 611 265 610 q 233 622 243 613 q 225 642 224 631 q 226 659 225 654 q 226 667 226 664 q 226 675 226 669 q 226 694 226 681 q 236 714 226 706 q 257 722 246 722 q 278 714 268 722 q 288 694 288 706 z "},"ì":{"ha":325,"x_min":-25,"x_max":318,"o":"m 289 3 q 222 24 247 0 q 189 82 196 47 q 188 161 183 108 q 198 275 192 214 q 208 399 204 336 q 205 508 211 461 q 179 581 199 556 q 119 592 160 606 q 84 564 100 585 q 57 517 68 543 q 40 465 46 492 q 32 422 33 439 q 22 403 31 411 q 1 396 13 394 q -17 406 -10 397 q -25 426 -25 415 q -13 493 -22 457 q 13 562 -4 529 q 56 619 29 594 q 119 649 82 643 q 238 635 197 661 q 294 566 278 610 q 312 472 311 522 q 313 383 313 421 q 309 315 313 363 q 302 216 306 268 q 297 119 299 164 q 299 57 294 74 q 318 31 318 50 q 309 11 318 19 q 289 3 300 3 m 193 726 l 89 838 q 81 858 79 847 q 91 876 83 868 q 110 885 99 883 q 131 876 121 886 l 233 765 q 242 745 243 756 q 233 728 240 735 q 214 719 225 721 q 193 726 203 718 z "},"í":{"ha":325,"x_min":-25,"x_max":318,"o":"m 289 3 q 222 24 247 0 q 189 82 196 47 q 188 161 183 108 q 198 275 192 214 q 208 399 204 336 q 205 508 211 461 q 179 581 199 556 q 119 592 160 606 q 84 564 100 585 q 57 517 68 543 q 40 465 46 492 q 32 422 33 439 q 22 403 31 411 q 1 396 13 394 q -17 406 -10 397 q -25 426 -25 415 q -13 493 -22 457 q 13 562 -4 529 q 56 619 29 594 q 119 649 82 643 q 238 635 197 661 q 294 566 278 610 q 312 472 311 522 q 313 383 313 421 q 309 315 313 363 q 302 216 306 268 q 297 119 299 164 q 299 57 294 74 q 318 31 318 50 q 309 11 318 19 q 289 3 300 3 m 210 899 q 231 906 219 907 q 249 897 242 904 q 258 880 257 890 q 250 860 260 869 l 147 749 q 126 740 138 739 q 108 749 115 742 q 98 767 100 757 q 106 788 96 778 l 210 899 z "},"î":{"ha":325,"x_min":-25,"x_max":318,"o":"m 289 3 q 222 24 247 0 q 189 82 196 47 q 188 161 183 108 q 198 275 192 214 q 208 399 204 336 q 205 508 211 461 q 179 581 199 556 q 119 592 160 606 q 84 564 100 585 q 57 517 68 543 q 40 465 46 492 q 32 422 33 439 q 22 403 31 411 q 1 396 13 394 q -17 406 -10 397 q -25 426 -25 415 q -13 493 -22 457 q 13 562 -4 529 q 56 619 29 594 q 119 649 82 643 q 238 635 197 661 q 294 566 278 610 q 312 472 311 522 q 313 383 313 421 q 309 315 313 363 q 302 216 306 268 q 297 119 299 164 q 299 57 294 74 q 318 31 318 50 q 309 11 318 19 q 289 3 300 3 m 24 757 q 56 815 38 783 q 98 867 74 846 q 151 892 122 889 q 214 867 179 896 q 258 813 240 843 q 292 753 275 783 q 294 731 297 742 q 279 715 290 721 q 257 713 268 710 q 240 728 246 717 q 193 806 213 779 q 156 835 174 833 q 120 810 139 836 q 74 733 101 785 q 59 718 69 722 q 38 719 49 714 q 22 735 26 725 q 24 757 18 746 z "},"ï":{"ha":325,"x_min":-25,"x_max":318,"o":"m 289 3 q 222 24 247 0 q 189 82 196 47 q 188 161 183 108 q 198 275 192 214 q 208 399 204 336 q 205 508 211 461 q 179 581 199 556 q 119 592 160 606 q 84 564 100 585 q 57 517 68 543 q 40 465 46 492 q 32 422 33 439 q 22 403 31 411 q 1 396 13 394 q -17 406 -10 397 q -25 426 -25 415 q -13 493 -22 457 q 13 562 -4 529 q 56 619 29 594 q 119 649 82 643 q 238 635 197 661 q 294 566 278 610 q 312 472 311 522 q 313 383 313 421 q 309 315 313 363 q 302 216 306 268 q 297 119 299 164 q 299 57 294 74 q 318 31 318 50 q 309 11 318 19 q 289 3 300 3 m 119 769 q 120 749 119 754 q 121 741 121 744 q 120 732 121 738 q 119 713 119 726 q 108 692 118 700 q 86 686 97 685 q 65 697 75 688 q 57 717 56 706 q 58 734 57 729 q 58 742 58 739 q 58 750 58 744 q 58 769 58 756 q 68 789 58 781 q 89 797 78 797 q 110 789 100 797 q 119 769 119 781 m 283 769 q 284 749 283 754 q 285 741 285 744 q 284 732 285 738 q 283 713 283 726 q 272 692 282 700 q 250 686 261 685 q 229 697 239 688 q 221 717 219 706 q 222 734 221 729 q 222 742 222 739 q 222 750 222 744 q 222 769 222 756 q 232 789 222 781 q 253 797 242 797 q 274 789 264 797 q 283 769 283 781 z "},"ð":{"ha":553,"x_min":29,"x_max":504,"o":"m 124 683 l 90 729 l 247 821 q 138 968 199 911 l 192 1007 q 258 942 226 979 q 317 863 289 906 q 395 910 357 886 q 474 957 433 933 q 493 928 482 946 q 503 910 504 911 l 346 815 q 426 642 393 735 q 477 459 460 550 q 492 284 494 368 q 464 136 489 200 q 388 35 439 72 q 258 0 338 -1 q 146 34 192 1 q 74 117 100 67 q 38 228 47 167 q 37 351 29 290 q 67 464 44 411 q 126 549 90 517 q 211 586 163 581 q 318 558 260 592 q 332 542 329 553 q 329 521 335 532 q 312 507 322 510 q 290 510 301 504 q 200 510 236 533 q 144 438 164 488 q 122 323 125 388 q 134 201 119 258 q 179 102 149 143 q 256 60 210 61 q 333 91 303 58 q 376 178 363 124 q 389 306 390 233 q 374 458 388 379 q 334 619 360 538 q 274 772 308 700 l 124 683 z "},"ñ":{"ha":478,"x_min":-6,"x_max":435,"o":"m 22 614 q 87 594 63 617 q 118 538 111 571 q 119 522 119 533 q 119 496 119 511 q 158 544 135 524 q 214 572 181 565 q 297 574 263 582 q 352 546 331 565 q 385 498 374 526 q 401 438 396 469 q 408 376 407 407 q 408 322 408 346 q 407 257 408 303 q 403 161 406 211 q 402 67 401 111 q 407 8 403 24 q 425 -17 425 3 q 417 -36 425 -28 q 399 -44 410 -44 q 333 -26 358 -49 q 300 28 307 -4 q 297 104 294 54 q 302 214 299 154 q 307 334 306 274 q 301 440 308 394 q 274 508 293 485 q 215 517 254 532 q 182 489 196 510 q 158 443 168 468 q 143 393 149 418 q 136 351 138 368 q 113 325 136 328 q 112 283 113 304 q 110 240 111 263 q 108 197 110 224 q 107 143 107 171 q 108 90 107 115 q 114 50 110 64 q 133 25 133 44 q 107 -3 133 0 q 41 16 67 -6 q 8 71 15 38 q 1 144 1 97 q 4 244 1 190 q 8 356 6 301 q 11 453 10 410 q 13 525 13 496 q 13 561 14 554 q -6 588 -6 568 q 3 606 -6 599 q 22 614 11 614 m 56 731 q 113 768 88 758 q 181 767 139 778 q 230 748 204 761 q 282 724 256 735 q 333 711 308 714 q 381 722 358 708 l 399 736 q 422 736 410 749 q 422 713 435 725 l 399 693 q 351 676 375 678 q 304 681 328 675 q 258 699 281 688 q 213 719 235 710 q 143 738 169 739 q 79 707 117 738 q 56 707 68 694 q 56 731 43 719 z "},"ò":{"ha":453,"x_min":-1,"x_max":382,"o":"m 232 492 q 174 463 199 494 q 137 381 150 431 q 121 274 124 332 q 127 166 118 215 q 157 85 136 117 q 211 57 178 53 q 268 92 244 60 q 305 173 292 125 q 321 276 318 221 q 315 378 324 331 q 285 457 306 425 q 232 492 265 489 m 210 1 q 92 30 139 -8 q 22 130 44 68 q 1 266 -1 192 q 28 404 3 340 q 104 510 54 468 q 229 547 154 551 q 317 505 282 544 q 367 407 351 465 q 380 281 382 349 q 358 153 378 213 q 300 51 338 93 q 210 1 263 8 m 261 596 l 157 707 q 149 727 147 717 q 159 745 151 738 q 178 754 167 753 q 199 746 189 756 l 301 635 q 310 615 311 625 q 301 597 308 604 q 282 589 293 590 q 261 596 271 588 z "},"ó":{"ha":453,"x_min":-1,"x_max":382,"o":"m 232 492 q 174 463 199 494 q 137 381 150 431 q 121 274 124 332 q 127 166 118 215 q 157 85 136 117 q 211 57 178 53 q 268 92 244 60 q 305 173 292 125 q 321 276 318 221 q 315 378 324 331 q 285 457 306 425 q 232 492 265 489 m 210 1 q 92 30 139 -8 q 22 130 44 68 q 1 266 -1 192 q 28 404 3 340 q 104 510 54 468 q 229 547 154 551 q 317 505 282 544 q 367 407 351 465 q 380 281 382 349 q 358 153 378 213 q 300 51 338 93 q 210 1 263 8 m 261 768 q 282 775 271 776 q 301 767 293 774 q 310 749 308 760 q 301 729 311 739 l 199 618 q 178 610 189 608 q 159 619 167 611 q 149 637 151 626 q 157 657 147 647 l 261 768 z "},"ô":{"ha":453,"x_min":-1,"x_max":382,"o":"m 232 492 q 174 463 199 494 q 137 381 150 431 q 121 274 124 332 q 127 166 118 215 q 157 85 136 117 q 211 57 178 53 q 268 92 244 60 q 305 173 292 125 q 321 276 318 221 q 315 378 324 331 q 285 457 306 425 q 232 492 265 489 m 210 1 q 92 30 139 -8 q 22 130 44 68 q 1 266 -1 192 q 28 404 3 340 q 104 510 54 468 q 229 547 154 551 q 317 505 282 544 q 367 407 351 465 q 380 281 382 349 q 358 153 378 213 q 300 51 338 93 q 210 1 263 8 m 85 638 q 117 695 99 664 q 159 748 135 726 q 212 773 183 769 q 275 747 240 776 q 319 694 301 724 q 353 633 336 664 q 355 612 358 622 q 340 596 351 601 q 318 594 329 590 q 301 608 307 597 q 254 687 274 660 q 217 715 235 714 q 181 691 200 717 q 135 614 163 665 q 120 599 131 603 q 99 600 110 594 q 83 616 88 606 q 85 638 79 626 z "},"õ":{"ha":453,"x_min":-1,"x_max":414,"o":"m 232 492 q 174 463 199 494 q 137 381 150 431 q 121 274 124 332 q 127 166 118 215 q 157 85 136 117 q 211 57 178 53 q 268 92 244 60 q 305 173 292 125 q 321 276 318 221 q 315 378 324 331 q 285 457 306 425 q 232 492 265 489 m 210 1 q 92 30 139 -8 q 22 130 44 68 q 1 266 -1 192 q 28 404 3 340 q 104 510 54 468 q 229 547 154 551 q 317 505 282 544 q 367 407 351 465 q 380 281 382 349 q 358 153 378 213 q 300 51 338 93 q 210 1 263 8 m 35 665 q 92 703 67 693 q 160 701 118 713 q 209 683 183 696 q 261 659 235 669 q 313 646 288 649 q 360 657 338 643 l 378 671 q 401 671 389 683 q 401 647 414 660 l 378 628 q 331 611 354 613 q 283 616 307 610 q 237 633 260 622 q 192 654 214 644 q 122 673 149 674 q 58 642 96 672 q 35 642 47 629 q 35 665 22 654 z "},"ö":{"ha":453,"x_min":-1,"x_max":382,"o":"m 232 492 q 174 463 199 494 q 137 381 150 431 q 121 274 124 332 q 127 166 118 215 q 157 85 136 117 q 211 57 178 53 q 268 92 244 60 q 305 173 292 125 q 321 276 318 221 q 315 378 324 331 q 285 457 306 425 q 232 492 265 489 m 210 1 q 92 30 139 -8 q 22 130 44 68 q 1 266 -1 192 q 28 404 3 340 q 104 510 54 468 q 229 547 154 551 q 317 505 282 544 q 367 407 351 465 q 380 281 382 349 q 358 153 378 213 q 300 51 338 93 q 210 1 263 8 m 175 694 q 176 674 175 679 q 176 666 176 669 q 176 657 176 663 q 175 638 175 651 q 163 617 174 625 q 142 611 153 610 q 121 622 131 613 q 113 642 111 631 q 113 659 113 654 q 114 667 114 664 q 114 675 114 669 q 114 694 114 681 q 124 714 114 706 q 144 722 133 722 q 165 714 156 722 q 175 694 175 706 m 339 694 q 340 674 339 679 q 340 666 340 669 q 340 657 340 663 q 339 638 339 651 q 327 617 338 625 q 306 611 317 610 q 285 622 294 613 q 276 642 275 631 q 277 659 276 654 q 278 667 278 664 q 278 675 278 669 q 278 694 278 681 q 288 714 278 706 q 308 722 297 722 q 329 714 319 722 q 339 694 339 706 z "},"ø":{"ha":453,"x_min":-3,"x_max":385,"o":"m 210 1 q 139 6 169 -3 l 117 -47 q 95 -60 106 -58 q 77 -56 85 -61 q 66 -43 69 -51 q 65 -26 63 -35 l 90 31 q 30 110 51 60 q 3 219 8 161 q 9 338 -3 278 q 49 445 21 397 q 123 522 78 493 q 229 547 168 550 q 297 522 265 546 l 308 547 q 322 562 311 558 q 344 563 333 565 q 360 547 356 557 q 360 525 364 536 l 339 475 q 378 343 371 421 q 368 192 385 265 q 312 64 351 118 q 210 1 272 10 m 232 492 q 188 476 207 493 q 156 431 169 460 q 133 363 142 401 q 122 285 125 325 q 122 205 119 244 q 135 133 125 165 l 275 468 q 232 492 256 490 m 168 72 q 211 57 188 53 q 271 97 246 60 q 308 186 296 133 q 321 297 321 239 q 308 403 321 356 q 239 238 274 319 q 168 72 204 156 z "},"ù":{"ha":463,"x_min":-14,"x_max":417,"o":"m 306 615 q 370 595 346 618 q 401 539 394 572 q 403 503 403 531 q 401 434 403 475 q 397 343 400 393 q 393 240 394 293 q 392 193 393 224 q 392 129 392 163 q 393 66 392 96 q 399 22 394 36 q 411 13 406 19 q 417 -3 417 6 q 409 -22 417 -14 q 390 -31 401 -31 q 324 -12 350 -35 q 292 42 299 10 l 288 75 q 249 28 272 47 q 193 3 225 8 q 79 16 118 -10 q 22 83 40 42 q 2 174 4 125 q 0 258 0 222 q 2 324 0 278 q 6 419 4 369 q 8 513 8 469 q 4 572 8 557 q -14 599 -14 579 q 13 625 -14 625 q 78 605 53 628 q 111 549 104 582 q 114 472 117 522 q 107 363 111 422 q 101 244 103 304 q 106 138 99 183 q 132 69 113 93 q 190 58 151 44 q 224 84 210 64 q 249 129 239 104 q 264 179 258 154 q 271 221 269 204 q 288 244 272 238 l 288 246 q 291 356 289 303 q 294 453 293 410 q 297 526 296 497 q 296 563 297 556 q 283 572 289 565 q 278 589 278 579 q 287 608 279 600 q 306 615 294 615 m 218 661 l 114 772 q 106 792 104 782 q 116 810 108 803 q 135 819 124 818 q 156 811 146 821 l 258 700 q 267 680 268 690 q 258 663 265 669 q 239 654 250 656 q 218 661 228 653 z "},"ú":{"ha":463,"x_min":-14,"x_max":417,"o":"m 306 615 q 370 595 346 618 q 401 539 394 572 q 403 503 403 531 q 401 434 403 475 q 397 343 400 393 q 393 240 394 293 q 392 193 393 224 q 392 129 392 163 q 393 66 392 96 q 399 22 394 36 q 411 13 406 19 q 417 -3 417 6 q 409 -22 417 -14 q 390 -31 401 -31 q 324 -12 350 -35 q 292 42 299 10 l 288 75 q 249 28 272 47 q 193 3 225 8 q 79 16 118 -10 q 22 83 40 42 q 2 174 4 125 q 0 258 0 222 q 2 324 0 278 q 6 419 4 369 q 8 513 8 469 q 4 572 8 557 q -14 599 -14 579 q 13 625 -14 625 q 78 605 53 628 q 111 549 104 582 q 114 472 117 522 q 107 363 111 422 q 101 244 103 304 q 106 138 99 183 q 132 69 113 93 q 190 58 151 44 q 224 84 210 64 q 249 129 239 104 q 264 179 258 154 q 271 221 269 204 q 288 244 272 238 l 288 246 q 291 356 289 303 q 294 453 293 410 q 297 526 296 497 q 296 563 297 556 q 283 572 289 565 q 278 589 278 579 q 287 608 279 600 q 306 615 294 615 m 238 825 q 258 832 247 833 q 277 824 269 831 q 286 806 285 817 q 278 786 288 796 l 175 675 q 154 667 165 665 q 135 676 143 668 q 126 694 128 683 q 133 714 124 704 l 238 825 z "},"û":{"ha":463,"x_min":-14,"x_max":417,"o":"m 306 615 q 370 595 346 618 q 401 539 394 572 q 403 503 403 531 q 401 434 403 475 q 397 343 400 393 q 393 240 394 293 q 392 193 393 224 q 392 129 392 163 q 393 66 392 96 q 399 22 394 36 q 411 13 406 19 q 417 -3 417 6 q 409 -22 417 -14 q 390 -31 401 -31 q 324 -12 350 -35 q 292 42 299 10 l 288 75 q 249 28 272 47 q 193 3 225 8 q 79 16 118 -10 q 22 83 40 42 q 2 174 4 125 q 0 258 0 222 q 2 324 0 278 q 6 419 4 369 q 8 513 8 469 q 4 572 8 557 q -14 599 -14 579 q 13 625 -14 625 q 78 605 53 628 q 111 549 104 582 q 114 472 117 522 q 107 363 111 422 q 101 244 103 304 q 106 138 99 183 q 132 69 113 93 q 190 58 151 44 q 224 84 210 64 q 249 129 239 104 q 264 179 258 154 q 271 221 269 204 q 288 244 272 238 l 288 246 q 291 356 289 303 q 294 453 293 410 q 297 526 296 497 q 296 563 297 556 q 283 572 289 565 q 278 589 278 579 q 287 608 279 600 q 306 615 294 615 m 63 706 q 94 763 76 732 q 137 816 113 794 q 190 841 161 838 q 253 815 218 844 q 297 762 279 792 q 331 701 314 732 q 333 680 336 690 q 318 664 329 669 q 296 662 307 658 q 279 676 285 665 q 232 755 251 728 q 195 783 213 782 q 159 759 178 785 q 113 682 140 733 q 98 667 108 671 q 76 668 88 663 q 61 684 65 674 q 63 706 57 694 z "}}}
